{"glyphs":{"0":{"ha":765,"x_min":81,"x_max":741,"o":"m 328 -14 q 144 73 208 -14 q 81 319 81 159 q 90 465 81 388 q 120 620 100 543 q 174 767 141 697 q 252 890 206 836 q 357 976 298 945 q 492 1007 417 1007 q 603 986 556 1007 q 681 925 650 965 q 726 826 711 884 q 741 692 741 767 q 731 524 741 608 q 699 361 720 439 q 643 214 677 282 q 564 95 610 146 q 459 15 518 44 q 328 -14 400 -14 m 340 83 q 427 109 388 83 q 498 181 467 135 q 554 287 530 227 q 594 415 578 347 q 617 554 610 483 q 625 694 625 626 q 591 854 625 799 q 486 910 557 910 q 400 884 440 910 q 328 813 361 859 q 271 710 296 768 q 229 586 246 652 q 203 451 212 519 q 195 319 195 383 q 230 144 195 205 q 340 83 265 83 z "},"1":{"ha":765,"x_min":202,"x_max":611,"o":"m 285 0 l 420 632 q 439 718 429 675 q 459 800 449 762 q 476 863 469 838 q 434 826 456 842 q 385 791 412 809 l 255 709 l 202 794 l 512 991 l 611 991 l 399 0 l 285 0 z "},"2":{"ha":765,"x_min":5,"x_max":730,"o":"m 5 0 l 26 96 l 347 386 q 463 494 413 446 q 546 584 513 541 q 596 669 579 626 q 612 764 612 713 q 573 869 612 829 q 462 909 534 909 q 385 898 421 909 q 314 867 348 886 q 245 823 279 848 l 192 900 q 319 976 251 946 q 474 1006 388 1006 q 613 977 556 1006 q 700 899 670 949 q 730 782 730 848 q 698 632 730 701 q 597 492 666 564 q 418 322 529 419 l 174 108 l 174 103 l 633 103 l 614 0 l 5 0 z "},"3":{"ha":765,"x_min":31,"x_max":729,"o":"m 292 -14 q 148 1 211 -14 q 31 41 84 16 l 31 150 q 150 102 79 123 q 293 81 220 81 q 395 96 351 81 q 471 137 440 111 q 518 202 502 164 q 534 287 534 240 q 509 385 534 345 q 439 445 485 425 q 328 465 393 465 l 237 465 l 256 559 l 349 559 q 449 573 401 559 q 534 615 496 587 q 592 682 571 642 q 614 774 614 722 q 573 874 614 839 q 467 910 532 910 q 347 888 402 910 q 237 827 292 865 l 184 907 q 314 978 243 949 q 477 1006 385 1006 q 614 978 558 1006 q 700 902 671 951 q 729 787 729 852 q 698 659 729 716 q 609 564 667 602 q 473 512 552 526 l 473 506 q 603 436 552 492 q 653 292 653 381 q 632 177 653 232 q 566 79 610 122 q 454 12 522 37 q 292 -14 385 -14 z "},"4":{"ha":765,"x_min":9,"x_max":743,"o":"m 406 0 l 456 230 l 9 230 l 29 332 l 597 992 l 726 992 l 588 330 l 743 330 l 722 230 l 565 230 l 515 0 l 406 0 m 146 330 l 477 330 l 532 588 q 557 693 544 640 q 585 795 571 747 q 607 876 598 844 l 602 876 q 555 809 584 848 q 505 747 526 770 l 146 330 z "},"5":{"ha":765,"x_min":52,"x_max":745,"o":"m 279 -14 q 194 -7 235 -14 q 117 11 153 -1 q 52 41 81 23 l 52 150 q 159 100 100 119 q 279 81 217 81 q 404 101 351 81 q 490 154 456 120 q 541 234 524 189 q 557 330 557 279 q 506 466 557 417 q 366 515 455 515 q 286 508 323 515 q 203 490 249 501 l 155 527 l 290 991 l 745 991 l 723 888 l 366 888 l 278 590 q 335 601 304 596 q 406 606 366 606 q 548 574 488 606 q 641 484 608 542 q 674 345 674 425 q 653 216 674 279 q 586 101 632 153 q 464 18 540 49 q 279 -14 389 -14 z "},"6":{"ha":765,"x_min":88,"x_max":758,"o":"m 349 -14 q 211 20 269 -14 q 120 122 152 54 q 88 290 88 189 q 101 443 88 363 q 140 604 114 524 q 207 754 167 684 q 302 879 248 825 q 392 948 342 920 q 501 991 441 977 q 630 1006 561 1006 q 700 1002 666 1006 q 758 990 733 998 l 734 892 q 683 905 711 900 q 617 909 655 909 q 451 868 528 909 q 317 737 375 827 q 225 502 259 648 l 230 502 q 292 564 256 537 q 372 607 328 591 q 467 623 416 623 q 632 557 570 623 q 693 374 693 492 q 672 234 693 302 q 607 109 650 165 q 500 20 564 53 q 349 -14 435 -14 m 359 81 q 454 105 412 81 q 523 169 495 128 q 566 259 551 209 q 581 363 581 310 q 544 487 581 444 q 430 530 506 530 q 332 507 376 530 q 258 449 288 483 q 216 384 228 415 q 207 353 210 370 q 201 318 203 336 q 200 281 200 300 q 209 208 200 243 q 236 143 217 172 q 285 98 254 115 q 359 81 315 81 z "},"7":{"ha":765,"x_min":117,"x_max":781,"o":"m 117 0 l 642 892 l 152 892 l 172 991 l 781 991 l 764 903 l 239 0 l 117 0 z "},"8":{"ha":765,"x_min":62,"x_max":752,"o":"m 340 -14 q 185 20 247 -14 q 93 110 123 54 q 62 233 62 165 q 95 362 62 307 q 188 460 127 418 q 331 532 248 501 q 268 588 295 557 q 224 656 240 618 q 209 747 209 695 q 248 886 209 827 q 353 976 287 944 q 501 1007 419 1007 q 645 976 590 1007 q 726 896 701 945 q 752 789 752 846 q 719 665 752 716 q 632 578 686 614 q 515 517 578 543 q 600 454 564 488 q 656 374 636 419 q 676 267 676 329 q 640 127 676 191 q 528 25 603 64 q 340 -14 454 -14 m 351 80 q 468 106 422 80 q 538 175 515 132 q 562 265 562 217 q 545 349 562 312 q 495 416 528 386 q 412 474 462 447 q 294 425 347 454 q 211 352 241 396 q 180 239 180 307 q 228 122 180 164 q 351 80 276 80 m 436 568 q 546 622 501 593 q 615 689 591 650 q 638 779 638 727 q 598 876 638 840 q 492 911 559 911 q 402 891 441 911 q 342 835 363 871 q 320 747 320 798 q 352 642 320 683 q 436 568 385 600 z "},"9":{"ha":765,"x_min":65,"x_max":725,"o":"m 229 -14 q 144 -7 187 -14 q 65 9 100 -1 l 65 114 q 143 93 102 102 q 232 84 184 84 q 356 109 300 84 q 456 182 412 133 q 533 306 500 231 q 588 483 566 381 l 582 483 q 525 424 559 450 q 450 384 492 399 q 361 370 409 370 q 232 400 285 370 q 151 488 178 430 q 123 629 123 546 q 138 746 123 690 q 183 849 154 802 q 255 931 213 897 q 351 986 298 966 q 467 1006 404 1006 q 607 971 549 1006 q 695 868 665 936 q 725 701 725 800 q 712 546 725 627 q 674 384 699 464 q 614 234 650 303 q 534 115 579 164 q 468 56 503 81 q 393 16 432 32 q 314 -6 355 1 q 229 -14 273 -14 m 383 461 q 473 478 431 461 q 546 528 514 496 q 595 604 577 560 q 609 654 605 627 q 614 716 614 682 q 597 816 614 772 q 546 885 580 860 q 461 910 512 910 q 365 888 408 910 q 294 828 323 866 q 250 740 265 790 q 235 634 235 690 q 273 506 235 551 q 383 461 311 461 z "},"\u0000":{"ha":0,"x_min":0,"x_max":0,"o":""},"\r":{"ha":361,"x_min":0,"x_max":0,"o":""}," ":{"ha":361,"x_min":0,"x_max":0,"o":""},"!":{"ha":355,"x_min":30,"x_max":374,"o":"m 107 275 l 237 991 l 374 991 l 199 275 l 107 275 m 99 -19 q 48 0 66 -19 q 30 52 30 18 q 53 125 30 93 q 127 158 77 158 q 175 140 157 158 q 193 87 193 121 q 170 15 193 50 q 99 -19 147 -19 z "},"\"":{"ha":532,"x_min":151,"x_max":559,"o":"m 385 633 l 436 991 l 559 991 l 458 633 l 385 633 m 151 633 l 203 991 l 326 991 l 224 633 l 151 633 z "},"#":{"ha":892,"x_min":42,"x_max":903,"o":"m 136 0 l 219 293 l 42 293 l 50 378 l 243 378 l 313 611 l 125 611 l 133 694 l 336 694 l 420 991 l 513 991 l 427 694 l 634 694 l 721 991 l 808 991 l 724 694 l 903 694 l 895 611 l 699 611 l 631 378 l 824 378 l 816 293 l 607 293 l 522 0 l 429 0 l 518 293 l 311 293 l 225 0 l 136 0 m 336 378 l 543 378 l 607 611 l 401 611 l 336 378 z "},"$":{"ha":765,"x_min":50,"x_max":727,"o":"m 235 -81 l 268 69 q 151 85 209 73 q 50 118 92 98 l 50 222 q 166 179 102 195 q 286 163 229 164 l 353 471 q 254 519 296 492 q 191 587 213 547 q 168 686 168 627 q 205 817 168 764 q 307 899 243 869 q 450 935 370 928 l 476 1053 l 560 1053 l 536 934 q 637 917 588 930 q 727 882 686 904 l 685 791 q 607 824 650 810 q 516 841 564 838 l 452 540 q 557 489 514 516 q 621 424 600 461 q 643 331 643 386 q 604 196 643 251 q 499 110 565 141 q 351 71 433 79 l 318 -81 l 235 -81 m 371 166 q 453 191 416 172 q 513 243 490 210 q 535 321 535 276 q 524 370 535 349 q 490 409 513 391 q 431 441 467 426 l 371 166 m 374 570 l 431 841 q 349 818 385 836 q 293 767 313 800 q 273 688 273 735 q 284 640 273 662 q 318 600 296 617 q 374 570 340 583 z "},"%":{"ha":1104,"x_min":112,"x_max":1042,"o":"m 158 0 l 894 991 l 995 991 l 259 0 l 158 0 m 269 383 q 153 434 195 383 q 112 583 112 486 q 119 679 112 624 q 144 791 126 734 q 191 897 161 848 q 267 976 221 945 q 375 1006 312 1006 q 494 957 453 1006 q 535 817 535 908 q 527 723 535 779 q 501 609 519 668 q 452 499 483 550 q 377 415 422 448 q 269 383 332 383 m 279 469 q 344 496 317 469 q 390 566 372 523 q 420 655 409 608 q 436 744 431 703 q 441 809 441 785 q 422 895 441 869 q 368 922 404 922 q 302 897 330 922 q 256 831 275 871 q 226 745 237 791 q 210 656 215 699 q 205 584 205 614 q 223 497 205 526 q 279 469 241 469 m 775 -14 q 659 36 700 -14 q 617 184 617 87 q 625 281 617 226 q 649 393 632 336 q 697 499 667 450 q 772 578 727 548 q 880 608 817 608 q 1000 559 959 608 q 1042 420 1042 511 q 1034 326 1042 381 q 1007 212 1025 271 q 958 101 989 153 q 882 18 927 50 q 775 -14 837 -14 m 784 71 q 849 99 822 71 q 896 169 877 126 q 926 258 915 211 q 942 347 937 306 q 947 411 947 388 q 928 497 947 471 q 872 524 909 524 q 808 499 835 524 q 762 434 781 474 q 733 348 744 394 q 717 259 722 302 q 712 187 712 216 q 730 100 712 130 q 784 71 747 71 z "},"&":{"ha":936,"x_min":47,"x_max":895,"o":"m 301 -14 q 118 49 189 -14 q 47 230 47 111 q 79 362 47 306 q 171 465 111 419 q 316 550 231 510 q 266 648 287 595 q 245 758 245 700 q 276 884 245 828 q 367 974 307 941 q 510 1007 426 1007 q 625 983 576 1007 q 700 915 673 959 q 727 810 727 871 q 690 689 727 739 q 591 602 652 640 q 455 526 529 564 l 645 261 q 725 356 691 302 q 782 468 759 411 l 895 468 q 842 361 871 411 q 777 266 812 311 q 702 182 742 222 l 838 0 l 704 0 l 625 113 q 483 22 558 58 q 301 -14 408 -14 m 322 80 q 417 94 374 80 q 497 133 460 109 q 570 187 534 157 l 363 480 q 262 421 309 453 q 187 345 216 389 q 159 237 159 301 q 180 154 159 189 q 238 99 201 118 q 322 80 275 80 m 410 597 q 480 633 444 614 q 548 677 516 652 q 598 732 579 701 q 618 802 618 763 q 588 884 618 852 q 504 915 558 915 q 423 896 457 915 q 371 842 389 877 q 353 758 353 807 q 367 676 353 715 q 410 597 380 637 z "},"'":{"ha":298,"x_min":151,"x_max":326,"o":"m 151 633 l 203 991 l 326 991 l 224 633 l 151 633 z "},"(":{"ha":395,"x_min":54,"x_max":501,"o":"m 153 -220 q 100 -99 122 -163 q 66 36 77 -35 q 54 182 54 106 q 77 418 54 307 q 144 629 100 529 q 252 819 189 728 q 396 991 315 909 l 501 991 q 365 819 427 910 q 257 626 302 727 q 187 414 212 525 q 162 184 162 304 q 171 34 162 104 q 198 -100 180 -37 q 242 -220 216 -163 l 153 -220 z "},")":{"ha":395,"x_min":-105,"x_max":341,"o":"m -105 -220 q 32 -47 -30 -138 q 139 146 94 45 q 209 358 184 248 q 233 589 233 469 q 224 738 233 668 q 198 872 216 808 q 155 991 180 935 l 243 991 q 296 871 275 935 q 330 736 318 807 q 341 589 341 666 q 318 353 341 465 q 252 143 296 242 q 144 -47 208 43 q -1 -220 81 -137 l -105 -220 z "},"*":{"ha":762,"x_min":146,"x_max":778,"o":"m 520 422 l 441 692 l 267 467 l 189 546 l 397 735 l 146 816 l 183 916 l 433 789 l 463 1059 l 574 1037 l 494 777 l 778 793 l 772 687 l 507 713 l 628 456 l 520 422 z "},"+":{"ha":794,"x_min":98,"x_max":749,"o":"m 470 536 l 749 536 l 749 444 l 470 444 l 470 156 l 377 156 l 377 444 l 98 444 l 98 536 l 377 536 l 377 825 l 470 825 l 470 536 z "},",":{"ha":345,"x_min":-60,"x_max":206,"o":"m -60 -179 q -9 -63 -34 -123 q 39 55 16 -3 q 79 161 61 113 l 201 161 l 206 146 q 154 40 184 96 q 92 -73 125 -16 q 26 -179 59 -129 l -60 -179 z "},"-":{"ha":435,"x_min":38,"x_max":388,"o":"m 38 320 l 61 425 l 388 425 l 366 320 l 38 320 z "},".":{"ha":349,"x_min":30,"x_max":193,"o":"m 97 -19 q 47 -1 65 -19 q 30 50 30 17 q 54 125 30 92 q 130 158 78 158 q 176 140 158 158 q 193 89 193 123 q 170 15 193 49 q 97 -19 146 -19 z "},"/":{"ha":487,"x_min":-63,"x_max":605,"o":"m -63 0 l 490 991 l 605 991 l 54 0 l -63 0 z "},":":{"ha":349,"x_min":30,"x_max":307,"o":"m 210 585 q 161 602 179 585 q 143 651 143 620 q 154 706 143 681 q 186 746 164 730 q 242 761 208 761 q 289 744 271 761 q 307 692 307 727 q 283 618 307 651 q 210 585 259 585 m 97 -19 q 47 -1 65 -19 q 30 50 30 17 q 54 125 30 92 q 130 158 78 158 q 176 140 158 158 q 193 89 193 123 q 170 15 193 49 q 97 -19 146 -19 z "},";":{"ha":349,"x_min":-67,"x_max":307,"o":"m -67 -179 q -17 -63 -42 -123 q 31 55 8 -3 q 71 161 54 113 l 194 161 l 199 146 q 147 40 176 96 q 84 -73 117 -16 q 19 -179 52 -129 l -67 -179 m 210 585 q 161 602 178 585 q 143 651 143 620 q 154 706 143 681 q 186 746 164 730 q 242 761 208 761 q 289 744 271 761 q 307 692 307 727 q 283 618 307 651 q 210 585 259 585 z "},"<":{"ha":794,"x_min":98,"x_max":750,"o":"m 750 165 l 98 454 l 98 518 l 750 841 l 750 741 l 220 490 l 750 264 l 750 165 z "},"=":{"ha":794,"x_min":106,"x_max":742,"o":"m 106 582 l 106 673 l 742 673 l 742 582 l 106 582 m 106 304 l 106 396 l 742 396 l 742 304 l 106 304 z "},">":{"ha":794,"x_min":98,"x_max":750,"o":"m 98 264 l 629 489 l 98 741 l 98 841 l 750 518 l 750 454 l 98 165 l 98 264 z "},"?":{"ha":593,"x_min":108,"x_max":626,"o":"m 176 275 q 205 382 186 337 q 257 464 224 427 q 341 541 290 502 q 425 608 386 575 q 488 681 464 641 q 512 774 512 720 q 476 872 512 837 q 375 907 441 907 q 273 891 323 907 q 177 852 223 874 l 136 939 q 258 987 193 968 q 387 1006 324 1006 q 561 950 496 1006 q 626 788 626 895 q 603 673 626 724 q 534 577 579 623 q 426 485 490 532 q 342 418 373 446 q 295 357 311 389 q 267 275 279 326 l 176 275 m 175 -19 q 126 -1 144 -19 q 108 50 108 17 q 132 125 108 92 q 207 158 156 158 q 254 140 236 158 q 271 89 271 123 q 248 15 271 49 q 175 -19 224 -19 z "},"@":{"ha":1176,"x_min":74,"x_max":1139,"o":"m 533 -126 q 346 -95 430 -126 q 200 -4 261 -64 q 107 143 140 56 q 74 341 74 230 q 102 537 74 441 q 186 714 131 632 q 320 858 241 796 q 500 954 399 920 q 722 989 601 989 q 958 932 866 989 q 1095 782 1050 876 q 1139 576 1139 688 q 1125 437 1139 503 q 1085 319 1111 372 q 1022 227 1059 266 q 941 168 985 189 q 845 147 896 147 q 738 184 769 147 q 703 273 707 221 l 697 273 q 618 183 667 219 q 500 147 569 147 q 378 197 424 147 q 332 340 332 247 q 350 465 332 407 q 401 570 368 523 q 478 649 434 616 q 574 700 522 682 q 682 718 626 718 q 791 705 747 718 q 871 678 836 692 l 807 435 q 789 362 795 391 q 783 309 783 334 q 802 248 783 266 q 851 229 821 229 q 916 248 886 229 q 970 300 946 267 q 1010 377 994 334 q 1036 469 1027 420 q 1045 568 1045 517 q 1011 738 1045 661 q 903 859 978 814 q 705 904 829 904 q 525 876 608 904 q 377 797 442 848 q 265 676 311 746 q 195 523 219 606 q 171 346 171 439 q 215 139 171 226 q 342 7 258 53 q 547 -39 427 -39 q 695 -23 621 -39 q 831 18 770 -6 l 831 -66 q 684 -111 761 -96 q 533 -126 608 -126 m 522 229 q 637 289 591 229 q 711 446 684 349 l 758 621 q 720 632 743 627 q 669 637 697 637 q 576 615 620 637 q 500 554 533 593 q 449 462 468 515 q 431 348 431 410 q 455 258 431 286 q 522 229 479 229 z "},"A":{"ha":779,"x_min":-78,"x_max":711,"o":"m -78 0 l 465 991 l 585 991 l 711 0 l 597 0 l 558 316 l 216 316 l 47 0 l -78 0 m 271 418 l 547 418 l 520 650 q 510 760 515 700 q 503 867 505 820 l 499 867 q 450 759 477 816 q 392 645 422 703 l 271 418 z "},"B":{"ha":833,"x_min":58,"x_max":817,"o":"m 58 0 l 268 991 l 524 991 q 682 967 616 991 q 782 894 747 943 q 817 767 817 844 q 789 648 817 699 q 710 563 761 596 q 592 517 660 530 l 592 511 q 707 442 661 492 q 752 309 752 391 q 703 138 752 207 q 567 35 653 69 q 370 0 481 0 l 58 0 m 193 98 l 375 98 q 512 122 455 98 q 601 193 570 146 q 632 309 632 240 q 586 425 632 380 q 435 471 540 471 l 272 471 l 193 98 m 292 566 l 462 566 q 581 586 528 566 q 666 648 634 606 q 698 753 698 690 q 654 857 698 821 q 510 893 610 893 l 362 893 l 292 566 z "},"C":{"ha":817,"x_min":102,"x_max":878,"o":"m 453 -14 q 264 33 342 -14 q 144 164 186 79 q 102 366 102 249 q 123 550 102 458 q 188 724 145 642 q 296 869 231 806 q 446 969 360 932 q 638 1006 532 1006 q 767 992 709 1006 q 878 951 826 979 l 832 855 q 746 890 793 876 q 638 904 699 904 q 488 874 555 904 q 372 791 422 844 q 289 670 322 739 q 240 525 256 602 q 223 369 223 448 q 289 163 223 239 q 473 87 355 87 q 587 99 532 87 q 694 128 642 111 l 694 28 q 586 -2 642 9 q 453 -14 530 -14 z "},"D":{"ha":928,"x_min":58,"x_max":884,"o":"m 58 0 l 268 991 l 499 991 q 782 894 680 991 q 884 595 884 797 q 859 404 884 494 q 787 239 835 313 q 668 112 739 165 q 505 29 597 58 q 298 0 412 0 l 58 0 m 193 99 l 304 99 q 467 124 394 99 q 594 194 539 149 q 687 301 650 239 q 744 438 725 363 q 763 597 763 513 q 687 823 763 753 q 484 893 612 893 l 362 893 l 193 99 z "},"E":{"ha":718,"x_min":58,"x_max":770,"o":"m 58 0 l 268 991 l 770 991 l 749 890 l 361 890 l 292 569 l 656 569 l 636 469 l 272 469 l 193 102 l 582 102 l 560 0 l 58 0 z "},"F":{"ha":664,"x_min":58,"x_max":770,"o":"m 58 0 l 268 991 l 770 991 l 750 890 l 361 890 l 284 525 l 648 525 l 627 423 l 262 423 l 172 0 l 58 0 z "},"G":{"ha":944,"x_min":102,"x_max":922,"o":"m 475 -14 q 200 85 299 -14 q 102 361 102 184 q 127 568 102 471 q 199 746 152 665 q 312 884 246 826 q 460 974 378 943 q 636 1006 542 1006 q 793 990 725 1006 q 922 947 861 975 l 878 847 q 766 887 826 871 q 635 904 705 904 q 472 865 547 904 q 341 754 397 826 q 254 584 286 682 q 223 368 223 486 q 252 223 223 287 q 339 124 281 160 q 486 87 397 87 q 588 96 541 87 q 668 115 635 104 l 734 418 l 530 418 l 552 518 l 870 518 l 766 39 q 632 1 703 16 q 475 -14 561 -14 z "},"H":{"ha":945,"x_min":60,"x_max":949,"o":"m 60 0 l 269 991 l 384 991 l 294 569 l 747 569 l 836 991 l 949 991 l 739 0 l 626 0 l 724 467 l 272 467 l 174 0 l 60 0 z "},"I":{"ha":376,"x_min":58,"x_max":382,"o":"m 58 0 l 269 991 l 382 991 l 171 0 l 58 0 z "},"J":{"ha":373,"x_min":-218,"x_max":385,"o":"m -113 -261 q -174 -256 -145 -261 q -218 -245 -203 -252 l -215 -146 q -168 -156 -193 -152 q -115 -159 -142 -159 q -36 -142 -71 -159 q 24 -87 -1 -124 q 61 9 49 -50 l 270 991 l 385 991 l 174 -3 q 115 -152 154 -95 q 18 -235 75 -209 q -113 -261 -39 -261 z "},"K":{"ha":778,"x_min":58,"x_max":901,"o":"m 58 0 l 268 991 l 382 991 l 278 503 l 363 593 l 762 991 l 901 991 l 465 557 l 704 0 l 578 0 l 378 488 l 256 397 l 172 0 l 58 0 z "},"L":{"ha":666,"x_min":58,"x_max":582,"o":"m 58 0 l 268 991 l 382 991 l 193 103 l 582 103 l 560 0 l 58 0 z "},"M":{"ha":1162,"x_min":57,"x_max":1166,"o":"m 57 0 l 267 991 l 429 991 l 532 169 l 537 169 l 990 991 l 1166 991 l 960 0 l 844 0 l 975 616 q 998 720 987 671 q 1020 809 1010 769 q 1038 878 1029 850 l 1035 878 l 547 0 l 456 0 l 344 878 l 338 878 q 329 807 336 850 q 314 715 323 764 q 296 622 306 667 l 165 0 l 57 0 z "},"N":{"ha":977,"x_min":57,"x_max":982,"o":"m 57 0 l 267 991 l 387 991 l 701 161 l 705 161 q 717 240 709 195 q 734 335 724 286 q 753 429 743 384 l 873 991 l 982 991 l 772 0 l 652 0 l 336 832 l 332 832 q 324 777 329 809 q 312 708 319 745 q 298 632 306 671 q 283 556 291 593 l 165 0 l 57 0 z "},"O":{"ha":1001,"x_min":102,"x_max":956,"o":"m 467 -14 q 266 34 348 -14 q 143 168 184 81 q 102 372 102 255 q 117 536 102 457 q 161 687 132 616 q 234 816 191 758 q 332 918 277 875 q 455 984 388 960 q 602 1007 523 1007 q 862 904 768 1007 q 956 616 956 800 q 943 456 956 534 q 902 307 929 378 q 834 178 875 237 q 739 77 793 119 q 617 10 685 34 q 467 -14 549 -14 m 471 87 q 579 108 530 87 q 669 165 629 128 q 740 251 709 201 q 792 360 771 300 q 824 485 813 419 q 835 619 835 551 q 771 830 835 755 q 593 905 707 905 q 485 886 535 905 q 393 831 435 867 q 320 747 352 795 q 267 638 289 698 q 234 513 245 579 q 223 375 223 446 q 252 221 223 286 q 337 122 281 157 q 471 87 393 87 z "},"P":{"ha":786,"x_min":58,"x_max":786,"o":"m 58 0 l 268 991 l 491 991 q 661 960 596 991 q 756 870 726 928 q 786 734 786 812 q 759 589 786 652 q 677 481 731 525 q 542 414 623 437 q 356 391 462 391 l 255 391 l 172 0 l 58 0 m 276 488 l 374 488 q 532 515 466 488 q 634 595 598 541 q 669 731 669 649 q 621 855 669 817 q 475 893 573 893 l 362 893 l 276 488 z "},"Q":{"ha":1001,"x_min":102,"x_max":956,"o":"m 637 -236 l 488 -12 q 476 -13 481 -13 q 466 -14 471 -14 q 266 34 347 -13 q 143 168 185 81 q 102 372 102 254 q 117 536 102 457 q 161 687 132 616 q 234 816 191 758 q 332 918 277 875 q 455 984 388 960 q 602 1007 523 1007 q 862 904 768 1007 q 956 616 956 800 q 942 453 956 533 q 899 302 927 374 q 827 172 870 231 q 728 70 784 113 q 601 7 671 28 l 785 -236 l 637 -236 m 471 87 q 581 108 531 87 q 671 165 631 128 q 742 251 711 201 q 793 360 772 300 q 824 485 814 419 q 835 619 835 551 q 771 830 835 755 q 593 905 707 905 q 485 886 535 905 q 393 831 435 867 q 320 747 352 795 q 267 638 289 698 q 234 513 245 579 q 223 375 223 446 q 252 221 223 286 q 337 122 281 157 q 471 87 393 87 z "},"R":{"ha":794,"x_min":58,"x_max":789,"o":"m 58 0 l 268 991 l 485 991 q 713 929 637 991 q 789 743 789 866 q 764 610 789 670 q 683 507 739 550 q 538 439 628 463 l 701 0 l 576 0 l 433 414 l 260 414 l 172 0 l 58 0 m 280 511 l 400 511 q 519 527 469 511 q 604 572 570 543 q 654 643 637 602 q 671 735 671 684 q 622 857 671 821 q 473 892 572 892 l 362 892 l 280 511 z "},"S":{"ha":700,"x_min":26,"x_max":720,"o":"m 259 -14 q 130 -3 185 -14 q 26 31 74 8 l 26 144 q 127 104 69 122 q 260 86 184 86 q 350 97 307 86 q 426 131 393 108 q 479 190 460 154 q 498 275 498 226 q 481 346 498 315 q 427 406 464 377 q 329 468 389 435 q 236 532 277 498 q 172 611 195 566 q 148 720 148 656 q 174 843 148 789 q 244 932 199 896 q 348 987 290 968 q 473 1006 407 1006 q 608 990 551 1006 q 720 948 666 975 l 675 850 q 584 887 637 871 q 473 904 531 904 q 393 893 430 904 q 328 859 356 882 q 285 804 300 837 q 269 728 269 771 q 286 654 269 684 q 335 602 302 625 q 414 550 367 578 q 521 480 475 515 q 593 399 567 445 q 618 284 618 353 q 592 154 618 210 q 518 61 566 98 q 404 5 470 24 q 259 -14 338 -14 z "},"T":{"ha":693,"x_min":125,"x_max":816,"o":"m 214 0 l 402 890 l 125 890 l 147 991 l 816 991 l 795 890 l 519 890 l 330 0 l 214 0 z "},"U":{"ha":942,"x_min":111,"x_max":956,"o":"m 416 -14 q 247 18 315 -14 q 145 111 179 50 q 111 260 111 172 q 115 317 111 284 q 127 389 119 351 l 256 991 l 370 991 l 241 382 q 229 317 233 351 q 225 262 225 283 q 275 134 225 180 q 423 87 326 87 q 562 117 507 87 q 652 204 618 146 q 705 349 686 262 l 842 991 l 956 991 l 818 339 q 746 150 795 229 q 616 28 697 71 q 416 -14 536 -14 z "},"V":{"ha":764,"x_min":130,"x_max":889,"o":"m 239 0 l 130 991 l 243 991 l 309 347 q 316 272 313 310 q 321 199 319 235 q 321 131 322 163 l 324 131 q 354 197 338 163 q 388 268 370 231 q 429 347 407 305 l 762 991 l 889 991 l 360 0 l 239 0 z "},"W":{"ha":1184,"x_min":151,"x_max":1301,"o":"m 194 0 l 151 991 l 264 991 l 286 371 q 286 257 288 315 q 281 144 284 198 l 285 144 q 331 263 304 197 q 386 389 357 329 l 668 991 l 784 991 l 814 391 q 820 261 819 329 q 821 143 821 193 l 825 143 q 850 216 837 178 q 879 294 864 254 q 911 374 894 334 l 1180 991 l 1301 991 l 852 0 l 735 0 l 703 657 q 699 720 701 687 q 697 784 698 752 q 697 844 697 816 l 693 844 q 663 762 680 803 q 616 656 645 720 l 311 0 l 194 0 z "},"X":{"ha":726,"x_min":-73,"x_max":839,"o":"m -73 0 l 334 524 l 156 991 l 272 991 l 410 605 l 713 991 l 839 991 l 462 519 l 652 0 l 531 0 l 384 435 l 53 0 l -73 0 z "},"Y":{"ha":703,"x_min":128,"x_max":831,"o":"m 212 0 l 292 373 l 128 991 l 243 991 l 367 486 l 702 991 l 831 991 l 404 370 l 328 0 l 212 0 z "},"Z":{"ha":739,"x_min":-14,"x_max":795,"o":"m -14 0 l 4 89 l 636 888 l 189 888 l 211 991 l 795 991 l 779 901 l 148 103 l 623 103 l 602 0 l -14 0 z "},"[":{"ha":405,"x_min":-12,"x_max":514,"o":"m -12 -220 l 245 991 l 514 991 l 493 899 l 332 899 l 115 -126 l 277 -126 l 256 -220 l -12 -220 z "},"\\":{"ha":487,"x_min":149,"x_max":401,"o":"m 299 0 l 149 991 l 251 991 l 401 0 l 299 0 z "},"]":{"ha":405,"x_min":-100,"x_max":425,"o":"m -100 -220 l -81 -126 l 81 -126 l 298 899 l 136 899 l 157 991 l 425 991 l 167 -220 l -100 -220 z "},"^":{"ha":791,"x_min":55,"x_max":737,"o":"m 55 372 l 364 999 l 429 999 l 737 372 l 637 372 l 397 878 l 156 372 l 55 372 z "},"_":{"ha":545,"x_min":-126,"x_max":440,"o":"m -126 -216 l -107 -127 l 440 -127 l 421 -216 l -126 -216 z "},"`":{"ha":378,"x_min":203,"x_max":423,"o":"m 353 842 q 298 906 328 868 q 242 983 268 944 q 203 1050 217 1021 l 203 1064 l 323 1064 q 351 994 334 1030 q 386 924 367 958 q 423 859 405 889 l 423 842 l 353 842 z "},"a":{"ha":785,"x_min":67,"x_max":758,"o":"m 269 -14 q 163 16 208 -14 q 92 102 117 45 q 67 241 67 159 q 84 399 67 323 q 134 540 102 475 q 211 654 165 605 q 312 730 256 703 q 433 757 368 757 q 520 738 484 757 q 582 688 557 719 q 621 623 607 657 l 628 623 l 671 743 l 758 743 l 600 0 l 510 0 l 530 144 l 525 144 q 455 67 494 103 q 369 9 416 31 q 269 -14 322 -14 m 305 80 q 409 118 357 80 q 501 222 460 157 q 564 370 542 288 q 578 443 574 410 q 582 506 582 477 q 545 619 582 576 q 444 662 508 662 q 359 639 399 662 q 287 576 319 616 q 231 483 254 536 q 196 367 208 429 q 183 239 183 304 q 215 120 183 161 q 305 80 247 80 z "},"b":{"ha":802,"x_min":39,"x_max":733,"o":"m 369 -14 q 278 5 317 -14 q 215 54 240 24 q 176 120 190 85 l 170 120 l 125 0 l 39 0 l 263 1055 l 376 1055 l 321 800 q 301 710 312 755 q 282 635 290 666 q 271 599 273 604 l 276 599 q 346 676 309 640 q 429 733 384 711 q 528 755 474 755 q 636 727 590 755 q 708 642 682 698 q 733 502 733 585 q 717 346 733 422 q 671 205 701 271 q 596 91 640 140 q 495 14 552 42 q 369 -14 437 -14 m 361 80 q 448 104 408 80 q 519 169 488 127 q 573 264 551 210 q 606 379 595 318 q 618 503 618 440 q 586 622 618 582 q 492 662 555 662 q 426 646 460 662 q 361 601 393 630 q 303 532 330 572 q 257 446 277 493 q 225 345 237 398 q 214 237 214 292 q 250 123 214 166 q 361 80 286 80 z "},"c":{"ha":629,"x_min":68,"x_max":640,"o":"m 343 -14 q 198 18 260 -14 q 102 111 136 50 q 68 264 68 173 q 85 417 68 344 q 136 552 102 490 q 216 660 169 614 q 325 731 264 706 q 457 757 385 757 q 553 748 505 757 q 640 722 601 739 l 608 627 q 541 651 579 640 q 458 662 502 662 q 346 631 396 662 q 259 544 295 600 q 203 418 222 489 q 183 266 183 347 q 203 166 183 208 q 262 102 224 125 q 354 80 300 80 q 447 94 404 80 q 533 126 491 107 l 533 30 q 448 -1 496 11 q 343 -14 400 -14 z "},"d":{"ha":802,"x_min":67,"x_max":827,"o":"m 269 -14 q 163 15 208 -14 q 92 100 117 43 q 67 241 67 157 q 83 396 67 321 q 131 537 100 472 q 206 651 161 602 q 308 728 251 701 q 434 755 366 755 q 524 736 486 755 q 586 687 561 718 q 625 623 610 657 l 631 623 q 640 683 635 654 q 649 743 644 713 q 663 806 655 774 l 715 1055 l 827 1055 l 603 0 l 510 0 l 528 144 l 524 144 q 453 66 491 102 q 369 8 414 30 q 269 -14 323 -14 m 307 80 q 372 96 339 80 q 436 140 405 111 q 494 208 467 169 q 542 295 522 248 q 574 395 563 342 q 586 505 586 448 q 551 619 586 576 q 441 662 517 662 q 354 638 394 662 q 283 573 315 614 q 229 478 251 532 q 195 362 207 424 q 183 239 183 301 q 214 120 183 161 q 307 80 245 80 z "},"e":{"ha":692,"x_min":68,"x_max":650,"o":"m 337 -14 q 193 20 254 -14 q 101 116 133 54 q 68 267 68 179 q 95 444 68 357 q 170 602 121 531 q 287 715 218 673 q 441 757 356 757 q 597 711 544 757 q 650 585 650 665 q 624 481 650 529 q 544 399 597 434 q 407 345 490 364 q 212 326 325 326 l 186 326 q 184 298 185 313 q 183 271 183 283 q 227 131 183 181 q 357 80 270 80 q 458 95 410 80 q 558 136 506 111 l 558 39 q 457 1 508 16 q 337 -14 406 -14 m 203 418 l 219 418 q 378 433 306 418 q 495 483 451 448 q 539 576 539 518 q 513 639 539 614 q 435 663 488 663 q 342 634 388 663 q 260 551 297 606 q 203 418 223 496 z "},"f":{"ha":433,"x_min":-158,"x_max":610,"o":"m -70 -334 q -119 -330 -96 -334 q -158 -319 -141 -326 l -158 -224 q -121 -235 -140 -231 q -80 -239 -102 -239 q -2 -199 -30 -239 q 43 -83 26 -159 l 199 657 l 69 657 l 79 705 l 216 747 l 233 819 q 270 935 248 888 q 322 1010 292 982 q 392 1050 352 1038 q 483 1063 431 1063 q 552 1055 517 1063 q 610 1037 588 1047 l 581 951 q 538 964 561 958 q 488 970 515 970 q 397 938 430 970 q 345 818 364 905 l 328 743 l 488 743 l 472 657 l 311 657 l 153 -96 q 109 -224 136 -171 q 37 -306 81 -277 q -70 -334 -6 -334 z "},"g":{"ha":721,"x_min":-64,"x_max":764,"o":"m 215 -334 q 10 -284 84 -334 q -64 -144 -64 -234 q -15 -18 -64 -71 q 143 71 35 35 q 104 105 117 85 q 91 153 91 126 q 125 233 91 199 q 220 295 159 267 q 150 361 176 317 q 123 460 123 404 q 146 583 124 528 q 210 678 169 639 q 299 735 248 715 q 410 755 350 755 q 462 752 436 755 q 513 742 488 749 l 764 742 l 747 673 l 600 659 q 624 609 616 637 q 631 546 631 581 q 608 426 631 479 q 545 335 586 372 q 456 284 507 302 q 342 265 405 266 q 309 267 323 265 q 285 271 295 268 q 212 229 235 253 q 188 179 188 205 q 199 149 188 160 q 230 133 210 138 q 277 125 249 128 l 357 116 q 490 84 439 106 q 566 22 542 61 q 591 -73 591 -16 q 557 -198 591 -145 q 462 -283 524 -250 q 352 -321 414 -308 q 215 -334 290 -334 m 220 -252 q 330 -241 281 -252 q 412 -210 378 -230 q 468 -155 449 -187 q 488 -82 488 -123 q 482 -49 488 -64 q 464 -22 476 -34 q 410 7 445 -4 q 320 24 374 19 l 212 35 q 116 -2 155 22 q 58 -59 78 -26 q 39 -134 39 -92 q 85 -220 39 -189 q 220 -252 131 -252 m 347 340 q 445 369 405 340 q 507 448 486 399 q 529 555 529 497 q 521 607 529 585 q 498 645 513 630 q 460 669 483 661 q 408 677 437 677 q 332 660 366 677 q 274 614 298 644 q 238 547 251 585 q 226 464 226 508 q 233 413 226 435 q 255 375 241 391 q 347 340 286 340 z "},"h":{"ha":800,"x_min":39,"x_max":722,"o":"m 39 0 l 263 1055 l 376 1055 l 316 781 q 303 721 311 752 q 287 660 295 690 q 271 599 279 629 l 277 599 q 340 671 304 635 q 425 731 376 707 q 534 755 473 755 q 634 734 593 755 q 699 672 676 713 q 722 567 722 630 q 718 513 722 541 q 707 456 713 486 l 610 0 l 496 0 l 595 468 q 605 520 602 498 q 608 558 608 542 q 583 635 608 608 q 504 662 558 662 q 397 628 453 662 q 294 520 341 593 q 222 328 247 446 l 153 0 l 39 0 z "},"i":{"ha":351,"x_min":39,"x_max":367,"o":"m 39 0 l 197 743 l 311 743 l 153 0 l 39 0 m 292 873 q 247 889 265 873 q 229 935 229 905 q 238 977 229 957 q 265 1008 248 996 q 307 1020 282 1020 q 352 1004 337 1020 q 367 961 367 989 q 344 897 367 921 q 292 873 321 873 z "},"j":{"ha":351,"x_min":-178,"x_max":366,"o":"m -92 -334 q -140 -330 -117 -334 q -178 -319 -162 -326 l -178 -224 q -140 -235 -161 -231 q -97 -239 -119 -239 q -45 -224 -68 -239 q -7 -178 -23 -209 q 19 -102 9 -148 l 197 743 l 309 743 l 127 -113 q 87 -231 113 -181 q 18 -307 61 -280 q -92 -334 -26 -334 m 291 873 q 247 889 264 873 q 229 935 229 905 q 238 977 229 957 q 265 1008 248 996 q 307 1020 282 1020 q 352 1004 337 1020 q 366 961 366 989 q 343 897 366 921 q 291 873 319 873 z "},"k":{"ha":679,"x_min":38,"x_max":722,"o":"m 38 0 l 262 1055 l 376 1055 l 283 625 q 256 504 269 554 q 233 422 243 454 q 219 374 224 391 l 222 374 l 588 743 l 722 743 l 400 424 l 600 0 l 475 0 l 315 353 l 207 266 l 153 0 l 38 0 z "},"l":{"ha":351,"x_min":38,"x_max":376,"o":"m 38 0 l 263 1055 l 376 1055 l 151 0 l 38 0 z "},"m":{"ha":1211,"x_min":39,"x_max":1132,"o":"m 39 0 l 197 743 l 290 743 l 272 600 l 279 600 q 338 671 303 635 q 418 732 372 707 q 522 757 464 757 q 642 711 601 757 q 689 587 682 666 l 694 587 q 759 668 721 629 q 845 732 797 707 q 952 757 894 757 q 1085 710 1038 757 q 1132 574 1132 663 q 1128 514 1132 543 q 1117 456 1124 486 l 1021 0 l 907 0 l 1007 468 q 1016 521 1013 498 q 1019 564 1019 543 q 995 635 1019 609 q 920 662 970 662 q 845 642 884 662 q 770 583 806 623 q 705 483 734 543 q 658 341 675 422 l 585 0 l 473 0 l 572 466 q 581 520 578 497 q 584 559 584 543 q 562 634 584 607 q 488 662 539 662 q 413 643 452 662 q 338 583 374 624 q 271 479 301 543 q 222 328 240 416 l 153 0 l 39 0 z "},"n":{"ha":800,"x_min":35,"x_max":726,"o":"m 35 0 l 194 747 l 294 747 l 276 604 l 277 604 q 339 675 303 639 q 424 736 376 711 q 534 761 473 761 q 637 739 594 761 q 703 675 680 717 q 726 574 726 633 q 721 511 726 543 q 711 454 716 479 l 612 0 l 492 0 l 592 469 q 602 522 598 500 q 606 562 606 543 q 580 634 606 610 q 504 659 554 659 q 399 625 454 659 q 298 518 345 591 q 225 328 251 445 l 155 0 l 35 0 z "},"o":{"ha":782,"x_min":68,"x_max":716,"o":"m 342 -11 q 195 24 257 -11 q 101 123 134 59 q 68 275 68 187 q 83 414 68 345 q 130 544 99 483 q 205 653 160 606 q 309 727 250 700 q 441 753 368 753 q 589 719 528 753 q 683 619 650 684 q 716 467 716 555 q 701 329 716 397 q 655 199 686 260 q 580 91 625 138 q 476 16 535 43 q 342 -11 416 -11 m 349 83 q 429 100 391 83 q 498 152 467 118 q 552 234 530 185 q 588 344 575 282 q 600 479 600 406 q 585 565 600 524 q 534 633 569 606 q 442 660 500 660 q 354 640 395 660 q 282 585 314 621 q 228 500 250 549 q 194 393 206 451 q 182 270 182 334 q 226 132 182 181 q 349 83 269 83 z "},"p":{"ha":802,"x_min":-30,"x_max":733,"o":"m -30 -332 l 197 743 l 290 743 l 271 599 l 276 599 q 346 676 308 641 q 430 734 385 712 q 530 755 476 755 q 637 727 591 755 q 708 641 682 698 q 733 500 733 585 q 717 345 733 420 q 671 204 701 269 q 596 91 640 140 q 494 14 551 41 q 369 -14 437 -14 q 279 5 317 -14 q 216 54 241 24 q 176 120 191 85 l 170 120 q 161 55 167 95 q 149 -13 155 14 l 81 -332 l -30 -332 m 361 80 q 448 104 408 80 q 519 169 488 127 q 573 264 551 210 q 606 379 595 318 q 618 503 618 440 q 586 622 618 582 q 492 662 555 662 q 427 646 460 662 q 362 601 393 630 q 304 533 331 572 q 257 446 277 494 q 225 346 237 399 q 214 237 214 293 q 250 123 214 166 q 361 80 286 80 z "},"q":{"ha":802,"x_min":67,"x_max":761,"o":"m 420 -332 l 488 -18 q 499 30 492 1 q 515 90 507 59 q 529 144 523 120 l 524 144 q 454 67 492 103 q 370 8 416 31 q 271 -14 325 -14 q 163 15 209 -14 q 92 101 117 44 q 67 241 67 157 q 83 396 67 320 q 131 537 100 471 q 207 652 161 602 q 309 729 252 701 q 435 757 366 757 q 524 738 487 757 q 586 688 561 719 q 625 623 611 658 l 631 623 l 676 743 l 761 743 l 532 -332 l 420 -332 m 307 80 q 373 96 340 80 q 437 141 406 112 q 495 211 468 171 q 542 298 522 250 q 574 398 562 345 q 585 505 585 450 q 551 616 585 571 q 442 662 516 662 q 355 638 395 662 q 283 573 315 614 q 229 478 252 532 q 195 362 207 424 q 183 239 183 301 q 214 120 183 161 q 307 80 245 80 z "},"r":{"ha":549,"x_min":39,"x_max":591,"o":"m 39 0 l 197 743 l 290 743 l 272 600 l 279 600 q 340 674 307 638 q 414 734 372 711 q 510 757 456 757 q 551 754 530 757 q 591 747 572 752 l 566 646 q 531 652 548 650 q 495 654 513 654 q 399 627 444 654 q 320 555 355 600 q 261 456 286 511 q 225 344 237 401 l 153 0 l 39 0 z "},"s":{"ha":599,"x_min":8,"x_max":570,"o":"m 216 -14 q 97 0 149 -14 q 8 34 46 14 l 8 138 q 99 98 44 117 q 213 79 155 79 q 309 94 271 79 q 367 137 347 110 q 386 201 386 165 q 373 252 386 231 q 333 294 361 273 q 258 340 304 314 q 170 399 205 370 q 115 465 134 429 q 96 548 96 500 q 127 659 96 612 q 215 731 159 705 q 348 757 272 757 q 472 742 415 757 q 570 707 529 726 l 534 616 q 453 648 498 633 q 348 662 408 662 q 247 633 284 662 q 209 554 209 604 q 220 508 209 528 q 259 468 231 488 q 335 421 287 448 q 419 366 382 394 q 479 301 457 338 q 501 212 501 265 q 467 89 501 140 q 368 13 432 39 q 216 -14 304 -14 z "},"t":{"ha":458,"x_min":63,"x_max":500,"o":"m 251 -14 q 128 22 177 -14 q 79 144 79 58 q 81 190 79 165 q 90 241 84 215 l 178 657 l 63 657 l 74 709 l 197 757 l 279 914 l 346 914 l 309 743 l 500 743 l 482 657 l 292 657 l 203 240 q 195 199 199 221 q 191 158 191 178 q 209 101 191 124 q 268 79 227 79 q 317 83 294 79 q 367 97 340 88 l 367 10 q 316 -6 350 2 q 251 -14 281 -14 z "},"u":{"ha":800,"x_min":77,"x_max":758,"o":"m 262 -14 q 164 7 206 -14 q 99 70 122 28 q 77 170 77 111 q 81 228 77 200 q 91 287 85 256 l 189 743 l 303 743 l 202 274 q 194 222 197 245 q 191 182 191 199 q 215 107 191 134 q 294 80 240 80 q 401 115 345 80 q 505 223 457 149 q 578 416 553 298 l 647 743 l 758 743 l 601 0 l 508 0 l 526 144 l 520 144 q 458 72 494 109 q 373 11 421 36 q 262 -14 325 -14 z "},"v":{"ha":640,"x_min":66,"x_max":707,"o":"m 156 0 l 66 743 l 180 743 l 226 315 q 233 234 230 279 q 239 149 237 189 q 241 88 241 109 l 245 88 q 280 164 260 121 q 321 248 300 206 q 357 319 341 290 l 586 743 l 707 743 l 302 0 l 156 0 z "},"w":{"ha":994,"x_min":79,"x_max":1045,"o":"m 111 0 l 79 743 l 189 743 l 202 333 q 202 200 204 259 q 198 102 201 141 l 203 102 q 229 168 214 130 q 261 243 244 205 q 292 312 277 281 l 496 743 l 616 743 l 644 332 q 646 217 645 281 q 646 102 648 153 l 651 102 q 678 177 663 136 q 713 266 694 219 q 753 361 732 313 l 926 743 l 1045 743 l 700 0 l 566 0 l 541 418 q 538 486 538 453 q 538 555 538 519 q 538 631 538 590 l 533 631 q 509 569 521 598 q 483 507 497 540 q 447 430 468 475 l 243 0 l 111 0 z "},"x":{"ha":667,"x_min":-51,"x_max":702,"o":"m -51 0 l 273 382 l 111 743 l 225 743 l 345 463 l 571 743 l 702 743 l 391 378 l 564 0 l 448 0 l 318 296 l 80 0 l -51 0 z "},"y":{"ha":640,"x_min":-134,"x_max":707,"o":"m -39 -334 q -93 -330 -73 -334 q -134 -320 -114 -326 l -134 -229 q -93 -237 -115 -233 q -45 -241 -71 -241 q 50 -205 10 -241 q 128 -102 90 -170 l 180 -9 l 66 743 l 180 743 l 232 361 q 243 266 239 317 q 249 169 247 214 q 251 94 251 123 l 255 94 q 283 159 264 117 q 324 248 302 201 q 363 325 346 294 l 586 743 l 707 743 l 231 -129 q 156 -242 194 -197 q 71 -311 117 -288 q -39 -334 24 -334 z "},"z":{"ha":616,"x_min":-21,"x_max":609,"o":"m -21 0 l -5 77 l 468 658 l 140 658 l 158 743 l 609 743 l 591 653 l 125 85 l 488 85 l 471 0 l -21 0 z "},"{":{"ha":483,"x_min":18,"x_max":553,"o":"m 298 -220 q 150 -183 201 -220 q 99 -68 99 -146 q 103 -24 99 -47 q 113 23 107 -2 l 148 178 q 155 218 152 200 q 157 252 157 236 q 122 325 157 300 q 18 349 87 349 l 39 442 q 168 472 120 442 q 231 575 216 503 l 277 795 q 322 910 292 867 q 403 972 353 954 q 530 991 454 991 l 553 991 l 533 898 q 433 875 469 898 q 380 785 396 852 l 332 566 q 278 449 317 495 q 160 389 239 403 l 160 387 q 236 336 212 373 q 260 247 260 300 q 257 206 260 229 q 249 161 254 183 l 216 10 q 209 -23 212 -7 q 206 -54 206 -40 q 235 -111 206 -97 q 316 -125 264 -125 l 316 -220 l 298 -220 z "},"|":{"ha":763,"x_min":364,"x_max":457,"o":"m 364 -335 l 364 1055 l 457 1055 l 457 -335 l 364 -335 z "},"}":{"ha":483,"x_min":-54,"x_max":473,"o":"m -54 -220 l -53 -125 q 26 -116 -7 -125 q 81 -82 60 -106 q 111 -12 102 -58 l 160 206 q 215 322 176 277 q 332 381 254 368 l 332 385 q 256 435 280 399 q 233 524 233 471 q 236 565 233 542 q 244 609 239 587 l 278 762 q 286 795 283 779 q 288 825 288 812 q 256 883 288 868 q 164 898 223 898 l 182 991 l 191 991 q 302 976 258 991 q 370 926 347 960 q 393 840 393 893 q 389 797 393 819 q 379 749 385 774 l 344 593 q 336 554 340 572 q 333 520 333 536 q 369 448 333 471 q 473 424 405 424 l 452 330 q 360 317 399 330 q 296 275 321 304 q 262 197 272 245 l 216 -24 q 168 -143 199 -100 q 84 -203 136 -186 q -43 -220 33 -220 l -54 -220 z "},"~":{"ha":794,"x_min":98,"x_max":750,"o":"m 404 446 q 322 476 355 468 q 257 485 289 485 q 175 462 218 485 q 98 404 132 439 l 98 505 q 173 559 132 541 q 264 577 215 577 q 346 568 307 577 q 446 533 386 559 q 528 503 495 512 q 591 494 560 494 q 673 517 631 494 q 750 576 716 541 l 750 476 q 676 421 718 441 q 585 402 635 402 q 504 411 544 402 q 404 446 464 420 z "}," ":{"ha":361,"x_min":0,"x_max":0,"o":""},"¡":{"ha":355,"x_min":-13,"x_max":331,"o":"m -13 -253 l 170 463 l 246 463 l 123 -253 l -13 -253 m 236 581 q 186 598 203 581 q 168 648 168 615 q 192 724 168 691 q 267 757 216 757 q 314 739 296 757 q 331 687 331 721 q 321 637 331 662 q 290 596 311 612 q 236 581 269 581 z "},"¢":{"ha":765,"x_min":149,"x_max":722,"o":"m 309 -14 l 338 132 q 200 221 252 153 q 149 400 149 290 q 164 544 149 475 q 209 672 180 613 q 280 778 238 732 q 376 853 323 823 q 493 891 429 882 l 515 1006 l 597 1006 l 572 891 q 651 880 613 888 q 722 858 690 871 l 690 764 q 622 788 661 777 q 540 798 584 798 q 428 767 478 798 q 340 681 377 736 q 284 554 304 626 q 264 401 264 482 q 310 266 264 315 q 435 216 355 216 q 528 229 484 216 q 613 262 572 241 l 613 165 q 527 134 574 146 q 420 121 479 123 l 391 -14 l 309 -14 z "},"£":{"ha":765,"x_min":-15,"x_max":800,"o":"m -15 0 l 3 96 q 81 127 45 104 q 143 191 117 151 q 182 293 169 231 l 214 441 l 78 441 l 96 527 l 232 527 l 281 758 q 342 901 300 847 q 443 980 384 956 q 574 1004 503 1004 q 702 987 645 1004 q 800 947 759 970 l 755 858 q 676 893 722 876 q 572 910 629 910 q 460 875 510 910 q 390 742 410 840 l 344 527 l 593 527 l 574 441 l 326 441 l 293 294 q 240 166 276 208 q 161 103 205 125 l 654 103 l 632 0 l -15 0 z "},"¤":{"ha":768,"x_min":111,"x_max":709,"o":"m 648 191 l 559 280 q 490 244 528 257 q 410 232 452 232 q 329 245 368 232 q 259 281 290 258 l 171 193 l 112 253 l 200 342 q 164 410 177 373 q 151 490 151 448 q 164 569 151 531 q 200 640 177 607 l 111 729 l 171 791 l 259 701 q 330 737 292 724 q 410 750 368 750 q 489 737 452 750 q 559 701 527 724 l 648 791 l 709 730 l 620 641 q 655 571 642 609 q 669 490 669 532 q 655 410 669 448 q 620 340 642 372 l 709 252 l 648 191 m 410 318 q 498 341 458 318 q 562 403 538 364 q 585 490 585 442 q 562 579 585 539 q 498 642 538 618 q 410 665 458 665 q 323 642 362 665 q 260 579 283 618 q 237 490 237 539 q 260 403 237 442 q 323 341 283 364 q 410 318 362 318 z "},"¥":{"ha":765,"x_min":85,"x_max":855,"o":"m 245 0 l 285 183 l 85 183 l 104 269 l 302 269 l 326 382 l 126 382 l 146 469 l 304 469 l 161 991 l 271 991 l 396 491 l 731 991 l 855 991 l 489 469 l 650 469 l 632 382 l 430 382 l 407 269 l 609 269 l 591 183 l 391 183 l 350 0 l 245 0 z "},"¦":{"ha":763,"x_min":364,"x_max":457,"o":"m 364 529 l 364 1055 l 457 1055 l 457 529 l 364 529 m 364 -335 l 364 193 l 457 193 l 457 -335 l 364 -335 z "},"§":{"ha":677,"x_min":37,"x_max":677,"o":"m 241 -6 q 120 7 172 -6 q 37 37 69 20 l 37 134 q 129 97 74 115 q 241 80 184 80 q 379 112 331 80 q 428 201 428 143 q 414 243 428 224 q 369 281 399 262 q 290 322 339 300 q 201 371 239 345 q 141 435 163 398 q 119 524 119 471 q 142 616 119 577 q 203 683 165 656 q 282 729 240 711 q 223 784 247 751 q 199 867 199 818 q 231 967 199 923 q 320 1037 262 1011 q 460 1062 378 1062 q 580 1049 525 1062 q 677 1015 635 1036 l 643 934 q 552 964 597 952 q 460 975 507 975 q 389 965 424 975 q 330 932 353 955 q 307 871 307 909 q 339 808 307 833 q 443 751 370 784 q 530 704 492 730 q 591 643 569 678 q 614 557 614 608 q 593 469 614 509 q 537 396 572 428 q 458 340 502 363 q 512 289 490 319 q 534 212 534 259 q 501 98 534 147 q 402 21 468 49 q 241 -6 337 -6 m 392 380 q 474 446 438 404 q 511 542 511 488 q 495 595 511 572 q 444 640 479 618 q 351 685 408 661 q 291 656 321 676 q 240 606 260 636 q 220 536 220 576 q 237 478 220 503 q 291 431 253 453 q 392 380 328 408 z "},"¨":{"ha":773,"x_min":313,"x_max":684,"o":"m 616 879 q 577 893 593 879 q 562 934 562 907 q 579 987 562 964 q 632 1010 597 1010 q 671 996 659 1010 q 684 958 684 982 q 663 900 684 922 q 616 879 642 879 m 368 879 q 328 893 343 879 q 313 934 313 907 q 330 987 313 964 q 382 1010 348 1010 q 412 1004 400 1010 q 429 986 423 998 q 435 958 435 974 q 414 900 435 922 q 368 879 394 879 z "},"©":{"ha":1156,"x_min":68,"x_max":1088,"o":"m 578 -14 q 374 24 467 -14 q 212 131 281 62 q 105 293 143 199 q 68 496 68 386 q 106 700 68 606 q 213 861 144 793 q 375 968 281 930 q 578 1006 468 1006 q 777 967 684 1006 q 939 860 869 929 q 1048 699 1009 791 q 1088 496 1088 606 q 1050 293 1088 386 q 943 131 1012 199 q 781 24 874 62 q 578 -14 688 -14 m 600 186 q 393 270 463 186 q 324 496 324 355 q 357 655 324 586 q 453 765 390 725 q 605 804 515 804 q 694 793 650 804 q 777 763 738 783 l 739 684 q 671 711 705 702 q 606 720 638 720 q 473 660 520 720 q 425 496 425 600 q 468 329 425 387 q 604 271 511 271 q 677 279 638 271 q 751 302 716 288 l 751 220 q 683 195 718 205 q 600 186 648 186 m 578 56 q 747 88 668 56 q 886 180 826 121 q 979 320 945 239 q 1013 496 1013 400 q 981 666 1013 587 q 890 806 949 745 q 752 902 832 867 q 578 936 673 936 q 403 903 483 936 q 265 811 323 871 q 174 672 206 752 q 142 496 142 591 q 174 325 142 405 q 264 185 205 245 q 402 90 323 124 q 578 56 482 56 z "},"ª":{"ha":468,"x_min":115,"x_max":532,"o":"m 238 534 q 176 551 204 534 q 132 604 148 569 q 115 689 115 639 q 130 804 115 748 q 174 905 145 861 q 243 977 202 950 q 338 1003 285 1003 q 407 982 382 1003 q 443 931 432 961 l 448 931 l 473 994 l 532 994 l 437 543 l 375 543 l 386 623 l 382 623 q 321 559 355 585 q 238 534 288 534 m 262 604 q 317 620 292 604 q 361 662 342 635 q 393 720 380 688 q 412 784 406 751 q 418 844 418 816 q 399 910 418 885 q 340 935 380 935 q 280 914 307 935 q 233 860 253 894 q 203 784 214 826 q 193 697 193 741 q 211 627 193 650 q 262 604 229 604 z "},"«":{"ha":646,"x_min":55,"x_max":635,"o":"m 210 80 l 55 376 l 56 395 l 321 654 l 376 599 l 172 374 l 288 114 l 210 80 m 469 80 l 323 352 l 323 371 l 575 648 l 635 599 l 439 352 l 547 114 l 469 80 z "},"¬":{"ha":794,"x_min":98,"x_max":747,"o":"m 747 536 l 747 178 l 656 178 l 656 444 l 98 444 l 98 536 l 747 536 z "},"­":{"ha":433,"x_min":38,"x_max":388,"o":"m 38 320 l 61 425 l 388 425 l 366 320 l 38 320 z "},"®":{"ha":1156,"x_min":68,"x_max":1088,"o":"m 390 193 l 390 798 l 567 798 q 730 754 677 798 q 783 620 783 709 q 750 516 783 554 q 673 460 716 477 l 833 193 l 722 193 l 582 434 l 488 434 l 488 193 l 390 193 m 488 514 l 564 514 q 652 542 620 514 q 684 617 684 570 q 654 692 684 669 q 562 715 625 715 l 488 715 l 488 514 m 578 -14 q 374 24 467 -14 q 212 131 281 62 q 105 293 143 199 q 68 496 68 386 q 106 700 68 606 q 213 861 144 793 q 375 968 281 930 q 578 1006 468 1006 q 777 967 684 1006 q 939 860 869 929 q 1048 699 1009 791 q 1088 496 1088 606 q 1050 293 1088 386 q 943 131 1012 199 q 781 24 874 62 q 578 -14 688 -14 m 578 56 q 747 88 668 56 q 886 180 826 121 q 979 320 945 239 q 1013 496 1013 400 q 981 666 1013 587 q 890 806 949 745 q 752 902 832 867 q 578 936 673 936 q 403 903 483 936 q 265 811 323 871 q 174 672 206 752 q 142 496 142 591 q 174 325 142 405 q 264 185 205 245 q 402 90 323 124 q 578 56 482 56 z "},"¯":{"ha":559,"x_min":140,"x_max":709,"o":"m 140 1055 l 161 1143 l 709 1143 l 688 1055 l 140 1055 z "},"°":{"ha":595,"x_min":79,"x_max":515,"o":"m 297 583 q 183 609 232 583 q 107 683 134 635 q 79 793 79 731 q 106 904 79 857 q 182 979 133 952 q 297 1006 231 1006 q 411 979 361 1006 q 488 904 460 952 q 515 793 515 857 q 488 683 515 731 q 411 609 460 635 q 297 583 361 583 m 298 660 q 398 697 365 660 q 431 793 431 734 q 397 893 431 856 q 298 930 363 930 q 197 893 230 930 q 163 793 163 856 q 196 697 163 734 q 298 660 229 660 z "},"±":{"ha":794,"x_min":98,"x_max":751,"o":"m 98 0 l 98 92 l 751 92 l 751 0 l 98 0 m 470 539 l 749 539 l 749 447 l 470 447 l 470 159 l 377 159 l 377 447 l 98 447 l 98 539 l 377 539 l 377 828 l 470 828 l 470 539 z "},"²":{"ha":484,"x_min":95,"x_max":549,"o":"m 95 578 l 111 649 l 292 804 q 386 890 349 852 q 441 960 423 927 q 459 1031 459 994 q 438 1088 459 1066 q 376 1109 416 1109 q 308 1096 341 1109 q 241 1055 275 1082 l 201 1116 q 291 1167 244 1150 q 392 1185 338 1185 q 513 1141 477 1185 q 549 1044 549 1097 q 532 958 549 998 q 476 876 515 918 q 373 780 437 833 l 226 657 l 496 657 l 480 578 l 95 578 z "},"³":{"ha":484,"x_min":109,"x_max":547,"o":"m 269 569 q 182 579 223 569 q 109 606 141 589 l 109 690 q 188 656 146 670 q 271 643 230 643 q 379 674 343 643 q 415 760 415 705 q 385 828 415 805 q 295 851 354 851 l 231 851 l 247 923 l 311 923 q 387 936 354 923 q 439 972 420 948 q 458 1029 458 996 q 434 1090 458 1069 q 367 1110 411 1112 q 297 1097 329 1109 q 234 1064 264 1085 l 198 1126 q 278 1168 231 1152 q 382 1185 325 1185 q 474 1167 437 1185 q 529 1118 511 1149 q 547 1046 547 1087 q 509 945 547 983 q 406 889 471 907 l 406 884 q 479 839 453 873 q 505 758 505 804 q 479 661 505 703 q 400 593 453 618 q 269 569 348 569 z "},"´":{"ha":359,"x_min":160,"x_max":448,"o":"m 160 842 l 160 859 q 214 922 185 886 q 272 995 243 958 q 319 1064 300 1033 l 448 1064 l 448 1050 q 407 1004 433 1031 q 351 946 382 977 q 289 889 320 916 q 231 842 258 861 l 160 842 z "},"μ":{"ha":809,"x_min":-30,"x_max":768,"o":"m -30 -332 l 197 743 l 310 743 l 212 275 q 202 221 205 243 q 199 183 199 199 q 224 108 199 136 q 302 80 249 80 q 407 114 352 80 q 511 221 463 147 q 585 415 559 294 l 657 743 l 768 743 l 609 0 l 517 0 l 534 144 l 528 144 q 466 70 502 106 q 383 10 430 34 q 276 -14 336 -14 q 206 4 235 -14 q 159 56 177 21 l 155 56 q 146 2 151 35 q 135 -64 140 -31 q 125 -119 129 -98 l 81 -332 l -30 -332 z "},"¶":{"ha":909,"x_min":137,"x_max":812,"o":"m 514 -176 l 514 391 q 469 382 493 385 q 415 379 445 379 q 300 397 351 379 q 212 455 249 416 q 156 558 176 494 q 137 714 137 623 q 158 876 137 810 q 219 981 180 941 q 313 1038 258 1020 q 436 1055 368 1055 l 812 1055 l 812 -176 l 736 -176 l 736 956 l 590 956 l 590 -176 l 514 -176 z "},"·":{"ha":349,"x_min":115,"x_max":278,"o":"m 182 395 q 132 413 150 395 q 115 463 115 431 q 139 539 115 506 q 214 572 163 572 q 260 554 243 572 q 278 503 278 536 q 254 429 278 463 q 182 395 231 395 z "},"¸":{"ha":283,"x_min":-118,"x_max":144,"o":"m -54 -334 q -90 -331 -73 -334 q -118 -326 -106 -329 l -118 -258 q -90 -262 -104 -261 q -65 -264 -76 -264 q -2 -255 -28 -264 q 37 -230 24 -247 q 51 -186 51 -212 q 25 -141 51 -156 q -45 -121 -1 -126 l 22 0 l 94 0 l 54 -81 q 116 -113 87 -90 q 144 -186 144 -136 q 121 -262 144 -229 q 53 -314 98 -295 q -54 -334 9 -334 z "},"¹":{"ha":484,"x_min":205,"x_max":483,"o":"m 264 576 l 339 929 q 358 1009 347 965 q 378 1082 370 1053 q 348 1058 365 1072 q 313 1030 332 1044 l 241 985 l 205 1046 l 403 1171 l 483 1171 l 357 576 l 264 576 z "},"º":{"ha":473,"x_min":121,"x_max":515,"o":"m 288 534 q 169 579 216 534 q 121 715 121 625 q 135 821 121 770 q 179 914 150 873 q 251 980 208 956 q 351 1004 294 1004 q 476 954 437 1004 q 515 827 515 903 q 502 720 515 772 q 461 626 489 668 q 390 559 433 584 q 288 534 347 534 m 294 602 q 357 621 330 602 q 402 670 384 639 q 430 741 421 701 q 439 822 439 780 q 415 907 439 880 q 348 934 390 934 q 283 916 311 934 q 236 868 255 899 q 208 799 217 838 q 198 717 198 760 q 223 631 198 660 q 294 602 249 602 z "},"»":{"ha":646,"x_min":11,"x_max":592,"o":"m 326 80 l 271 136 l 475 359 l 359 621 l 438 654 l 592 357 l 591 337 l 326 80 m 72 87 l 11 136 l 208 380 l 100 621 l 178 654 l 323 381 l 323 361 l 72 87 z "},"¼":{"ha":1007,"x_min":118,"x_max":959,"o":"m 118 0 l 854 991 l 958 991 l 221 0 l 118 0 m 221 397 l 296 750 q 315 830 304 786 q 335 903 327 873 q 306 879 322 892 q 270 851 289 865 l 198 806 l 162 867 l 360 991 l 440 991 l 314 397 l 221 397 m 741 1 l 769 139 l 519 139 l 534 208 l 863 600 l 956 600 l 873 216 l 959 216 l 944 139 l 856 139 l 827 1 l 741 1 m 629 216 l 786 216 l 815 348 q 831 419 823 384 q 848 488 838 454 q 813 438 839 471 q 770 385 788 406 l 629 216 z "},"½":{"ha":1104,"x_min":119,"x_max":1048,"o":"m 119 0 l 856 991 l 959 991 l 222 0 l 119 0 m 221 397 l 296 750 q 315 830 304 786 q 335 903 327 873 q 306 879 322 892 q 270 851 289 865 l 198 806 l 162 867 l 360 991 l 440 991 l 314 397 l 221 397 m 593 1 l 610 73 l 791 227 q 885 313 848 276 q 940 384 922 351 q 958 454 958 417 q 936 511 958 490 q 875 533 915 533 q 807 519 840 533 q 740 478 774 506 l 700 540 q 789 591 743 574 q 890 608 836 608 q 1011 564 975 608 q 1048 468 1048 520 q 1030 381 1048 421 q 975 299 1013 341 q 871 203 936 257 l 724 81 l 995 81 l 979 1 l 593 1 z "},"¾":{"ha":1085,"x_min":71,"x_max":1042,"o":"m 231 389 q 144 398 185 389 q 71 425 103 408 l 71 510 q 150 476 108 490 q 233 463 192 463 q 341 494 305 463 q 377 580 377 525 q 347 648 377 625 q 257 671 316 671 l 193 671 l 209 743 l 273 743 q 349 755 316 743 q 401 791 382 768 q 420 848 420 815 q 396 910 420 888 q 329 930 373 931 q 259 917 291 929 q 196 884 227 905 l 160 946 q 240 988 193 971 q 345 1005 287 1005 q 436 987 399 1005 q 491 938 473 969 q 509 866 509 907 q 471 764 509 802 q 368 709 433 726 l 368 704 q 441 658 415 692 q 467 578 467 624 q 441 480 467 523 q 362 413 415 437 q 231 389 310 389 m 202 0 l 939 991 l 1042 991 l 305 0 l 202 0 m 818 0 l 846 138 l 597 138 l 612 206 l 941 599 l 1033 599 l 951 214 l 1036 214 l 1021 138 l 933 138 l 905 0 l 818 0 m 706 214 l 863 214 l 892 347 q 908 418 901 382 q 925 486 916 453 q 891 437 916 470 q 847 383 865 404 l 706 214 z "},"¿":{"ha":593,"x_min":-27,"x_max":491,"o":"m 423 462 q 394 355 413 400 q 341 273 374 311 q 258 196 309 236 q 174 129 213 162 q 111 57 135 96 q 87 -37 87 18 q 122 -135 87 -100 q 224 -170 158 -170 q 326 -154 275 -170 q 422 -115 376 -137 l 463 -201 q 340 -250 406 -231 q 212 -269 275 -269 q 38 -213 103 -269 q -27 -51 -27 -158 q -4 64 -27 13 q 64 160 20 115 q 173 252 109 205 q 257 320 227 292 q 304 380 288 348 q 332 462 321 412 l 423 462 m 424 756 q 473 738 456 756 q 491 688 491 720 q 467 612 491 645 q 392 579 443 579 q 345 597 363 579 q 328 648 328 614 q 351 722 328 688 q 424 756 375 756 z "},"À":{"ha":779,"x_min":-78,"x_max":711,"o":"m -78 0 l 465 991 l 585 991 l 711 0 l 597 0 l 558 316 l 216 316 l 47 0 l -78 0 m 271 418 l 547 418 l 520 650 q 510 760 515 700 q 503 867 505 820 l 499 867 q 450 759 477 816 q 392 645 422 703 l 271 418 m 549 1090 q 493 1155 523 1117 q 438 1232 463 1193 q 398 1299 412 1270 l 398 1313 l 519 1313 q 546 1243 530 1279 q 581 1173 562 1207 q 618 1107 600 1138 l 618 1090 l 549 1090 z "},"Á":{"ha":779,"x_min":-78,"x_max":762,"o":"m -78 0 l 465 991 l 585 991 l 711 0 l 597 0 l 558 316 l 216 316 l 47 0 l -78 0 m 271 418 l 547 418 l 520 650 q 510 760 515 700 q 503 867 505 820 l 499 867 q 450 759 477 816 q 392 645 422 703 l 271 418 m 474 1090 l 474 1107 q 528 1171 499 1135 q 586 1244 557 1206 q 633 1313 614 1282 l 762 1313 l 762 1299 q 721 1253 747 1280 q 665 1195 696 1225 q 603 1138 634 1165 q 545 1090 572 1110 l 474 1090 z "},"Â":{"ha":779,"x_min":-78,"x_max":739,"o":"m -78 0 l 465 991 l 585 991 l 711 0 l 597 0 l 558 316 l 216 316 l 47 0 l -78 0 m 271 418 l 547 418 l 520 650 q 510 760 515 700 q 503 867 505 820 l 499 867 q 450 759 477 816 q 392 645 422 703 l 271 418 m 321 1090 l 321 1107 q 384 1166 346 1130 q 459 1242 422 1203 q 515 1312 496 1282 l 624 1312 q 658 1240 637 1277 q 700 1169 678 1203 q 739 1107 722 1135 l 739 1090 l 669 1090 q 633 1128 652 1107 q 596 1173 615 1149 q 560 1222 578 1197 q 476 1151 519 1185 q 396 1090 433 1116 l 321 1090 z "},"Ã":{"ha":779,"x_min":-78,"x_max":810,"o":"m -78 0 l 465 991 l 585 991 l 711 0 l 597 0 l 558 316 l 216 316 l 47 0 l -78 0 m 271 418 l 547 418 l 520 650 q 510 760 515 700 q 503 867 505 820 l 499 867 q 450 759 477 816 q 392 645 422 703 l 271 418 m 309 1093 q 343 1187 321 1149 q 396 1246 365 1226 q 467 1265 427 1265 q 524 1254 497 1265 q 574 1226 551 1242 q 619 1199 598 1211 q 659 1187 640 1187 q 706 1205 688 1187 q 741 1267 724 1223 l 810 1267 q 773 1172 795 1211 q 720 1113 751 1133 q 650 1093 690 1093 q 597 1105 623 1093 q 549 1133 572 1117 q 503 1161 526 1149 q 458 1173 481 1173 q 411 1153 429 1173 q 378 1093 393 1134 l 309 1093 z "},"Ä":{"ha":779,"x_min":-78,"x_max":743,"o":"m -78 0 l 465 991 l 585 991 l 711 0 l 597 0 l 558 316 l 216 316 l 47 0 l -78 0 m 271 418 l 547 418 l 520 650 q 510 760 515 700 q 503 867 505 820 l 499 867 q 450 759 477 816 q 392 645 422 703 l 271 418 m 675 1128 q 636 1142 652 1128 q 621 1183 621 1156 q 638 1236 621 1213 q 691 1259 656 1259 q 730 1245 718 1259 q 743 1207 743 1231 q 722 1149 743 1171 q 675 1128 701 1128 m 427 1128 q 387 1142 402 1128 q 372 1183 372 1156 q 389 1236 372 1213 q 441 1259 407 1259 q 471 1253 459 1259 q 488 1235 482 1246 q 494 1207 494 1223 q 473 1149 494 1171 q 427 1128 453 1128 z "},"Å":{"ha":779,"x_min":-78,"x_max":711,"o":"m -78 0 l 465 991 l 585 991 l 711 0 l 597 0 l 558 316 l 216 316 l 47 0 l -78 0 m 271 418 l 547 418 l 520 650 q 510 760 515 700 q 503 867 505 820 l 499 867 q 450 759 477 816 q 392 645 422 703 l 271 418 m 549 1076 q 442 1114 484 1076 q 400 1221 400 1152 q 444 1326 400 1289 q 549 1364 488 1364 q 656 1326 614 1364 q 699 1222 699 1289 q 656 1114 699 1152 q 549 1076 613 1076 m 549 1141 q 607 1162 585 1141 q 629 1221 629 1184 q 607 1279 629 1257 q 549 1301 584 1301 q 492 1279 515 1301 q 469 1221 469 1257 q 490 1162 469 1184 q 549 1141 511 1141 z "},"Æ":{"ha":1139,"x_min":-79,"x_max":1193,"o":"m -79 0 l 553 991 l 1193 991 l 1173 890 l 782 890 l 712 569 l 1078 569 l 1059 469 l 694 469 l 616 102 l 1005 102 l 983 0 l 478 0 l 545 316 l 249 316 l 52 0 l -79 0 m 314 418 l 566 418 l 666 890 l 609 890 l 314 418 z "},"Ç":{"ha":817,"x_min":102,"x_max":878,"o":"m 453 -14 q 264 33 342 -14 q 144 164 186 79 q 102 366 102 249 q 123 550 102 458 q 188 724 145 642 q 296 869 231 806 q 446 969 360 932 q 638 1006 532 1006 q 767 992 709 1006 q 878 951 826 979 l 832 855 q 746 890 793 876 q 638 904 699 904 q 488 874 555 904 q 372 791 422 844 q 289 670 322 739 q 240 525 256 602 q 223 369 223 448 q 289 163 223 239 q 473 87 355 87 q 587 99 532 87 q 694 128 642 111 l 694 28 q 586 -2 642 9 q 453 -14 530 -14 m 324 -334 q 289 -331 306 -334 q 260 -326 272 -329 l 260 -258 q 288 -262 274 -261 q 313 -264 302 -264 q 376 -255 351 -264 q 416 -230 402 -247 q 429 -186 429 -212 q 403 -141 429 -156 q 333 -121 377 -126 l 400 0 l 473 0 l 432 -81 q 494 -113 466 -90 q 522 -186 522 -136 q 499 -262 522 -229 q 432 -314 476 -295 q 324 -334 387 -334 z "},"È":{"ha":718,"x_min":58,"x_max":770,"o":"m 58 0 l 268 991 l 770 991 l 749 890 l 361 890 l 292 569 l 656 569 l 636 469 l 272 469 l 193 102 l 582 102 l 560 0 l 58 0 m 541 1090 q 486 1155 515 1117 q 430 1232 456 1193 q 391 1299 405 1270 l 391 1313 l 511 1313 q 538 1243 522 1279 q 574 1173 555 1207 q 611 1107 593 1138 l 611 1090 l 541 1090 z "},"É":{"ha":718,"x_min":58,"x_max":770,"o":"m 58 0 l 268 991 l 770 991 l 749 890 l 361 890 l 292 569 l 656 569 l 636 469 l 272 469 l 193 102 l 582 102 l 560 0 l 58 0 m 465 1090 l 465 1107 q 519 1171 490 1135 q 577 1244 549 1206 q 625 1313 605 1282 l 753 1313 l 753 1299 q 712 1253 738 1280 q 656 1195 687 1225 q 594 1138 625 1165 q 536 1090 563 1110 l 465 1090 z "},"Ê":{"ha":718,"x_min":58,"x_max":770,"o":"m 58 0 l 268 991 l 770 991 l 749 890 l 361 890 l 292 569 l 656 569 l 636 469 l 272 469 l 193 102 l 582 102 l 560 0 l 58 0 m 315 1090 l 316 1107 q 378 1166 340 1130 q 453 1242 416 1203 q 510 1312 490 1282 l 618 1312 q 652 1240 632 1277 q 695 1169 673 1203 q 734 1107 717 1135 l 734 1090 l 663 1090 q 628 1128 646 1107 q 591 1173 610 1149 q 555 1222 572 1197 q 471 1151 513 1185 q 391 1090 428 1116 l 315 1090 z "},"Ë":{"ha":718,"x_min":58,"x_max":770,"o":"m 58 0 l 268 991 l 770 991 l 749 890 l 361 890 l 292 569 l 656 569 l 636 469 l 272 469 l 193 102 l 582 102 l 560 0 l 58 0 m 671 1128 q 631 1142 647 1128 q 616 1183 616 1156 q 634 1236 616 1213 q 686 1259 652 1259 q 726 1245 713 1259 q 739 1207 739 1231 q 718 1149 739 1171 q 671 1128 696 1128 m 422 1128 q 382 1142 397 1128 q 367 1183 367 1156 q 385 1236 367 1213 q 436 1259 402 1259 q 466 1253 454 1259 q 483 1235 477 1246 q 489 1207 489 1223 q 469 1149 489 1171 q 422 1128 448 1128 z "},"Ì":{"ha":376,"x_min":58,"x_max":412,"o":"m 58 0 l 269 991 l 382 991 l 171 0 l 58 0 m 342 1090 q 287 1155 317 1117 q 232 1232 257 1193 q 192 1299 206 1270 l 192 1313 l 313 1313 q 340 1243 323 1279 q 375 1173 356 1207 q 412 1107 394 1138 l 412 1090 l 342 1090 z "},"Í":{"ha":376,"x_min":58,"x_max":571,"o":"m 58 0 l 269 991 l 382 991 l 171 0 l 58 0 m 283 1090 l 283 1107 q 338 1171 309 1135 q 395 1244 367 1206 q 443 1313 423 1282 l 571 1313 l 571 1299 q 531 1253 556 1280 q 474 1195 505 1225 q 412 1138 444 1165 q 354 1090 381 1110 l 283 1090 z "},"Î":{"ha":376,"x_min":58,"x_max":553,"o":"m 58 0 l 269 991 l 382 991 l 171 0 l 58 0 m 135 1090 l 136 1107 q 198 1166 160 1130 q 273 1242 236 1203 q 330 1312 310 1282 l 438 1312 q 472 1240 452 1277 q 514 1169 492 1203 q 553 1107 536 1135 l 553 1090 l 483 1090 q 448 1128 466 1107 q 411 1173 429 1149 q 374 1222 392 1197 q 290 1151 333 1185 q 210 1090 248 1116 l 135 1090 z "},"Ï":{"ha":376,"x_min":58,"x_max":555,"o":"m 58 0 l 269 991 l 382 991 l 171 0 l 58 0 m 488 1128 q 448 1142 464 1128 q 433 1183 433 1156 q 451 1236 433 1213 q 503 1259 469 1259 q 543 1245 530 1259 q 555 1207 555 1231 q 534 1149 555 1171 q 488 1128 513 1128 m 239 1128 q 199 1142 214 1128 q 184 1183 184 1156 q 201 1236 184 1213 q 253 1259 219 1259 q 283 1253 271 1259 q 300 1235 294 1246 q 306 1207 306 1223 q 286 1149 306 1171 q 239 1128 265 1128 z "},"Ð":{"ha":928,"x_min":47,"x_max":884,"o":"m 58 0 l 150 441 l 47 441 l 69 541 l 172 541 l 268 991 l 499 991 q 782 894 680 991 q 884 595 884 797 q 859 404 884 494 q 787 239 835 313 q 668 112 739 165 q 505 29 597 58 q 298 0 412 0 l 58 0 m 193 99 l 304 99 q 467 124 394 99 q 594 194 539 149 q 687 301 650 239 q 744 438 725 363 q 763 597 763 513 q 687 823 763 753 q 484 893 612 893 l 362 893 l 287 541 l 511 541 l 489 441 l 265 441 l 193 99 z "},"Ñ":{"ha":977,"x_min":57,"x_max":982,"o":"m 57 0 l 267 991 l 387 991 l 701 161 l 705 161 q 717 240 709 195 q 734 335 724 286 q 753 429 743 384 l 873 991 l 982 991 l 772 0 l 652 0 l 336 832 l 332 832 q 324 777 329 809 q 312 708 319 745 q 298 632 306 671 q 283 556 291 593 l 165 0 l 57 0 m 416 1093 q 450 1187 429 1149 q 503 1246 472 1226 q 574 1265 534 1265 q 631 1254 604 1265 q 682 1226 658 1242 q 726 1199 705 1211 q 766 1187 747 1187 q 813 1205 795 1187 q 848 1267 831 1223 l 918 1267 q 880 1172 903 1211 q 827 1113 858 1133 q 758 1093 797 1093 q 705 1105 730 1093 q 656 1133 680 1117 q 610 1161 633 1149 q 565 1173 588 1173 q 518 1153 536 1173 q 485 1093 500 1134 l 416 1093 z "},"Ò":{"ha":1001,"x_min":102,"x_max":956,"o":"m 467 -14 q 266 34 348 -14 q 143 168 184 81 q 102 372 102 255 q 117 536 102 457 q 161 687 132 616 q 234 816 191 758 q 332 918 277 875 q 455 984 388 960 q 602 1007 523 1007 q 862 904 768 1007 q 956 616 956 800 q 943 456 956 534 q 902 307 929 378 q 834 178 875 237 q 739 77 793 119 q 617 10 685 34 q 467 -14 549 -14 m 471 87 q 579 108 530 87 q 669 165 629 128 q 740 251 709 201 q 792 360 771 300 q 824 485 813 419 q 835 619 835 551 q 771 830 835 755 q 593 905 707 905 q 485 886 535 905 q 393 831 435 867 q 320 747 352 795 q 267 638 289 698 q 234 513 245 579 q 223 375 223 446 q 252 221 223 286 q 337 122 281 157 q 471 87 393 87 m 657 1090 q 602 1155 631 1117 q 546 1232 572 1193 q 507 1299 521 1270 l 507 1313 l 627 1313 q 654 1243 638 1279 q 690 1173 671 1207 q 727 1107 709 1138 l 727 1090 l 657 1090 z "},"Ó":{"ha":1001,"x_min":102,"x_max":956,"o":"m 467 -14 q 266 34 348 -14 q 143 168 184 81 q 102 372 102 255 q 117 536 102 457 q 161 687 132 616 q 234 816 191 758 q 332 918 277 875 q 455 984 388 960 q 602 1007 523 1007 q 862 904 768 1007 q 956 616 956 800 q 943 456 956 534 q 902 307 929 378 q 834 178 875 237 q 739 77 793 119 q 617 10 685 34 q 467 -14 549 -14 m 471 87 q 579 108 530 87 q 669 165 629 128 q 740 251 709 201 q 792 360 771 300 q 824 485 813 419 q 835 619 835 551 q 771 830 835 755 q 593 905 707 905 q 485 886 535 905 q 393 831 435 867 q 320 747 352 795 q 267 638 289 698 q 234 513 245 579 q 223 375 223 446 q 252 221 223 286 q 337 122 281 157 q 471 87 393 87 m 581 1090 l 581 1107 q 635 1171 606 1135 q 693 1244 665 1206 q 741 1313 721 1282 l 869 1313 l 869 1299 q 828 1253 854 1280 q 772 1195 803 1225 q 710 1138 741 1165 q 652 1090 679 1110 l 581 1090 z "},"Ô":{"ha":1001,"x_min":102,"x_max":956,"o":"m 467 -14 q 266 34 348 -14 q 143 168 184 81 q 102 372 102 255 q 117 536 102 457 q 161 687 132 616 q 234 816 191 758 q 332 918 277 875 q 455 984 388 960 q 602 1007 523 1007 q 862 904 768 1007 q 956 616 956 800 q 943 456 956 534 q 902 307 929 378 q 834 178 875 237 q 739 77 793 119 q 617 10 685 34 q 467 -14 549 -14 m 471 87 q 579 108 530 87 q 669 165 629 128 q 740 251 709 201 q 792 360 771 300 q 824 485 813 419 q 835 619 835 551 q 771 830 835 755 q 593 905 707 905 q 485 886 535 905 q 393 831 435 867 q 320 747 352 795 q 267 638 289 698 q 234 513 245 579 q 223 375 223 446 q 252 221 223 286 q 337 122 281 157 q 471 87 393 87 m 429 1090 l 429 1107 q 492 1166 454 1130 q 567 1242 530 1203 q 623 1312 604 1282 l 732 1312 q 766 1240 745 1277 q 808 1169 786 1203 q 847 1107 830 1135 l 847 1090 l 777 1090 q 741 1128 760 1107 q 704 1173 723 1149 q 668 1222 686 1197 q 584 1151 627 1185 q 504 1090 541 1116 l 429 1090 z "},"Õ":{"ha":1001,"x_min":102,"x_max":956,"o":"m 467 -14 q 266 34 348 -14 q 143 168 184 81 q 102 372 102 255 q 117 536 102 457 q 161 687 132 616 q 234 816 191 758 q 332 918 277 875 q 455 984 388 960 q 602 1007 523 1007 q 862 904 768 1007 q 956 616 956 800 q 943 456 956 534 q 902 307 929 378 q 834 178 875 237 q 739 77 793 119 q 617 10 685 34 q 467 -14 549 -14 m 471 87 q 579 108 530 87 q 669 165 629 128 q 740 251 709 201 q 792 360 771 300 q 824 485 813 419 q 835 619 835 551 q 771 830 835 755 q 593 905 707 905 q 485 886 535 905 q 393 831 435 867 q 320 747 352 795 q 267 638 289 698 q 234 513 245 579 q 223 375 223 446 q 252 221 223 286 q 337 122 281 157 q 471 87 393 87 m 418 1093 q 452 1187 430 1149 q 504 1246 473 1226 q 575 1265 535 1265 q 632 1254 606 1265 q 683 1226 659 1242 q 727 1199 707 1211 q 767 1187 748 1187 q 814 1205 797 1187 q 849 1267 832 1223 l 919 1267 q 882 1172 904 1211 q 829 1113 859 1133 q 759 1093 798 1093 q 706 1105 731 1093 q 657 1133 681 1117 q 612 1161 634 1149 q 566 1173 589 1173 q 519 1153 537 1173 q 486 1093 502 1134 l 418 1093 z "},"Ö":{"ha":1001,"x_min":102,"x_max":956,"o":"m 467 -14 q 266 34 348 -14 q 143 168 184 81 q 102 372 102 255 q 117 536 102 457 q 161 687 132 616 q 234 816 191 758 q 332 918 277 875 q 455 984 388 960 q 602 1007 523 1007 q 862 904 768 1007 q 956 616 956 800 q 943 456 956 534 q 902 307 929 378 q 834 178 875 237 q 739 77 793 119 q 617 10 685 34 q 467 -14 549 -14 m 471 87 q 579 108 530 87 q 669 165 629 128 q 740 251 709 201 q 792 360 771 300 q 824 485 813 419 q 835 619 835 551 q 771 830 835 755 q 593 905 707 905 q 485 886 535 905 q 393 831 435 867 q 320 747 352 795 q 267 638 289 698 q 234 513 245 579 q 223 375 223 446 q 252 221 223 286 q 337 122 281 157 q 471 87 393 87 m 784 1128 q 745 1142 760 1128 q 729 1183 729 1156 q 747 1236 729 1213 q 800 1259 765 1259 q 839 1245 826 1259 q 852 1207 852 1231 q 831 1149 852 1171 q 784 1128 810 1128 m 536 1128 q 495 1142 511 1128 q 480 1183 480 1156 q 498 1236 480 1213 q 549 1259 515 1259 q 579 1253 568 1259 q 596 1235 591 1246 q 602 1207 602 1223 q 582 1149 602 1171 q 536 1128 562 1128 z "},"×":{"ha":794,"x_min":118,"x_max":729,"o":"m 665 796 l 729 730 l 489 490 l 728 250 l 664 184 l 422 423 l 186 184 l 119 250 l 358 490 l 118 729 l 185 796 l 424 555 l 665 796 z "},"Ø":{"ha":1001,"x_min":75,"x_max":994,"o":"m 147 -55 l 75 5 l 171 123 q 119 235 136 172 q 102 372 102 298 q 117 536 102 457 q 161 687 132 616 q 234 816 191 758 q 332 918 277 875 q 455 984 388 960 q 602 1007 523 1007 q 726 988 670 1007 q 827 930 781 969 l 919 1042 l 994 983 l 890 859 q 939 752 922 816 q 956 616 956 689 q 943 456 956 534 q 902 307 929 378 q 834 178 875 237 q 739 77 793 119 q 617 10 685 34 q 467 -14 549 -14 q 340 4 397 -14 q 239 56 284 21 l 147 -55 m 471 87 q 579 108 530 87 q 670 165 629 128 q 742 251 711 201 q 793 360 772 300 q 825 485 814 419 q 836 619 836 551 q 830 696 836 660 q 812 759 823 732 l 307 142 q 378 102 336 117 q 471 87 419 87 m 251 221 l 757 844 q 686 890 727 874 q 593 907 646 907 q 485 887 535 907 q 393 832 435 867 q 320 747 352 796 q 267 638 288 698 q 234 513 245 579 q 222 375 222 446 q 230 291 222 331 q 251 221 237 252 z "},"Ù":{"ha":942,"x_min":111,"x_max":956,"o":"m 416 -14 q 247 18 315 -14 q 145 111 179 50 q 111 260 111 172 q 115 317 111 284 q 127 389 119 351 l 256 991 l 370 991 l 241 382 q 229 317 233 351 q 225 262 225 283 q 275 134 225 180 q 423 87 326 87 q 562 117 507 87 q 652 204 618 146 q 705 349 686 262 l 842 991 l 956 991 l 818 339 q 746 150 795 229 q 616 28 697 71 q 416 -14 536 -14 m 630 1090 q 574 1155 604 1117 q 519 1232 545 1193 q 479 1299 494 1270 l 479 1313 l 600 1313 q 627 1243 611 1279 q 663 1173 644 1207 q 700 1107 682 1138 l 700 1090 l 630 1090 z "},"Ú":{"ha":942,"x_min":111,"x_max":956,"o":"m 416 -14 q 247 18 315 -14 q 145 111 179 50 q 111 260 111 172 q 115 317 111 284 q 127 389 119 351 l 256 991 l 370 991 l 241 382 q 229 317 233 351 q 225 262 225 283 q 275 134 225 180 q 423 87 326 87 q 562 117 507 87 q 652 204 618 146 q 705 349 686 262 l 842 991 l 956 991 l 818 339 q 746 150 795 229 q 616 28 697 71 q 416 -14 536 -14 m 553 1090 l 553 1107 q 607 1171 578 1135 q 664 1244 636 1206 q 712 1313 692 1282 l 840 1313 l 840 1299 q 800 1253 825 1280 q 744 1195 774 1225 q 682 1138 713 1165 q 623 1090 650 1110 l 553 1090 z "},"Û":{"ha":942,"x_min":111,"x_max":956,"o":"m 416 -14 q 247 18 315 -14 q 145 111 179 50 q 111 260 111 172 q 115 317 111 284 q 127 389 119 351 l 256 991 l 370 991 l 241 382 q 229 317 233 351 q 225 262 225 283 q 275 134 225 180 q 423 87 326 87 q 562 117 507 87 q 652 204 618 146 q 705 349 686 262 l 842 991 l 956 991 l 818 339 q 746 150 795 229 q 616 28 697 71 q 416 -14 536 -14 m 401 1090 l 402 1107 q 465 1166 427 1130 q 539 1242 503 1203 q 596 1312 576 1282 l 705 1312 q 739 1240 718 1277 q 781 1169 759 1203 q 820 1107 803 1135 l 820 1090 l 749 1090 q 714 1128 732 1107 q 677 1173 696 1149 q 641 1222 659 1197 q 557 1151 600 1185 q 477 1090 514 1116 l 401 1090 z "},"Ü":{"ha":942,"x_min":111,"x_max":956,"o":"m 416 -14 q 247 18 315 -14 q 145 111 179 50 q 111 260 111 172 q 115 317 111 284 q 127 389 119 351 l 256 991 l 370 991 l 241 382 q 229 317 233 351 q 225 262 225 283 q 275 134 225 180 q 423 87 326 87 q 562 117 507 87 q 652 204 618 146 q 705 349 686 262 l 842 991 l 956 991 l 818 339 q 746 150 795 229 q 616 28 697 71 q 416 -14 536 -14 m 757 1128 q 718 1142 733 1128 q 702 1183 702 1156 q 720 1236 702 1213 q 772 1259 738 1259 q 812 1245 799 1259 q 825 1207 825 1231 q 804 1149 825 1171 q 757 1128 783 1128 m 509 1128 q 468 1142 484 1128 q 453 1183 453 1156 q 471 1236 453 1213 q 522 1259 488 1259 q 552 1253 541 1259 q 569 1235 564 1246 q 575 1207 575 1223 q 555 1149 575 1171 q 509 1128 534 1128 z "},"Ý":{"ha":703,"x_min":128,"x_max":831,"o":"m 212 0 l 292 373 l 128 991 l 243 991 l 367 486 l 702 991 l 831 991 l 404 370 l 328 0 l 212 0 m 434 1090 l 434 1107 q 488 1171 459 1135 q 546 1244 517 1206 q 593 1313 574 1282 l 722 1313 l 722 1299 q 681 1253 707 1280 q 625 1195 656 1225 q 563 1138 594 1165 q 505 1090 532 1110 l 434 1090 z "},"Þ":{"ha":786,"x_min":58,"x_max":751,"o":"m 58 0 l 268 991 l 382 991 l 346 818 l 454 818 q 625 787 559 818 q 720 698 690 755 q 751 564 751 641 q 722 413 751 478 q 637 305 693 349 q 500 240 581 262 q 315 218 419 218 l 219 218 l 172 0 l 58 0 m 239 316 l 334 316 q 491 341 424 316 q 596 420 559 367 q 633 559 633 474 q 585 682 633 644 q 439 720 536 720 l 323 720 l 239 316 z "},"ß":{"ha":803,"x_min":-176,"x_max":758,"o":"m -93 -334 q -139 -330 -117 -334 q -176 -319 -161 -326 l -176 -222 q -141 -234 -159 -230 q -101 -238 -122 -238 q -27 -206 -56 -238 q 18 -102 2 -174 l 207 790 q 267 942 227 882 q 372 1033 308 1003 q 524 1063 435 1063 q 694 1015 631 1063 q 758 880 758 967 q 738 793 758 830 q 687 727 718 755 q 623 672 656 698 q 544 610 579 641 q 508 540 508 580 q 524 499 508 518 q 561 465 540 480 q 596 436 581 449 q 679 348 647 393 q 711 239 711 304 q 673 96 711 152 q 573 13 635 40 q 436 -14 511 -14 q 329 -1 374 -14 q 254 33 283 12 l 254 138 q 330 97 283 115 q 423 79 376 79 q 552 121 509 79 q 595 227 595 163 q 586 281 595 258 q 556 325 576 304 q 505 372 536 346 q 424 453 450 416 q 397 534 397 490 q 417 615 397 582 q 466 674 436 648 q 529 722 496 699 q 587 764 559 742 q 630 812 614 785 q 647 873 647 838 q 611 944 647 919 q 514 970 574 970 q 419 949 458 970 q 355 889 380 929 q 319 790 331 849 l 132 -95 q 89 -223 117 -170 q 17 -305 61 -277 q -93 -334 -27 -334 z "},"à":{"ha":785,"x_min":67,"x_max":758,"o":"m 269 -14 q 163 16 208 -14 q 92 102 117 45 q 67 241 67 159 q 84 399 67 323 q 134 540 102 475 q 211 654 165 605 q 312 730 256 703 q 433 757 368 757 q 520 738 484 757 q 582 688 557 719 q 621 623 607 657 l 628 623 l 671 743 l 758 743 l 600 0 l 510 0 l 530 144 l 525 144 q 455 67 494 103 q 369 9 416 31 q 269 -14 322 -14 m 305 80 q 409 118 357 80 q 501 222 460 157 q 564 370 542 288 q 578 443 574 410 q 582 506 582 477 q 545 619 582 576 q 444 662 508 662 q 359 639 399 662 q 287 576 319 616 q 231 483 254 536 q 196 367 208 429 q 183 239 183 304 q 215 120 183 161 q 305 80 247 80 m 501 842 q 446 906 475 868 q 390 983 416 944 q 351 1050 365 1021 l 351 1064 l 471 1064 q 498 994 482 1030 q 534 924 515 958 q 571 859 553 889 l 571 842 l 501 842 z "},"á":{"ha":785,"x_min":67,"x_max":758,"o":"m 269 -14 q 163 16 208 -14 q 92 102 117 45 q 67 241 67 159 q 84 399 67 323 q 134 540 102 475 q 211 654 165 605 q 312 730 256 703 q 433 757 368 757 q 520 738 484 757 q 582 688 557 719 q 621 623 607 657 l 628 623 l 671 743 l 758 743 l 600 0 l 510 0 l 530 144 l 525 144 q 455 67 494 103 q 369 9 416 31 q 269 -14 322 -14 m 305 80 q 409 118 357 80 q 501 222 460 157 q 564 370 542 288 q 578 443 574 410 q 582 506 582 477 q 545 619 582 576 q 444 662 508 662 q 359 639 399 662 q 287 576 319 616 q 231 483 254 536 q 196 367 208 429 q 183 239 183 304 q 215 120 183 161 q 305 80 247 80 m 422 842 l 422 859 q 476 922 447 886 q 533 995 505 958 q 581 1064 562 1033 l 709 1064 l 709 1050 q 669 1004 694 1031 q 613 946 644 977 q 551 889 582 916 q 492 842 519 861 l 422 842 z "},"â":{"ha":785,"x_min":67,"x_max":758,"o":"m 269 -14 q 163 16 208 -14 q 92 102 117 45 q 67 241 67 159 q 84 399 67 323 q 134 540 102 475 q 211 654 165 605 q 312 730 256 703 q 433 757 368 757 q 520 738 484 757 q 582 688 557 719 q 621 623 607 657 l 628 623 l 671 743 l 758 743 l 600 0 l 510 0 l 530 144 l 525 144 q 455 67 494 103 q 369 9 416 31 q 269 -14 322 -14 m 305 80 q 409 118 357 80 q 501 222 460 157 q 564 370 542 288 q 578 443 574 410 q 582 506 582 477 q 545 619 582 576 q 444 662 508 662 q 359 639 399 662 q 287 576 319 616 q 231 483 254 536 q 196 367 208 429 q 183 239 183 304 q 215 120 183 161 q 305 80 247 80 m 272 842 l 273 859 q 335 918 297 881 q 410 994 373 954 q 467 1063 447 1033 l 575 1063 q 609 991 589 1028 q 651 920 629 954 q 690 859 673 886 l 690 842 l 620 842 q 585 879 603 858 q 548 924 566 900 q 511 973 529 948 q 427 902 470 936 q 347 842 385 867 l 272 842 z "},"ã":{"ha":785,"x_min":67,"x_max":759,"o":"m 269 -14 q 163 16 208 -14 q 92 102 117 45 q 67 241 67 159 q 84 399 67 323 q 134 540 102 475 q 211 654 165 605 q 312 730 256 703 q 433 757 368 757 q 520 738 484 757 q 582 688 557 719 q 621 623 607 657 l 628 623 l 671 743 l 758 743 l 600 0 l 510 0 l 530 144 l 525 144 q 455 67 494 103 q 369 9 416 31 q 269 -14 322 -14 m 305 80 q 409 118 357 80 q 501 222 460 157 q 564 370 542 288 q 578 443 574 410 q 582 506 582 477 q 545 619 582 576 q 444 662 508 662 q 359 639 399 662 q 287 576 319 616 q 231 483 254 536 q 196 367 208 429 q 183 239 183 304 q 215 120 183 161 q 305 80 247 80 m 258 844 q 292 939 270 900 q 344 997 313 977 q 415 1017 375 1017 q 472 1005 446 1017 q 523 977 499 993 q 567 950 547 962 q 607 938 588 938 q 654 956 637 938 q 689 1018 672 974 l 759 1018 q 722 923 744 962 q 669 864 699 884 q 599 844 638 844 q 546 856 571 844 q 497 884 521 868 q 452 912 474 900 q 406 924 429 924 q 359 904 377 924 q 326 844 342 885 l 258 844 z "},"ä":{"ha":785,"x_min":67,"x_max":758,"o":"m 269 -14 q 163 16 208 -14 q 92 102 117 45 q 67 241 67 159 q 84 399 67 323 q 134 540 102 475 q 211 654 165 605 q 312 730 256 703 q 433 757 368 757 q 520 738 484 757 q 582 688 557 719 q 621 623 607 657 l 628 623 l 671 743 l 758 743 l 600 0 l 510 0 l 530 144 l 525 144 q 455 67 494 103 q 369 9 416 31 q 269 -14 322 -14 m 305 80 q 409 118 357 80 q 501 222 460 157 q 564 370 542 288 q 578 443 574 410 q 582 506 582 477 q 545 619 582 576 q 444 662 508 662 q 359 639 399 662 q 287 576 319 616 q 231 483 254 536 q 196 367 208 429 q 183 239 183 304 q 215 120 183 161 q 305 80 247 80 m 627 879 q 587 893 603 879 q 572 934 572 907 q 590 987 572 964 q 642 1010 608 1010 q 682 996 669 1010 q 694 958 694 982 q 673 900 694 922 q 627 879 652 879 m 378 879 q 338 893 353 879 q 323 934 323 907 q 340 987 323 964 q 392 1010 358 1010 q 422 1004 410 1010 q 439 986 433 998 q 445 958 445 974 q 425 900 445 922 q 378 879 404 879 z "},"å":{"ha":785,"x_min":67,"x_max":758,"o":"m 269 -14 q 163 16 208 -14 q 92 102 117 45 q 67 241 67 159 q 84 399 67 323 q 134 540 102 475 q 211 654 165 605 q 312 730 256 703 q 433 757 368 757 q 520 738 484 757 q 582 688 557 719 q 621 623 607 657 l 628 623 l 671 743 l 758 743 l 600 0 l 510 0 l 530 144 l 525 144 q 455 67 494 103 q 369 9 416 31 q 269 -14 322 -14 m 305 80 q 409 118 357 80 q 501 222 460 157 q 564 370 542 288 q 578 443 574 410 q 582 506 582 477 q 545 619 582 576 q 444 662 508 662 q 359 639 399 662 q 287 576 319 616 q 231 483 254 536 q 196 367 208 429 q 183 239 183 304 q 215 120 183 161 q 305 80 247 80 m 500 842 q 394 881 435 842 q 352 987 352 919 q 396 1093 352 1055 q 500 1131 439 1131 q 608 1093 566 1131 q 650 989 650 1055 q 608 881 650 919 q 500 842 565 842 m 500 907 q 559 929 536 907 q 581 987 581 951 q 558 1046 581 1024 q 500 1067 536 1067 q 444 1046 467 1067 q 421 987 421 1024 q 442 929 421 951 q 500 907 463 907 z "},"æ":{"ha":1142,"x_min":67,"x_max":1108,"o":"m 248 -14 q 153 16 194 -14 q 90 101 113 45 q 67 239 67 158 q 84 399 67 322 q 133 541 101 475 q 209 654 165 606 q 307 730 253 703 q 422 757 361 757 q 502 738 469 757 q 557 688 535 719 q 592 623 579 657 l 599 623 l 644 743 l 717 743 l 695 639 q 790 724 732 691 q 926 757 848 757 q 1054 714 1000 757 q 1108 585 1108 672 q 1082 481 1108 529 q 1002 399 1056 434 q 867 345 949 364 q 672 326 785 326 l 642 326 q 641 298 642 313 q 640 271 640 283 q 683 131 640 182 q 817 80 726 80 q 917 96 869 80 q 1016 136 964 113 l 1016 37 q 910 -1 964 12 q 796 -14 856 -14 q 664 15 721 -14 q 581 104 608 44 l 558 0 l 483 0 l 501 143 l 496 143 q 423 62 460 97 q 343 6 386 26 q 248 -14 301 -14 m 285 80 q 361 102 323 80 q 433 163 399 124 q 493 256 467 203 q 536 370 519 309 q 550 444 547 410 q 554 506 554 477 q 524 619 554 576 q 437 662 493 662 q 355 639 394 662 q 285 576 317 616 q 231 483 254 536 q 195 367 208 429 q 183 239 183 305 q 210 120 183 161 q 285 80 237 80 m 659 418 l 677 418 q 837 433 764 418 q 953 483 909 448 q 997 574 997 517 q 970 642 997 620 q 904 663 943 663 q 803 634 851 663 q 718 551 755 606 q 659 418 681 496 z "},"ç":{"ha":629,"x_min":68,"x_max":640,"o":"m 343 -14 q 198 18 260 -14 q 102 111 136 50 q 68 264 68 173 q 85 417 68 344 q 136 552 102 490 q 216 660 169 614 q 325 731 264 706 q 457 757 385 757 q 553 748 505 757 q 640 722 601 739 l 608 627 q 541 651 579 640 q 458 662 502 662 q 346 631 396 662 q 259 544 295 600 q 203 418 222 489 q 183 266 183 347 q 203 166 183 208 q 262 102 224 125 q 354 80 300 80 q 447 94 404 80 q 533 126 491 107 l 533 30 q 448 -1 496 11 q 343 -14 400 -14 m 194 -334 q 159 -331 176 -334 q 130 -326 142 -329 l 130 -258 q 158 -262 144 -261 q 183 -264 172 -264 q 246 -255 220 -264 q 286 -230 272 -247 q 299 -186 299 -212 q 273 -141 299 -156 q 203 -121 247 -126 l 270 0 l 342 0 l 302 -81 q 364 -113 336 -90 q 392 -186 392 -136 q 369 -262 392 -229 q 301 -314 346 -295 q 194 -334 257 -334 z "},"è":{"ha":692,"x_min":68,"x_max":650,"o":"m 337 -14 q 193 20 254 -14 q 101 116 133 54 q 68 267 68 179 q 95 444 68 357 q 170 602 121 531 q 287 715 218 673 q 441 757 356 757 q 597 711 544 757 q 650 585 650 665 q 624 481 650 529 q 544 399 597 434 q 407 345 490 364 q 212 326 325 326 l 186 326 q 184 298 185 313 q 183 271 183 283 q 227 131 183 181 q 357 80 270 80 q 458 95 410 80 q 558 136 506 111 l 558 39 q 457 1 508 16 q 337 -14 406 -14 m 203 418 l 219 418 q 378 433 306 418 q 495 483 451 448 q 539 576 539 518 q 513 639 539 614 q 435 663 488 663 q 342 634 388 663 q 260 551 297 606 q 203 418 223 496 m 463 842 q 408 906 437 868 q 352 983 378 944 q 313 1050 327 1021 l 313 1064 l 433 1064 q 460 994 444 1030 q 496 924 477 958 q 533 859 515 889 l 533 842 l 463 842 z "},"é":{"ha":692,"x_min":68,"x_max":673,"o":"m 337 -14 q 193 20 254 -14 q 101 116 133 54 q 68 267 68 179 q 95 444 68 357 q 170 602 121 531 q 287 715 218 673 q 441 757 356 757 q 597 711 544 757 q 650 585 650 665 q 624 481 650 529 q 544 399 597 434 q 407 345 490 364 q 212 326 325 326 l 186 326 q 184 298 185 313 q 183 271 183 283 q 227 131 183 181 q 357 80 270 80 q 458 95 410 80 q 558 136 506 111 l 558 39 q 457 1 508 16 q 337 -14 406 -14 m 203 418 l 219 418 q 378 433 306 418 q 495 483 451 448 q 539 576 539 518 q 513 639 539 614 q 435 663 488 663 q 342 634 388 663 q 260 551 297 606 q 203 418 223 496 m 386 842 l 386 859 q 440 922 411 886 q 497 995 469 958 q 545 1064 526 1033 l 673 1064 l 673 1050 q 633 1004 659 1031 q 577 946 608 977 q 515 889 546 916 q 456 842 484 861 l 386 842 z "},"ê":{"ha":692,"x_min":68,"x_max":652,"o":"m 337 -14 q 193 20 254 -14 q 101 116 133 54 q 68 267 68 179 q 95 444 68 357 q 170 602 121 531 q 287 715 218 673 q 441 757 356 757 q 597 711 544 757 q 650 585 650 665 q 624 481 650 529 q 544 399 597 434 q 407 345 490 364 q 212 326 325 326 l 186 326 q 184 298 185 313 q 183 271 183 283 q 227 131 183 181 q 357 80 270 80 q 458 95 410 80 q 558 136 506 111 l 558 39 q 457 1 508 16 q 337 -14 406 -14 m 203 418 l 219 418 q 378 433 306 418 q 495 483 451 448 q 539 576 539 518 q 513 639 539 614 q 435 663 488 663 q 342 634 388 663 q 260 551 297 606 q 203 418 223 496 m 234 842 l 235 859 q 297 918 259 881 q 372 994 335 954 q 429 1063 409 1033 l 537 1063 q 571 991 551 1028 q 613 920 591 954 q 652 859 635 886 l 652 842 l 582 842 q 547 879 565 858 q 510 924 528 900 q 473 973 491 948 q 389 902 432 936 q 309 842 347 867 l 234 842 z "},"ë":{"ha":692,"x_min":68,"x_max":656,"o":"m 337 -14 q 193 20 254 -14 q 101 116 133 54 q 68 267 68 179 q 95 444 68 357 q 170 602 121 531 q 287 715 218 673 q 441 757 356 757 q 597 711 544 757 q 650 585 650 665 q 624 481 650 529 q 544 399 597 434 q 407 345 490 364 q 212 326 325 326 l 186 326 q 184 298 185 313 q 183 271 183 283 q 227 131 183 181 q 357 80 270 80 q 458 95 410 80 q 558 136 506 111 l 558 39 q 457 1 508 16 q 337 -14 406 -14 m 203 418 l 219 418 q 378 433 306 418 q 495 483 451 448 q 539 576 539 518 q 513 639 539 614 q 435 663 488 663 q 342 634 388 663 q 260 551 297 606 q 203 418 223 496 m 589 879 q 549 893 565 879 q 534 934 534 907 q 552 987 534 964 q 604 1010 570 1010 q 644 996 631 1010 q 656 958 656 982 q 635 900 656 922 q 589 879 614 879 m 340 879 q 300 893 315 879 q 285 934 285 907 q 302 987 285 964 q 354 1010 320 1010 q 384 1004 372 1010 q 401 986 395 998 q 407 958 407 974 q 387 900 407 922 q 340 879 366 879 z "},"ì":{"ha":351,"x_min":39,"x_max":351,"o":"m 39 0 l 197 743 l 311 743 l 153 0 l 39 0 m 281 842 q 225 906 255 868 q 170 983 195 944 q 130 1050 144 1021 l 130 1064 l 251 1064 q 278 994 262 1030 q 313 924 294 958 q 351 859 332 889 l 351 842 l 281 842 z "},"í":{"ha":351,"x_min":39,"x_max":491,"o":"m 39 0 l 197 743 l 311 743 l 153 0 l 39 0 m 203 842 l 203 859 q 258 922 229 886 q 315 995 287 958 q 363 1064 343 1033 l 491 1064 l 491 1050 q 451 1004 476 1031 q 394 946 425 977 q 332 889 363 916 q 274 842 301 861 l 203 842 z "},"î":{"ha":351,"x_min":39,"x_max":472,"o":"m 39 0 l 197 743 l 311 743 l 153 0 l 39 0 m 54 842 l 54 859 q 117 918 79 881 q 192 994 155 954 q 248 1063 229 1033 l 357 1063 q 391 991 370 1028 q 433 920 411 954 q 472 859 455 886 l 472 842 l 401 842 q 366 879 385 858 q 329 924 348 900 q 293 973 311 948 q 209 902 252 936 q 129 842 166 867 l 54 842 z "},"ï":{"ha":351,"x_min":39,"x_max":475,"o":"m 39 0 l 197 743 l 311 743 l 153 0 l 39 0 m 408 879 q 368 893 384 879 q 353 934 353 907 q 371 987 353 964 q 423 1010 389 1010 q 463 996 450 1010 q 475 958 475 982 q 454 900 475 922 q 408 879 433 879 m 159 879 q 119 893 134 879 q 104 934 104 907 q 121 987 104 964 q 173 1010 139 1010 q 203 1004 191 1010 q 220 986 214 998 q 226 958 226 974 q 205 900 226 922 q 159 879 185 879 z "},"ð":{"ha":789,"x_min":61,"x_max":766,"o":"m 325 -14 q 184 18 243 -14 q 93 110 125 50 q 61 254 61 170 q 85 406 61 334 q 156 534 110 478 q 267 623 202 591 q 414 656 332 656 q 545 621 496 656 q 614 537 593 585 l 618 538 q 598 697 619 621 q 517 848 577 774 l 336 749 l 298 818 l 460 907 q 414 946 439 926 q 361 985 390 966 l 422 1062 q 488 1015 454 1040 q 551 958 521 989 l 725 1056 l 766 987 l 606 898 q 664 803 638 855 q 705 687 690 751 q 720 544 720 623 q 707 385 720 465 q 665 233 694 304 q 591 106 637 162 q 479 18 545 50 q 325 -14 413 -14 m 332 80 q 428 100 386 80 q 499 154 469 121 q 548 229 529 188 q 576 311 567 269 q 585 390 585 353 q 576 451 585 420 q 548 507 567 481 q 496 548 528 532 q 418 563 465 563 q 310 537 355 563 q 234 466 264 511 q 191 367 205 422 q 176 256 176 313 q 213 130 176 179 q 332 80 250 80 z "},"ñ":{"ha":800,"x_min":35,"x_max":768,"o":"m 35 0 l 194 747 l 294 747 l 276 604 l 277 604 q 339 675 303 639 q 424 736 376 711 q 534 761 473 761 q 637 739 594 761 q 703 675 680 717 q 726 574 726 633 q 721 511 726 543 q 711 454 716 479 l 612 0 l 492 0 l 592 469 q 602 522 598 500 q 606 562 606 543 q 580 634 606 610 q 504 659 554 659 q 399 625 454 659 q 298 518 345 591 q 225 328 251 445 l 155 0 l 35 0 m 267 844 q 301 939 279 900 q 354 997 323 977 q 425 1017 385 1017 q 482 1005 455 1017 q 532 977 509 993 q 577 950 556 962 q 616 938 597 938 q 664 956 646 938 q 699 1018 682 974 l 768 1018 q 731 923 753 962 q 678 864 709 884 q 608 844 648 844 q 555 856 581 844 q 507 884 530 868 q 461 912 484 900 q 416 924 439 924 q 369 904 387 924 q 336 844 351 885 l 267 844 z "},"ò":{"ha":782,"x_min":68,"x_max":716,"o":"m 342 -11 q 195 24 257 -11 q 101 123 134 59 q 68 275 68 187 q 83 414 68 345 q 130 544 99 483 q 205 653 160 606 q 309 727 250 700 q 441 753 368 753 q 589 719 528 753 q 683 619 650 684 q 716 467 716 555 q 701 329 716 397 q 655 199 686 260 q 580 91 625 138 q 476 16 535 43 q 342 -11 416 -11 m 349 83 q 429 100 391 83 q 498 152 467 118 q 552 234 530 185 q 588 344 575 282 q 600 479 600 406 q 585 565 600 524 q 534 633 569 606 q 442 660 500 660 q 354 640 395 660 q 282 585 314 621 q 228 500 250 549 q 194 393 206 451 q 182 270 182 334 q 226 132 182 181 q 349 83 269 83 m 475 842 q 420 906 450 868 q 365 983 390 944 q 325 1050 339 1021 l 325 1064 l 446 1064 q 473 994 456 1030 q 508 924 489 958 q 545 859 527 889 l 545 842 l 475 842 z "},"ó":{"ha":782,"x_min":68,"x_max":716,"o":"m 342 -11 q 195 24 257 -11 q 101 123 134 59 q 68 275 68 187 q 83 414 68 345 q 130 544 99 483 q 205 653 160 606 q 309 727 250 700 q 441 753 368 753 q 589 719 528 753 q 683 619 650 684 q 716 467 716 555 q 701 329 716 397 q 655 199 686 260 q 580 91 625 138 q 476 16 535 43 q 342 -11 416 -11 m 349 83 q 429 100 391 83 q 498 152 467 118 q 552 234 530 185 q 588 344 575 282 q 600 479 600 406 q 585 565 600 524 q 534 633 569 606 q 442 660 500 660 q 354 640 395 660 q 282 585 314 621 q 228 500 250 549 q 194 393 206 451 q 182 270 182 334 q 226 132 182 181 q 349 83 269 83 m 399 842 l 399 859 q 453 922 424 886 q 510 995 482 958 q 558 1064 538 1033 l 686 1064 l 686 1050 q 646 1004 671 1031 q 590 946 621 977 q 528 889 559 916 q 469 842 496 861 l 399 842 z "},"ô":{"ha":782,"x_min":68,"x_max":716,"o":"m 342 -11 q 195 24 257 -11 q 101 123 134 59 q 68 275 68 187 q 83 414 68 345 q 130 544 99 483 q 205 653 160 606 q 309 727 250 700 q 441 753 368 753 q 589 719 528 753 q 683 619 650 684 q 716 467 716 555 q 701 329 716 397 q 655 199 686 260 q 580 91 625 138 q 476 16 535 43 q 342 -11 416 -11 m 349 83 q 429 100 391 83 q 498 152 467 118 q 552 234 530 185 q 588 344 575 282 q 600 479 600 406 q 585 565 600 524 q 534 633 569 606 q 442 660 500 660 q 354 640 395 660 q 282 585 314 621 q 228 500 250 549 q 194 393 206 451 q 182 270 182 334 q 226 132 182 181 q 349 83 269 83 m 247 842 l 248 859 q 310 918 272 881 q 385 994 348 954 q 441 1063 422 1033 l 550 1063 q 584 991 564 1028 q 626 920 604 954 q 665 859 648 886 l 665 842 l 595 842 q 559 879 578 858 q 523 924 541 900 q 486 973 504 948 q 402 902 445 936 q 322 842 359 867 l 247 842 z "},"õ":{"ha":782,"x_min":68,"x_max":736,"o":"m 342 -11 q 195 24 257 -11 q 101 123 134 59 q 68 275 68 187 q 83 414 68 345 q 130 544 99 483 q 205 653 160 606 q 309 727 250 700 q 441 753 368 753 q 589 719 528 753 q 683 619 650 684 q 716 467 716 555 q 701 329 716 397 q 655 199 686 260 q 580 91 625 138 q 476 16 535 43 q 342 -11 416 -11 m 349 83 q 429 100 391 83 q 498 152 467 118 q 552 234 530 185 q 588 344 575 282 q 600 479 600 406 q 585 565 600 524 q 534 633 569 606 q 442 660 500 660 q 354 640 395 660 q 282 585 314 621 q 228 500 250 549 q 194 393 206 451 q 182 270 182 334 q 226 132 182 181 q 349 83 269 83 m 235 844 q 269 939 248 900 q 322 997 291 977 q 393 1017 353 1017 q 450 1005 423 1017 q 500 977 477 993 q 545 950 524 962 q 585 938 566 938 q 632 956 614 938 q 667 1018 650 974 l 736 1018 q 699 923 722 962 q 646 864 677 884 q 576 844 616 844 q 524 856 549 844 q 475 884 498 868 q 429 912 452 900 q 384 924 407 924 q 337 904 355 924 q 304 844 319 885 l 235 844 z "},"ö":{"ha":782,"x_min":68,"x_max":716,"o":"m 342 -11 q 195 24 257 -11 q 101 123 134 59 q 68 275 68 187 q 83 414 68 345 q 130 544 99 483 q 205 653 160 606 q 309 727 250 700 q 441 753 368 753 q 589 719 528 753 q 683 619 650 684 q 716 467 716 555 q 701 329 716 397 q 655 199 686 260 q 580 91 625 138 q 476 16 535 43 q 342 -11 416 -11 m 349 83 q 429 100 391 83 q 498 152 467 118 q 552 234 530 185 q 588 344 575 282 q 600 479 600 406 q 585 565 600 524 q 534 633 569 606 q 442 660 500 660 q 354 640 395 660 q 282 585 314 621 q 228 500 250 549 q 194 393 206 451 q 182 270 182 334 q 226 132 182 181 q 349 83 269 83 m 604 879 q 564 893 580 879 q 549 934 549 907 q 567 987 549 964 q 619 1010 585 1010 q 659 996 646 1010 q 671 958 671 982 q 650 900 671 922 q 604 879 629 879 m 355 879 q 315 893 330 879 q 300 934 300 907 q 317 987 300 964 q 369 1010 335 1010 q 399 1004 387 1010 q 416 986 410 998 q 422 958 422 974 q 401 900 422 922 q 355 879 381 879 z "},"÷":{"ha":794,"x_min":98,"x_max":751,"o":"m 98 444 l 98 536 l 751 536 l 751 444 l 98 444 m 424 172 q 372 191 393 172 q 351 252 351 210 q 372 313 351 296 q 424 331 393 331 q 475 313 454 331 q 496 252 496 296 q 475 191 496 210 q 424 172 454 172 m 424 648 q 372 667 393 648 q 351 728 351 686 q 372 789 351 771 q 424 806 393 806 q 475 789 454 806 q 496 728 496 771 q 475 667 496 686 q 424 648 454 648 z "},"ø":{"ha":782,"x_min":35,"x_max":754,"o":"m 104 -52 l 35 2 l 115 98 q 80 177 92 134 q 68 275 68 221 q 84 414 68 345 q 130 544 100 483 q 205 653 160 606 q 309 727 250 700 q 441 753 368 753 q 537 741 495 753 q 613 705 580 728 l 686 791 l 754 740 l 672 650 q 704 570 694 617 q 713 477 713 524 q 699 338 713 408 q 654 205 684 268 q 579 94 624 143 q 476 17 535 45 q 344 -11 417 -11 q 251 1 294 -11 q 175 37 208 14 l 104 -52 m 349 80 q 430 98 391 80 q 500 149 468 115 q 555 229 532 182 q 591 336 578 276 q 604 466 604 396 q 602 512 604 490 q 593 546 599 533 l 239 115 q 287 89 258 98 q 349 80 316 80 m 191 191 l 549 625 q 506 650 532 640 q 442 661 481 661 q 354 641 395 661 q 281 586 313 621 q 225 503 248 551 q 190 399 202 456 q 178 281 178 343 q 181 229 178 252 q 191 191 185 205 z "},"ù":{"ha":800,"x_min":77,"x_max":758,"o":"m 262 -14 q 164 7 206 -14 q 99 70 122 28 q 77 170 77 111 q 81 228 77 200 q 91 287 85 256 l 189 743 l 303 743 l 202 274 q 194 222 197 245 q 191 182 191 199 q 215 107 191 134 q 294 80 240 80 q 401 115 345 80 q 505 223 457 149 q 578 416 553 298 l 647 743 l 758 743 l 601 0 l 508 0 l 526 144 l 520 144 q 458 72 494 109 q 373 11 421 36 q 262 -14 325 -14 m 507 842 q 451 906 481 868 q 396 983 421 944 q 356 1050 370 1021 l 356 1064 l 477 1064 q 504 994 488 1030 q 539 924 520 958 q 576 859 558 889 l 576 842 l 507 842 z "},"ú":{"ha":800,"x_min":77,"x_max":758,"o":"m 262 -14 q 164 7 206 -14 q 99 70 122 28 q 77 170 77 111 q 81 228 77 200 q 91 287 85 256 l 189 743 l 303 743 l 202 274 q 194 222 197 245 q 191 182 191 199 q 215 107 191 134 q 294 80 240 80 q 401 115 345 80 q 505 223 457 149 q 578 416 553 298 l 647 743 l 758 743 l 601 0 l 508 0 l 526 144 l 520 144 q 458 72 494 109 q 373 11 421 36 q 262 -14 325 -14 m 429 842 l 429 859 q 483 922 454 886 q 540 995 512 958 q 588 1064 568 1033 l 716 1064 l 716 1050 q 676 1004 701 1031 q 620 946 650 977 q 557 889 589 916 q 499 842 526 861 l 429 842 z "},"û":{"ha":800,"x_min":77,"x_max":758,"o":"m 262 -14 q 164 7 206 -14 q 99 70 122 28 q 77 170 77 111 q 81 228 77 200 q 91 287 85 256 l 189 743 l 303 743 l 202 274 q 194 222 197 245 q 191 182 191 199 q 215 107 191 134 q 294 80 240 80 q 401 115 345 80 q 505 223 457 149 q 578 416 553 298 l 647 743 l 758 743 l 601 0 l 508 0 l 526 144 l 520 144 q 458 72 494 109 q 373 11 421 36 q 262 -14 325 -14 m 277 842 l 278 859 q 340 918 302 881 q 415 994 378 954 q 472 1063 452 1033 l 581 1063 q 614 991 594 1028 q 657 920 635 954 q 696 859 679 886 l 696 842 l 625 842 q 590 879 608 858 q 553 924 572 900 q 517 973 534 948 q 433 902 475 936 q 353 842 390 867 l 277 842 z "},"ü":{"ha":800,"x_min":77,"x_max":758,"o":"m 262 -14 q 164 7 206 -14 q 99 70 122 28 q 77 170 77 111 q 81 228 77 200 q 91 287 85 256 l 189 743 l 303 743 l 202 274 q 194 222 197 245 q 191 182 191 199 q 215 107 191 134 q 294 80 240 80 q 401 115 345 80 q 505 223 457 149 q 578 416 553 298 l 647 743 l 758 743 l 601 0 l 508 0 l 526 144 l 520 144 q 458 72 494 109 q 373 11 421 36 q 262 -14 325 -14 m 633 879 q 593 893 609 879 q 578 934 578 907 q 596 987 578 964 q 648 1010 614 1010 q 688 996 675 1010 q 701 958 701 982 q 680 900 701 922 q 633 879 659 879 m 385 879 q 344 893 359 879 q 329 934 329 907 q 347 987 329 964 q 398 1010 364 1010 q 428 1004 416 1010 q 445 986 439 998 q 451 958 451 974 q 431 900 451 922 q 385 879 410 879 z "},"ý":{"ha":640,"x_min":-134,"x_max":707,"o":"m -39 -334 q -93 -330 -73 -334 q -134 -320 -114 -326 l -134 -229 q -93 -237 -115 -233 q -45 -241 -71 -241 q 50 -205 10 -241 q 128 -102 90 -170 l 180 -9 l 66 743 l 180 743 l 232 361 q 243 266 239 317 q 249 169 247 214 q 251 94 251 123 l 255 94 q 283 159 264 117 q 324 248 302 201 q 363 325 346 294 l 586 743 l 707 743 l 231 -129 q 156 -242 194 -197 q 71 -311 117 -288 q -39 -334 24 -334 m 323 842 l 323 859 q 378 922 349 886 q 435 995 407 958 q 483 1064 463 1033 l 611 1064 l 611 1050 q 571 1004 596 1031 q 514 946 545 977 q 452 889 484 916 q 394 842 421 861 l 323 842 z "},"þ":{"ha":802,"x_min":-30,"x_max":733,"o":"m -30 -332 l 263 1055 l 376 1055 l 321 801 q 295 691 309 743 q 271 599 282 639 l 276 599 q 347 676 309 641 q 430 734 385 712 q 529 755 475 755 q 677 690 622 755 q 733 500 733 625 q 718 346 733 421 q 671 205 702 271 q 597 91 641 140 q 496 14 553 42 q 370 -14 439 -14 q 280 5 319 -14 q 215 54 241 24 q 174 120 189 85 l 168 120 q 161 55 167 96 q 149 -13 155 14 l 81 -332 l -30 -332 m 361 80 q 448 104 408 80 q 519 169 488 127 q 573 264 551 210 q 606 379 595 318 q 618 503 618 440 q 586 622 618 582 q 492 662 555 662 q 388 623 441 662 q 292 516 335 584 q 229 364 250 449 q 217 301 221 333 q 214 237 214 269 q 250 123 214 166 q 361 80 286 80 z "},"ÿ":{"ha":640,"x_min":-134,"x_max":707,"o":"m -39 -334 q -93 -330 -73 -334 q -134 -320 -114 -326 l -134 -229 q -93 -237 -115 -233 q -45 -241 -71 -241 q 50 -205 10 -241 q 128 -102 90 -170 l 180 -9 l 66 743 l 180 743 l 232 361 q 243 266 239 317 q 249 169 247 214 q 251 94 251 123 l 255 94 q 283 159 264 117 q 324 248 302 201 q 363 325 346 294 l 586 743 l 707 743 l 231 -129 q 156 -242 194 -197 q 71 -311 117 -288 q -39 -334 24 -334 m 528 879 q 489 893 505 879 q 473 934 473 907 q 491 987 473 964 q 544 1010 509 1010 q 583 996 570 1010 q 596 958 596 982 q 575 900 596 922 q 528 879 554 879 m 280 879 q 240 893 255 879 q 224 934 224 907 q 242 987 224 964 q 294 1010 260 1010 q 323 1004 312 1010 q 341 986 335 998 q 347 958 347 974 q 326 900 347 922 q 280 879 306 879 z "},"Ā":{"ha":779,"x_min":-78,"x_max":741,"o":"m -78 0 l 465 991 l 585 991 l 711 0 l 597 0 l 558 316 l 216 316 l 47 0 l -78 0 m 271 418 l 547 418 l 520 650 q 510 760 515 700 q 503 867 505 820 l 499 867 q 450 759 477 816 q 392 645 422 703 l 271 418 m 353 1092 l 372 1183 l 741 1183 l 722 1092 l 353 1092 z "},"ā":{"ha":785,"x_min":67,"x_max":758,"o":"m 269 -14 q 163 16 208 -14 q 92 102 117 45 q 67 241 67 159 q 84 399 67 323 q 134 540 102 475 q 211 654 165 605 q 312 730 256 703 q 433 757 368 757 q 520 738 484 757 q 582 688 557 719 q 621 623 607 657 l 628 623 l 671 743 l 758 743 l 600 0 l 510 0 l 530 144 l 525 144 q 455 67 494 103 q 369 9 416 31 q 269 -14 322 -14 m 305 80 q 409 118 357 80 q 501 222 460 157 q 564 370 542 288 q 578 443 574 410 q 582 506 582 477 q 545 619 582 576 q 444 662 508 662 q 359 639 399 662 q 287 576 319 616 q 231 483 254 536 q 196 367 208 429 q 183 239 183 304 q 215 120 183 161 q 305 80 247 80 m 302 843 l 321 935 l 691 935 l 672 843 l 302 843 z "},"Ă":{"ha":779,"x_min":-78,"x_max":761,"o":"m -78 0 l 465 991 l 585 991 l 711 0 l 597 0 l 558 316 l 216 316 l 47 0 l -78 0 m 271 418 l 547 418 l 520 650 q 510 760 515 700 q 503 867 505 820 l 499 867 q 450 759 477 816 q 392 645 422 703 l 271 418 m 539 1090 q 452 1108 490 1090 q 392 1160 414 1126 q 370 1243 370 1194 q 371 1258 370 1251 q 372 1274 371 1265 l 440 1274 q 450 1226 439 1246 q 484 1196 460 1206 q 550 1185 509 1185 q 646 1209 614 1185 q 689 1274 678 1233 l 761 1274 q 682 1133 738 1176 q 539 1090 625 1090 z "},"ă":{"ha":785,"x_min":67,"x_max":758,"o":"m 269 -14 q 163 16 208 -14 q 92 102 117 45 q 67 241 67 159 q 84 399 67 323 q 134 540 102 475 q 211 654 165 605 q 312 730 256 703 q 433 757 368 757 q 520 738 484 757 q 582 688 557 719 q 621 623 607 657 l 628 623 l 671 743 l 758 743 l 600 0 l 510 0 l 530 144 l 525 144 q 455 67 494 103 q 369 9 416 31 q 269 -14 322 -14 m 305 80 q 409 118 357 80 q 501 222 460 157 q 564 370 542 288 q 578 443 574 410 q 582 506 582 477 q 545 619 582 576 q 444 662 508 662 q 359 639 399 662 q 287 576 319 616 q 231 483 254 536 q 196 367 208 429 q 183 239 183 304 q 215 120 183 161 q 305 80 247 80 m 489 842 q 402 859 440 842 q 342 911 363 877 q 320 994 320 945 q 320 1009 320 1002 q 321 1025 321 1017 l 390 1025 q 399 978 389 998 q 434 947 410 958 q 500 936 458 936 q 596 960 564 936 q 639 1025 628 984 l 711 1025 q 631 884 688 927 q 489 842 575 842 z "},"Ą":{"ha":779,"x_min":-78,"x_max":711,"o":"m -78 0 l 465 991 l 585 991 l 711 0 l 597 0 l 558 316 l 216 316 l 47 0 l -78 0 m 271 418 l 547 418 l 520 650 q 510 760 515 700 q 503 867 505 820 l 499 867 q 450 759 477 816 q 392 645 422 703 l 271 418 m 573 -301 q 487 -275 522 -301 q 453 -193 453 -248 q 473 -115 453 -149 q 526 -52 492 -81 q 601 2 559 -24 l 679 0 q 620 -49 651 -22 q 567 -108 589 -76 q 545 -178 545 -140 q 558 -214 545 -203 q 593 -226 572 -226 q 623 -224 609 -226 q 650 -220 637 -222 l 650 -292 q 613 -299 633 -296 q 573 -301 593 -301 z "},"ą":{"ha":785,"x_min":67,"x_max":758,"o":"m 269 -14 q 163 16 208 -14 q 92 102 117 45 q 67 241 67 159 q 84 399 67 323 q 134 540 102 475 q 211 654 165 605 q 312 730 256 703 q 433 757 368 757 q 520 738 484 757 q 582 688 557 719 q 621 623 607 657 l 628 623 l 671 743 l 758 743 l 600 0 l 510 0 l 530 144 l 525 144 q 455 67 494 103 q 369 9 416 31 q 269 -14 322 -14 m 305 80 q 409 118 357 80 q 501 222 460 157 q 564 370 542 288 q 578 443 574 410 q 582 506 582 477 q 545 619 582 576 q 444 662 508 662 q 359 639 399 662 q 287 576 319 616 q 231 483 254 536 q 196 367 208 429 q 183 239 183 304 q 215 120 183 161 q 305 80 247 80 m 484 -301 q 398 -275 432 -301 q 363 -193 363 -248 q 383 -115 363 -149 q 436 -52 403 -81 q 511 2 470 -24 l 589 0 q 530 -49 562 -22 q 477 -108 499 -76 q 456 -178 456 -140 q 469 -214 456 -203 q 504 -226 482 -226 q 533 -224 519 -226 q 560 -220 547 -222 l 560 -292 q 523 -299 543 -296 q 484 -301 503 -301 z "},"Ć":{"ha":817,"x_min":102,"x_max":878,"o":"m 453 -14 q 264 33 342 -14 q 144 164 186 79 q 102 366 102 249 q 123 550 102 458 q 188 724 145 642 q 296 869 231 806 q 446 969 360 932 q 638 1006 532 1006 q 767 992 709 1006 q 878 951 826 979 l 832 855 q 746 890 793 876 q 638 904 699 904 q 488 874 555 904 q 372 791 422 844 q 289 670 322 739 q 240 525 256 602 q 223 369 223 448 q 289 163 223 239 q 473 87 355 87 q 587 99 532 87 q 694 128 642 111 l 694 28 q 586 -2 642 9 q 453 -14 530 -14 m 566 1090 l 566 1107 q 620 1171 591 1135 q 677 1244 649 1206 q 725 1313 705 1282 l 853 1313 l 853 1299 q 813 1253 838 1280 q 756 1195 787 1225 q 694 1138 726 1165 q 636 1090 663 1110 l 566 1090 z "},"ć":{"ha":629,"x_min":68,"x_max":662,"o":"m 343 -14 q 198 18 260 -14 q 102 111 136 50 q 68 264 68 173 q 85 417 68 344 q 136 552 102 490 q 216 660 169 614 q 325 731 264 706 q 457 757 385 757 q 553 748 505 757 q 640 722 601 739 l 608 627 q 541 651 579 640 q 458 662 502 662 q 346 631 396 662 q 259 544 295 600 q 203 418 222 489 q 183 266 183 347 q 203 166 183 208 q 262 102 224 125 q 354 80 300 80 q 447 94 404 80 q 533 126 491 107 l 533 30 q 448 -1 496 11 q 343 -14 400 -14 m 374 842 l 374 859 q 429 922 399 886 q 486 995 458 958 q 534 1064 514 1033 l 662 1064 l 662 1050 q 622 1004 647 1031 q 565 946 596 977 q 503 889 534 916 q 445 842 472 861 l 374 842 z "},"Ĉ":{"ha":817,"x_min":102,"x_max":878,"o":"m 453 -14 q 264 33 342 -14 q 144 164 186 79 q 102 366 102 249 q 123 550 102 458 q 188 724 145 642 q 296 869 231 806 q 446 969 360 932 q 638 1006 532 1006 q 767 992 709 1006 q 878 951 826 979 l 832 855 q 746 890 793 876 q 638 904 699 904 q 488 874 555 904 q 372 791 422 844 q 289 670 322 739 q 240 525 256 602 q 223 369 223 448 q 289 163 223 239 q 473 87 355 87 q 587 99 532 87 q 694 128 642 111 l 694 28 q 586 -2 642 9 q 453 -14 530 -14 m 418 1090 l 419 1107 q 481 1166 444 1130 q 556 1242 519 1203 q 613 1312 593 1282 l 722 1312 q 755 1240 735 1277 q 798 1169 776 1203 q 837 1107 820 1135 l 837 1090 l 766 1090 q 731 1128 749 1107 q 694 1173 713 1149 q 658 1222 675 1197 q 574 1151 616 1185 q 494 1090 531 1116 l 418 1090 z "},"ĉ":{"ha":629,"x_min":68,"x_max":643,"o":"m 343 -14 q 198 18 260 -14 q 102 111 136 50 q 68 264 68 173 q 85 417 68 344 q 136 552 102 490 q 216 660 169 614 q 325 731 264 706 q 457 757 385 757 q 553 748 505 757 q 640 722 601 739 l 608 627 q 541 651 579 640 q 458 662 502 662 q 346 631 396 662 q 259 544 295 600 q 203 418 222 489 q 183 266 183 347 q 203 166 183 208 q 262 102 224 125 q 354 80 300 80 q 447 94 404 80 q 533 126 491 107 l 533 30 q 448 -1 496 11 q 343 -14 400 -14 m 224 842 l 225 859 q 288 918 250 881 q 362 994 326 954 q 419 1063 399 1033 l 528 1063 q 562 991 541 1028 q 604 920 582 954 q 643 859 626 886 l 643 842 l 572 842 q 537 879 555 858 q 500 924 519 900 q 464 973 481 948 q 380 902 422 936 q 300 842 337 867 l 224 842 z "},"Ċ":{"ha":817,"x_min":102,"x_max":878,"o":"m 453 -14 q 264 33 342 -14 q 144 164 186 79 q 102 366 102 249 q 123 550 102 458 q 188 724 145 642 q 296 869 231 806 q 446 969 360 932 q 638 1006 532 1006 q 767 992 709 1006 q 878 951 826 979 l 832 855 q 746 890 793 876 q 638 904 699 904 q 488 874 555 904 q 372 791 422 844 q 289 670 322 739 q 240 525 256 602 q 223 369 223 448 q 289 163 223 239 q 473 87 355 87 q 587 99 532 87 q 694 128 642 111 l 694 28 q 586 -2 642 9 q 453 -14 530 -14 m 650 1122 q 606 1138 624 1122 q 587 1183 587 1154 q 608 1243 587 1217 q 665 1269 629 1269 q 699 1262 686 1269 q 719 1241 712 1255 q 726 1210 726 1228 q 702 1146 726 1170 q 650 1122 679 1122 z "},"ċ":{"ha":629,"x_min":68,"x_max":640,"o":"m 343 -14 q 198 18 260 -14 q 102 111 136 50 q 68 264 68 173 q 85 417 68 344 q 136 552 102 490 q 216 660 169 614 q 325 731 264 706 q 457 757 385 757 q 553 748 505 757 q 640 722 601 739 l 608 627 q 541 651 579 640 q 458 662 502 662 q 346 631 396 662 q 259 544 295 600 q 203 418 222 489 q 183 266 183 347 q 203 166 183 208 q 262 102 224 125 q 354 80 300 80 q 447 94 404 80 q 533 126 491 107 l 533 30 q 448 -1 496 11 q 343 -14 400 -14 m 456 873 q 412 889 430 873 q 393 935 393 905 q 414 994 393 968 q 471 1020 435 1020 q 505 1013 492 1020 q 525 992 518 1006 q 532 961 532 979 q 508 897 532 921 q 456 873 485 873 z "},"Č":{"ha":817,"x_min":102,"x_max":885,"o":"m 453 -14 q 264 33 342 -14 q 144 164 186 79 q 102 366 102 249 q 123 550 102 458 q 188 724 145 642 q 296 869 231 806 q 446 969 360 932 q 638 1006 532 1006 q 767 992 709 1006 q 878 951 826 979 l 832 855 q 746 890 793 876 q 638 904 699 904 q 488 874 555 904 q 372 791 422 844 q 289 670 322 739 q 240 525 256 602 q 223 369 223 448 q 289 163 223 239 q 473 87 355 87 q 587 99 532 87 q 694 128 642 111 l 694 28 q 586 -2 642 9 q 453 -14 530 -14 m 579 1090 q 547 1162 567 1126 q 505 1234 527 1199 q 466 1295 484 1268 l 466 1312 l 534 1312 q 571 1276 553 1297 q 608 1230 589 1255 q 643 1181 626 1206 q 729 1253 685 1219 q 810 1312 772 1287 l 885 1312 l 884 1295 q 822 1237 860 1274 q 746 1161 783 1200 q 688 1090 709 1122 l 579 1090 z "},"č":{"ha":629,"x_min":68,"x_max":694,"o":"m 343 -14 q 198 18 260 -14 q 102 111 136 50 q 68 264 68 173 q 85 417 68 344 q 136 552 102 490 q 216 660 169 614 q 325 731 264 706 q 457 757 385 757 q 553 748 505 757 q 640 722 601 739 l 608 627 q 541 651 579 640 q 458 662 502 662 q 346 631 396 662 q 259 544 295 600 q 203 418 222 489 q 183 266 183 347 q 203 166 183 208 q 262 102 224 125 q 354 80 300 80 q 447 94 404 80 q 533 126 491 107 l 533 30 q 448 -1 496 11 q 343 -14 400 -14 m 389 842 q 356 913 376 877 q 315 985 336 950 q 275 1046 293 1019 l 275 1063 l 344 1063 q 380 1027 362 1048 q 417 981 399 1006 q 452 932 435 957 q 538 1004 494 970 q 620 1063 582 1038 l 694 1063 l 694 1046 q 631 988 669 1025 q 555 912 593 951 q 498 842 518 873 l 389 842 z "},"Ď":{"ha":928,"x_min":58,"x_max":884,"o":"m 58 0 l 268 991 l 499 991 q 782 894 680 991 q 884 595 884 797 q 859 404 884 494 q 787 239 835 313 q 668 112 739 165 q 505 29 597 58 q 298 0 412 0 l 58 0 m 193 99 l 304 99 q 467 124 394 99 q 594 194 539 149 q 687 301 650 239 q 744 438 725 363 q 763 597 763 513 q 687 823 763 753 q 484 893 612 893 l 362 893 l 193 99 m 555 1090 q 523 1162 543 1126 q 481 1234 503 1199 q 442 1295 460 1268 l 442 1312 l 511 1312 q 547 1276 529 1297 q 584 1230 566 1255 q 619 1181 602 1206 q 705 1253 661 1219 q 787 1312 749 1287 l 861 1312 l 861 1295 q 798 1237 836 1274 q 722 1161 760 1200 q 665 1090 685 1122 l 555 1090 z "},"ď":{"ha":845,"x_min":66,"x_max":1053,"o":"m 269 -14 q 162 15 208 -14 q 92 100 117 43 q 66 241 66 157 q 83 396 66 321 q 130 537 99 472 q 205 651 161 602 q 308 728 250 701 q 433 755 365 755 q 523 736 486 755 q 585 687 560 718 q 624 623 610 657 l 631 623 q 639 683 635 654 q 649 743 643 713 q 662 806 654 774 l 714 1055 l 826 1055 l 602 0 l 509 0 l 528 144 l 523 144 q 452 66 490 102 q 368 8 414 30 q 269 -14 323 -14 m 307 80 q 371 96 338 80 q 435 140 404 111 q 494 208 467 169 q 542 295 521 248 q 574 395 562 342 q 585 505 585 448 q 551 619 585 576 q 440 662 516 662 q 354 638 393 662 q 282 573 314 614 q 228 478 250 532 q 194 362 206 424 q 182 239 182 301 q 214 120 182 161 q 307 80 245 80 m 844 833 l 844 850 q 879 910 859 873 q 917 986 899 947 q 946 1055 935 1025 l 1053 1055 l 1053 1042 q 1020 981 1044 1019 q 966 903 996 943 q 906 833 936 863 l 844 833 z "},"Đ":{"ha":928,"x_min":47,"x_max":884,"o":"m 58 0 l 150 441 l 47 441 l 69 541 l 172 541 l 268 991 l 499 991 q 782 894 680 991 q 884 595 884 797 q 859 404 884 494 q 787 239 835 313 q 668 112 739 165 q 505 29 597 58 q 298 0 412 0 l 58 0 m 193 99 l 304 99 q 467 124 394 99 q 594 194 539 149 q 687 301 650 239 q 744 438 725 363 q 763 597 763 513 q 687 823 763 753 q 484 893 612 893 l 362 893 l 287 541 l 511 541 l 489 441 l 265 441 l 193 99 z "},"đ":{"ha":802,"x_min":67,"x_max":901,"o":"m 270 -14 q 164 15 210 -14 q 93 101 118 44 q 67 241 67 157 q 83 396 67 321 q 129 537 98 472 q 204 652 159 603 q 305 729 248 701 q 431 757 362 757 q 522 738 484 757 q 585 689 559 720 q 625 625 610 659 l 631 625 q 637 665 634 643 q 643 710 640 687 q 651 755 647 734 l 669 843 l 414 843 l 431 928 l 690 928 l 715 1055 l 827 1055 l 800 928 l 901 928 l 883 843 l 781 843 l 603 0 l 510 0 l 528 144 l 524 144 q 453 66 491 102 q 370 8 415 30 q 270 -14 324 -14 m 308 80 q 373 96 340 80 q 437 141 406 112 q 495 209 469 170 q 543 296 522 248 q 574 396 563 343 q 586 505 586 450 q 550 621 586 578 q 440 663 515 663 q 353 640 393 663 q 282 574 313 616 q 228 478 250 532 q 195 362 206 424 q 183 239 183 301 q 215 120 183 161 q 308 80 246 80 z "},"Ē":{"ha":718,"x_min":58,"x_max":770,"o":"m 58 0 l 268 991 l 770 991 l 749 890 l 361 890 l 292 569 l 656 569 l 636 469 l 272 469 l 193 102 l 582 102 l 560 0 l 58 0 m 346 1092 l 365 1183 l 734 1183 l 715 1092 l 346 1092 z "},"ē":{"ha":692,"x_min":68,"x_max":653,"o":"m 337 -14 q 193 20 254 -14 q 101 116 133 54 q 68 267 68 179 q 95 444 68 357 q 170 602 121 531 q 287 715 218 673 q 441 757 356 757 q 597 711 544 757 q 650 585 650 665 q 624 481 650 529 q 544 399 597 434 q 407 345 490 364 q 212 326 325 326 l 186 326 q 184 298 185 313 q 183 271 183 283 q 227 131 183 181 q 357 80 270 80 q 458 95 410 80 q 558 136 506 111 l 558 39 q 457 1 508 16 q 337 -14 406 -14 m 203 418 l 219 418 q 378 433 306 418 q 495 483 451 448 q 539 576 539 518 q 513 639 539 614 q 435 663 488 663 q 342 634 388 663 q 260 551 297 606 q 203 418 223 496 m 264 843 l 283 935 l 653 935 l 634 843 l 264 843 z "},"Ĕ":{"ha":718,"x_min":58,"x_max":770,"o":"m 58 0 l 268 991 l 770 991 l 749 890 l 361 890 l 292 569 l 656 569 l 636 469 l 272 469 l 193 102 l 582 102 l 560 0 l 58 0 m 532 1090 q 445 1108 484 1090 q 385 1160 407 1126 q 363 1243 363 1194 q 364 1258 363 1251 q 365 1274 364 1265 l 433 1274 q 443 1226 433 1246 q 477 1196 453 1206 q 543 1185 502 1185 q 639 1209 607 1185 q 682 1274 671 1233 l 754 1274 q 675 1133 731 1176 q 532 1090 618 1090 z "},"ĕ":{"ha":692,"x_min":68,"x_max":675,"o":"m 337 -14 q 193 20 254 -14 q 101 116 133 54 q 68 267 68 179 q 95 444 68 357 q 170 602 121 531 q 287 715 218 673 q 441 757 356 757 q 597 711 544 757 q 650 585 650 665 q 624 481 650 529 q 544 399 597 434 q 407 345 490 364 q 212 326 325 326 l 186 326 q 184 298 185 313 q 183 271 183 283 q 227 131 183 181 q 357 80 270 80 q 458 95 410 80 q 558 136 506 111 l 558 39 q 457 1 508 16 q 337 -14 406 -14 m 203 418 l 219 418 q 378 433 306 418 q 495 483 451 448 q 539 576 539 518 q 513 639 539 614 q 435 663 488 663 q 342 634 388 663 q 260 551 297 606 q 203 418 223 496 m 453 842 q 366 859 404 842 q 306 911 328 877 q 284 994 284 945 q 284 1009 284 1002 q 286 1025 285 1017 l 354 1025 q 363 978 353 998 q 398 947 374 958 q 464 936 422 936 q 560 960 528 936 q 603 1025 592 984 l 675 1025 q 595 884 652 927 q 453 842 539 842 z "},"Ė":{"ha":718,"x_min":58,"x_max":770,"o":"m 58 0 l 268 991 l 770 991 l 749 890 l 361 890 l 292 569 l 656 569 l 636 469 l 272 469 l 193 102 l 582 102 l 560 0 l 58 0 m 547 1122 q 503 1138 521 1122 q 484 1183 484 1154 q 505 1243 484 1217 q 562 1269 526 1269 q 596 1262 583 1269 q 616 1241 609 1255 q 623 1210 623 1228 q 599 1146 623 1170 q 547 1122 576 1122 z "},"ė":{"ha":692,"x_min":68,"x_max":650,"o":"m 337 -14 q 193 20 254 -14 q 101 116 133 54 q 68 267 68 179 q 95 444 68 357 q 170 602 121 531 q 287 715 218 673 q 441 757 356 757 q 597 711 544 757 q 650 585 650 665 q 624 481 650 529 q 544 399 597 434 q 407 345 490 364 q 212 326 325 326 l 186 326 q 184 298 185 313 q 183 271 183 283 q 227 131 183 181 q 357 80 270 80 q 458 95 410 80 q 558 136 506 111 l 558 39 q 457 1 508 16 q 337 -14 406 -14 m 203 418 l 219 418 q 378 433 306 418 q 495 483 451 448 q 539 576 539 518 q 513 639 539 614 q 435 663 488 663 q 342 634 388 663 q 260 551 297 606 q 203 418 223 496 m 466 873 q 421 889 439 873 q 403 935 403 905 q 424 994 403 968 q 481 1020 444 1020 q 514 1013 501 1020 q 534 992 528 1006 q 541 961 541 979 q 518 897 541 921 q 466 873 494 873 z "},"Ę":{"ha":718,"x_min":58,"x_max":770,"o":"m 58 0 l 268 991 l 770 991 l 749 890 l 361 890 l 292 569 l 656 569 l 636 469 l 272 469 l 193 102 l 582 102 l 560 0 l 58 0 m 416 -301 q 331 -275 365 -301 q 296 -193 296 -248 q 316 -115 296 -149 q 369 -52 336 -81 q 444 2 403 -24 l 522 0 q 463 -49 494 -22 q 410 -108 432 -76 q 389 -178 389 -140 q 402 -214 389 -203 q 437 -226 415 -226 q 466 -224 452 -226 q 493 -220 480 -222 l 493 -292 q 456 -299 476 -296 q 416 -301 436 -301 z "},"ę":{"ha":692,"x_min":67,"x_max":648,"o":"m 393 -300 q 307 -273 342 -300 q 273 -191 273 -246 q 292 -113 273 -146 q 346 -51 312 -79 q 420 3 379 -22 l 529 32 q 452 -34 490 0 q 390 -103 414 -68 q 366 -177 366 -139 q 379 -213 366 -201 q 414 -224 391 -224 q 443 -222 429 -224 q 470 -218 458 -220 l 470 -290 q 433 -297 453 -295 q 393 -300 412 -300 m 336 -14 q 192 20 252 -14 q 99 116 132 54 q 67 267 67 179 q 93 444 67 357 q 168 602 119 531 q 286 715 217 673 q 440 757 355 757 q 595 711 543 757 q 648 585 648 665 q 622 481 648 529 q 542 399 596 434 q 406 345 488 364 q 211 326 323 326 l 185 326 q 183 298 184 313 q 182 271 182 283 q 225 131 182 181 q 355 80 269 80 q 457 95 409 80 q 557 136 505 111 l 557 39 q 456 1 507 16 q 336 -14 405 -14 m 201 418 l 218 418 q 377 433 304 418 q 494 483 450 448 q 538 576 538 518 q 512 639 538 614 q 433 663 486 663 q 341 634 387 663 q 259 551 296 606 q 201 418 222 496 z "},"Ě":{"ha":718,"x_min":58,"x_max":781,"o":"m 58 0 l 268 991 l 770 991 l 749 890 l 361 890 l 292 569 l 656 569 l 636 469 l 272 469 l 193 102 l 582 102 l 560 0 l 58 0 m 475 1090 q 443 1162 463 1126 q 401 1234 423 1199 q 362 1295 380 1268 l 362 1312 l 431 1312 q 467 1276 449 1297 q 504 1230 486 1255 q 539 1181 522 1206 q 625 1253 581 1219 q 707 1312 669 1287 l 781 1312 l 781 1295 q 718 1237 756 1274 q 642 1161 680 1200 q 585 1090 605 1122 l 475 1090 z "},"ě":{"ha":692,"x_min":68,"x_max":703,"o":"m 337 -14 q 193 20 254 -14 q 101 116 133 54 q 68 267 68 179 q 95 444 68 357 q 170 602 121 531 q 287 715 218 673 q 441 757 356 757 q 597 711 544 757 q 650 585 650 665 q 624 481 650 529 q 544 399 597 434 q 407 345 490 364 q 212 326 325 326 l 186 326 q 184 298 185 313 q 183 271 183 283 q 227 131 183 181 q 357 80 270 80 q 458 95 410 80 q 558 136 506 111 l 558 39 q 457 1 508 16 q 337 -14 406 -14 m 203 418 l 219 418 q 378 433 306 418 q 495 483 451 448 q 539 576 539 518 q 513 639 539 614 q 435 663 488 663 q 342 634 388 663 q 260 551 297 606 q 203 418 223 496 m 397 842 q 365 913 385 877 q 323 985 345 950 q 283 1046 301 1019 l 283 1063 l 352 1063 q 389 1027 370 1048 q 425 981 407 1006 q 460 932 444 957 q 546 1004 503 970 q 628 1063 590 1038 l 703 1063 l 702 1046 q 639 988 677 1025 q 564 912 601 951 q 506 842 526 873 l 397 842 z "},"Ĝ":{"ha":944,"x_min":102,"x_max":922,"o":"m 475 -14 q 200 85 299 -14 q 102 361 102 184 q 127 568 102 471 q 199 746 152 665 q 312 884 246 826 q 460 974 378 943 q 636 1006 542 1006 q 793 990 725 1006 q 922 947 861 975 l 878 847 q 766 887 826 871 q 635 904 705 904 q 472 865 547 904 q 341 754 397 826 q 254 584 286 682 q 223 368 223 486 q 252 223 223 287 q 339 124 281 160 q 486 87 397 87 q 588 96 541 87 q 668 115 635 104 l 734 418 l 530 418 l 552 518 l 870 518 l 766 39 q 632 1 703 16 q 475 -14 561 -14 m 445 1090 l 446 1107 q 508 1166 470 1130 q 583 1242 546 1203 q 640 1312 620 1282 l 748 1312 q 782 1240 762 1277 q 824 1169 802 1203 q 863 1107 846 1135 l 863 1090 l 793 1090 q 758 1128 776 1107 q 721 1173 739 1149 q 684 1222 702 1197 q 600 1151 643 1185 q 520 1090 557 1116 l 445 1090 z "},"ĝ":{"ha":721,"x_min":-64,"x_max":764,"o":"m 215 -334 q 10 -284 84 -334 q -64 -144 -64 -234 q -15 -18 -64 -71 q 143 71 35 35 q 104 105 117 85 q 91 153 91 126 q 125 233 91 199 q 220 295 159 267 q 150 361 176 317 q 123 460 123 404 q 146 583 124 528 q 210 678 169 639 q 299 735 248 715 q 410 755 350 755 q 462 752 436 755 q 513 742 488 749 l 764 742 l 747 673 l 600 659 q 624 609 616 637 q 631 546 631 581 q 608 426 631 479 q 545 335 586 372 q 456 284 507 302 q 342 265 405 266 q 309 267 323 265 q 285 271 295 268 q 212 229 235 253 q 188 179 188 205 q 199 149 188 160 q 230 133 210 138 q 277 125 249 128 l 357 116 q 490 84 439 106 q 566 22 542 61 q 591 -73 591 -16 q 557 -198 591 -145 q 462 -283 524 -250 q 352 -321 414 -308 q 215 -334 290 -334 m 220 -252 q 330 -241 281 -252 q 412 -210 378 -230 q 468 -155 449 -187 q 488 -82 488 -123 q 482 -49 488 -64 q 464 -22 476 -34 q 410 7 445 -4 q 320 24 374 19 l 212 35 q 116 -2 155 22 q 58 -59 78 -26 q 39 -134 39 -92 q 85 -220 39 -189 q 220 -252 131 -252 m 347 340 q 445 369 405 340 q 507 448 486 399 q 529 555 529 497 q 521 607 529 585 q 498 645 513 630 q 460 669 483 661 q 408 677 437 677 q 332 660 366 677 q 274 614 298 644 q 238 547 251 585 q 226 464 226 508 q 233 413 226 435 q 255 375 241 391 q 347 340 286 340 m 241 842 l 242 859 q 304 918 267 881 q 379 994 342 954 q 436 1063 416 1033 l 545 1063 q 578 991 558 1028 q 621 920 599 954 q 660 859 643 886 l 660 842 l 589 842 q 554 879 572 858 q 517 924 536 900 q 481 973 498 948 q 397 902 439 936 q 317 842 354 867 l 241 842 z "},"Ğ":{"ha":944,"x_min":102,"x_max":922,"o":"m 475 -14 q 200 85 299 -14 q 102 361 102 184 q 127 568 102 471 q 199 746 152 665 q 312 884 246 826 q 460 974 378 943 q 636 1006 542 1006 q 793 990 725 1006 q 922 947 861 975 l 878 847 q 766 887 826 871 q 635 904 705 904 q 472 865 547 904 q 341 754 397 826 q 254 584 286 682 q 223 368 223 486 q 252 223 223 287 q 339 124 281 160 q 486 87 397 87 q 588 96 541 87 q 668 115 635 104 l 734 418 l 530 418 l 552 518 l 870 518 l 766 39 q 632 1 703 16 q 475 -14 561 -14 m 661 1090 q 573 1108 612 1090 q 513 1160 535 1126 q 492 1243 492 1194 q 492 1258 492 1251 q 493 1274 492 1265 l 562 1274 q 571 1226 561 1246 q 606 1196 581 1206 q 671 1185 630 1185 q 767 1209 735 1185 q 810 1274 800 1233 l 882 1274 q 803 1133 859 1176 q 661 1090 747 1090 z "},"ğ":{"ha":721,"x_min":-64,"x_max":764,"o":"m 215 -334 q 10 -284 84 -334 q -64 -144 -64 -234 q -15 -18 -64 -71 q 143 71 35 35 q 104 105 117 85 q 91 153 91 126 q 125 233 91 199 q 220 295 159 267 q 150 361 176 317 q 123 460 123 404 q 146 583 124 528 q 210 678 169 639 q 299 735 248 715 q 410 755 350 755 q 462 752 436 755 q 513 742 488 749 l 764 742 l 747 673 l 600 659 q 624 609 616 637 q 631 546 631 581 q 608 426 631 479 q 545 335 586 372 q 456 284 507 302 q 342 265 405 266 q 309 267 323 265 q 285 271 295 268 q 212 229 235 253 q 188 179 188 205 q 199 149 188 160 q 230 133 210 138 q 277 125 249 128 l 357 116 q 490 84 439 106 q 566 22 542 61 q 591 -73 591 -16 q 557 -198 591 -145 q 462 -283 524 -250 q 352 -321 414 -308 q 215 -334 290 -334 m 220 -252 q 330 -241 281 -252 q 412 -210 378 -230 q 468 -155 449 -187 q 488 -82 488 -123 q 482 -49 488 -64 q 464 -22 476 -34 q 410 7 445 -4 q 320 24 374 19 l 212 35 q 116 -2 155 22 q 58 -59 78 -26 q 39 -134 39 -92 q 85 -220 39 -189 q 220 -252 131 -252 m 347 340 q 445 369 405 340 q 507 448 486 399 q 529 555 529 497 q 521 607 529 585 q 498 645 513 630 q 460 669 483 661 q 408 677 437 677 q 332 660 366 677 q 274 614 298 644 q 238 547 251 585 q 226 464 226 508 q 233 413 226 435 q 255 375 241 391 q 347 340 286 340 m 422 842 q 335 859 373 842 q 275 911 296 877 q 253 994 253 945 q 253 1009 253 1002 q 254 1025 254 1017 l 323 1025 q 332 978 322 998 q 367 947 342 958 q 433 936 391 936 q 529 960 496 936 q 572 1025 561 984 l 644 1025 q 564 884 621 927 q 422 842 508 842 z "},"Ġ":{"ha":944,"x_min":102,"x_max":922,"o":"m 475 -14 q 200 85 299 -14 q 102 361 102 184 q 127 568 102 471 q 199 746 152 665 q 312 884 246 826 q 460 974 378 943 q 636 1006 542 1006 q 793 990 725 1006 q 922 947 861 975 l 878 847 q 766 887 826 871 q 635 904 705 904 q 472 865 547 904 q 341 754 397 826 q 254 584 286 682 q 223 368 223 486 q 252 223 223 287 q 339 124 281 160 q 486 87 397 87 q 588 96 541 87 q 668 115 635 104 l 734 418 l 530 418 l 552 518 l 870 518 l 766 39 q 632 1 703 16 q 475 -14 561 -14 m 677 1122 q 632 1138 650 1122 q 614 1183 614 1154 q 634 1243 614 1217 q 692 1269 655 1269 q 725 1262 712 1269 q 745 1241 739 1255 q 752 1210 752 1228 q 729 1146 752 1170 q 677 1122 705 1122 z "},"ġ":{"ha":721,"x_min":-64,"x_max":764,"o":"m 215 -334 q 10 -284 84 -334 q -64 -144 -64 -234 q -15 -18 -64 -71 q 143 71 35 35 q 104 105 117 85 q 91 153 91 126 q 125 233 91 199 q 220 295 159 267 q 150 361 176 317 q 123 460 123 404 q 146 583 124 528 q 210 678 169 639 q 299 735 248 715 q 410 755 350 755 q 462 752 436 755 q 513 742 488 749 l 764 742 l 747 673 l 600 659 q 624 609 616 637 q 631 546 631 581 q 608 426 631 479 q 545 335 586 372 q 456 284 507 302 q 342 265 405 266 q 309 267 323 265 q 285 271 295 268 q 212 229 235 253 q 188 179 188 205 q 199 149 188 160 q 230 133 210 138 q 277 125 249 128 l 357 116 q 490 84 439 106 q 566 22 542 61 q 591 -73 591 -16 q 557 -198 591 -145 q 462 -283 524 -250 q 352 -321 414 -308 q 215 -334 290 -334 m 220 -252 q 330 -241 281 -252 q 412 -210 378 -230 q 468 -155 449 -187 q 488 -82 488 -123 q 482 -49 488 -64 q 464 -22 476 -34 q 410 7 445 -4 q 320 24 374 19 l 212 35 q 116 -2 155 22 q 58 -59 78 -26 q 39 -134 39 -92 q 85 -220 39 -189 q 220 -252 131 -252 m 347 340 q 445 369 405 340 q 507 448 486 399 q 529 555 529 497 q 521 607 529 585 q 498 645 513 630 q 460 669 483 661 q 408 677 437 677 q 332 660 366 677 q 274 614 298 644 q 238 547 251 585 q 226 464 226 508 q 233 413 226 435 q 255 375 241 391 q 347 340 286 340 m 444 873 q 399 889 417 873 q 380 935 380 905 q 401 994 380 968 q 458 1020 422 1020 q 492 1013 479 1020 q 512 992 505 1006 q 519 961 519 979 q 495 897 519 921 q 444 873 472 873 z "},"Ģ":{"ha":944,"x_min":102,"x_max":922,"o":"m 475 -14 q 200 85 299 -14 q 102 361 102 184 q 127 568 102 471 q 199 746 152 665 q 312 884 246 826 q 460 974 378 943 q 636 1006 542 1006 q 793 990 725 1006 q 922 947 861 975 l 878 847 q 766 887 826 871 q 635 904 705 904 q 472 865 547 904 q 341 754 397 826 q 254 584 286 682 q 223 368 223 486 q 252 223 223 287 q 339 124 281 160 q 486 87 397 87 q 588 96 541 87 q 668 115 635 104 l 734 418 l 530 418 l 552 518 l 870 518 l 766 39 q 632 1 703 16 q 475 -14 561 -14 m 312 -307 l 312 -290 q 347 -230 327 -266 q 384 -154 366 -193 q 413 -85 402 -115 l 519 -85 l 519 -98 q 487 -160 511 -122 q 434 -237 464 -197 q 374 -307 404 -277 l 312 -307 z "},"ģ":{"ha":721,"x_min":-64,"x_max":764,"o":"m 368 842 l 368 856 q 401 916 378 878 q 455 995 425 954 q 514 1064 485 1035 l 576 1064 l 576 1046 q 542 987 562 1023 q 505 911 523 951 q 476 842 487 872 l 368 842 m 215 -334 q 10 -284 84 -334 q -64 -144 -64 -234 q -15 -18 -64 -71 q 143 71 35 35 q 104 105 117 85 q 91 153 91 126 q 125 233 91 199 q 220 295 159 267 q 150 361 176 317 q 123 460 123 404 q 146 583 124 528 q 210 678 169 639 q 299 735 248 715 q 410 755 350 755 q 462 752 436 755 q 513 742 488 749 l 764 742 l 747 673 l 600 659 q 624 609 616 637 q 631 546 631 581 q 608 426 631 479 q 545 335 586 372 q 456 284 507 302 q 342 265 405 266 q 309 267 323 265 q 285 271 295 268 q 212 229 235 253 q 188 179 188 205 q 199 149 188 160 q 230 133 210 138 q 277 125 249 128 l 357 116 q 490 84 439 106 q 566 22 542 61 q 591 -73 591 -16 q 557 -198 591 -145 q 462 -283 524 -250 q 352 -321 414 -308 q 215 -334 290 -334 m 220 -252 q 330 -241 281 -252 q 412 -210 378 -230 q 468 -155 449 -187 q 488 -82 488 -123 q 482 -49 488 -64 q 464 -22 476 -34 q 410 7 445 -4 q 320 24 374 19 l 212 35 q 116 -2 155 22 q 58 -59 78 -26 q 39 -134 39 -92 q 85 -220 39 -189 q 220 -252 131 -252 m 347 340 q 445 369 405 340 q 507 448 486 399 q 529 555 529 497 q 521 607 529 585 q 498 645 513 630 q 460 669 483 661 q 408 677 437 677 q 332 660 366 677 q 274 614 298 644 q 238 547 251 585 q 226 464 226 508 q 233 413 226 435 q 255 375 241 391 q 347 340 286 340 z "},"Ĥ":{"ha":945,"x_min":60,"x_max":949,"o":"m 60 0 l 269 991 l 384 991 l 294 569 l 747 569 l 836 991 l 949 991 l 739 0 l 626 0 l 724 467 l 272 467 l 174 0 l 60 0 m 401 1090 l 401 1107 q 464 1166 426 1130 q 539 1242 502 1203 q 595 1312 576 1282 l 704 1312 q 738 1240 718 1277 q 780 1169 758 1203 q 819 1107 802 1135 l 819 1090 l 749 1090 q 713 1128 732 1107 q 676 1173 695 1149 q 640 1222 658 1197 q 556 1151 599 1185 q 476 1090 513 1116 l 401 1090 z "},"ĥ":{"ha":800,"x_min":39,"x_max":722,"o":"m 39 0 l 263 1055 l 376 1055 l 316 781 q 303 721 311 752 q 287 660 295 690 q 271 599 279 629 l 277 599 q 340 671 304 635 q 425 731 376 707 q 534 755 473 755 q 634 734 593 755 q 699 672 676 713 q 722 567 722 630 q 718 513 722 541 q 707 456 713 486 l 610 0 l 496 0 l 595 468 q 605 520 602 498 q 608 558 608 542 q 583 635 608 608 q 504 662 558 662 q 397 628 453 662 q 294 520 341 593 q 222 328 247 446 l 153 0 l 39 0 m 120 1154 l 121 1171 q 183 1230 145 1194 q 258 1306 221 1267 q 315 1376 295 1345 l 423 1376 q 457 1304 437 1341 q 499 1233 477 1267 q 538 1171 522 1199 l 538 1154 l 468 1154 q 433 1192 451 1171 q 396 1237 414 1213 q 359 1286 377 1261 q 275 1214 318 1249 q 195 1154 233 1180 l 120 1154 z "},"Ħ":{"ha":945,"x_min":58,"x_max":1042,"o":"m 58 0 l 212 729 l 85 729 l 104 823 l 231 823 l 268 991 l 382 991 l 345 823 l 798 823 l 835 991 l 950 991 l 915 823 l 1042 823 l 1023 729 l 894 729 l 741 0 l 625 0 l 724 467 l 271 467 l 172 0 l 58 0 m 292 569 l 745 569 l 779 729 l 326 729 l 292 569 z "},"ħ":{"ha":800,"x_min":39,"x_max":720,"o":"m 39 0 l 220 843 l 116 843 l 136 928 l 236 928 l 263 1055 l 376 1055 l 348 928 l 591 928 l 572 843 l 331 843 q 306 738 318 786 q 285 652 294 690 q 270 589 276 614 l 276 589 q 338 661 302 625 q 422 723 374 698 q 532 747 471 747 q 633 726 591 747 q 697 661 675 704 q 720 555 720 618 q 715 503 720 530 q 704 444 711 476 l 610 0 l 496 0 l 594 457 q 604 509 601 487 q 607 547 607 530 q 581 625 607 597 q 501 653 555 653 q 395 618 452 653 q 291 509 339 583 q 218 317 243 435 l 153 0 l 39 0 z "},"Ĩ":{"ha":376,"x_min":58,"x_max":618,"o":"m 58 0 l 269 991 l 382 991 l 171 0 l 58 0 m 117 1093 q 151 1187 129 1149 q 203 1246 172 1226 q 274 1265 234 1265 q 331 1254 304 1265 q 382 1226 358 1242 q 426 1199 406 1211 q 466 1187 447 1187 q 513 1205 496 1187 q 548 1267 531 1223 l 618 1267 q 581 1172 603 1211 q 528 1113 558 1133 q 458 1093 497 1093 q 405 1105 430 1093 q 356 1133 380 1117 q 311 1161 333 1149 q 265 1173 288 1173 q 218 1153 236 1173 q 185 1093 201 1134 l 117 1093 z "},"ĩ":{"ha":351,"x_min":39,"x_max":542,"o":"m 39 0 l 197 743 l 311 743 l 153 0 l 39 0 m 41 844 q 75 939 53 900 q 127 997 96 977 q 198 1017 158 1017 q 255 1005 229 1017 q 306 977 282 993 q 350 950 330 962 q 390 938 371 938 q 437 956 420 938 q 472 1018 455 974 l 542 1018 q 505 923 527 962 q 452 864 482 884 q 382 844 421 844 q 329 856 354 844 q 280 884 304 868 q 235 912 257 900 q 189 924 212 924 q 142 904 160 924 q 109 844 125 885 l 41 844 z "},"Ī":{"ha":376,"x_min":58,"x_max":551,"o":"m 58 0 l 269 991 l 382 991 l 171 0 l 58 0 m 162 1092 l 181 1183 l 551 1183 l 532 1092 l 162 1092 z "},"ī":{"ha":351,"x_min":39,"x_max":474,"o":"m 39 0 l 197 743 l 311 743 l 153 0 l 39 0 m 85 843 l 104 935 l 474 935 l 455 843 l 85 843 z "},"Ĭ":{"ha":376,"x_min":58,"x_max":563,"o":"m 58 0 l 269 991 l 382 991 l 171 0 l 58 0 m 341 1090 q 254 1108 292 1090 q 194 1160 216 1126 q 172 1243 172 1194 q 173 1258 172 1251 q 174 1274 173 1265 l 242 1274 q 252 1226 241 1246 q 286 1196 262 1206 q 352 1185 311 1185 q 448 1209 416 1185 q 491 1274 480 1233 l 563 1274 q 484 1133 540 1176 q 341 1090 427 1090 z "},"ĭ":{"ha":351,"x_min":39,"x_max":494,"o":"m 39 0 l 197 743 l 311 743 l 153 0 l 39 0 m 273 842 q 185 859 224 842 q 125 911 147 877 q 104 994 104 945 q 104 1009 104 1002 q 105 1025 104 1017 l 174 1025 q 183 978 173 998 q 218 947 193 958 q 283 936 242 936 q 379 960 347 936 q 422 1025 412 984 l 494 1025 q 415 884 471 927 q 273 842 359 842 z "},"Į":{"ha":376,"x_min":-56,"x_max":382,"o":"m 58 0 l 269 991 l 382 991 l 171 0 l 58 0 m 64 -301 q -21 -275 13 -301 q -56 -193 -56 -248 q -36 -115 -56 -149 q 17 -52 -16 -81 q 92 2 51 -24 l 170 0 q 111 -49 142 -22 q 58 -108 80 -76 q 37 -178 37 -140 q 50 -214 37 -203 q 85 -226 63 -226 q 114 -224 100 -226 q 141 -220 128 -222 l 141 -292 q 104 -299 124 -296 q 64 -301 84 -301 z "},"į":{"ha":351,"x_min":-55,"x_max":367,"o":"m 39 0 l 197 743 l 311 743 l 153 0 l 39 0 m 292 873 q 247 889 265 873 q 229 935 229 905 q 238 977 229 957 q 265 1008 248 996 q 307 1020 282 1020 q 352 1004 337 1020 q 367 961 367 989 q 344 897 367 921 q 292 873 321 873 m 65 -301 q -21 -275 14 -301 q -55 -193 -55 -248 q -35 -115 -55 -149 q 18 -52 -16 -81 q 93 2 52 -24 l 171 0 q 112 -49 143 -22 q 59 -108 81 -76 q 37 -178 37 -140 q 51 -214 37 -203 q 85 -226 64 -226 q 115 -224 101 -226 q 142 -220 129 -222 l 142 -292 q 105 -299 125 -296 q 65 -301 85 -301 z "},"İ":{"ha":376,"x_min":58,"x_max":439,"o":"m 58 0 l 269 991 l 382 991 l 171 0 l 58 0 m 363 1122 q 319 1138 337 1122 q 300 1183 300 1154 q 321 1243 300 1217 q 378 1269 342 1269 q 412 1262 399 1269 q 432 1241 425 1255 q 439 1210 439 1228 q 415 1146 439 1170 q 363 1122 392 1122 z "},"Ĳ":{"ha":749,"x_min":58,"x_max":761,"o":"m 58 0 l 269 991 l 382 991 l 171 0 l 58 0 m 264 -261 q 202 -256 231 -261 q 158 -245 174 -252 l 161 -146 q 209 -156 183 -152 q 262 -159 234 -159 q 340 -142 305 -159 q 400 -87 375 -124 q 437 9 425 -50 l 646 991 l 761 991 l 550 -3 q 491 -152 530 -95 q 394 -235 452 -209 q 264 -261 337 -261 z "},"ĳ":{"ha":699,"x_min":39,"x_max":715,"o":"m 39 0 l 197 743 l 311 743 l 153 0 l 39 0 m 292 873 q 247 889 265 873 q 229 935 229 905 q 238 977 229 957 q 265 1008 248 996 q 307 1020 282 1020 q 352 1004 337 1020 q 367 961 367 989 q 344 897 367 921 q 292 873 321 873 m 256 -334 q 209 -330 231 -334 q 171 -319 186 -326 l 171 -224 q 209 -235 188 -231 q 252 -239 229 -239 q 303 -224 281 -239 q 341 -178 326 -209 q 368 -102 357 -148 l 546 743 l 658 743 l 476 -113 q 436 -231 462 -181 q 366 -307 410 -280 q 256 -334 323 -334 m 640 873 q 595 889 613 873 q 578 935 578 905 q 587 977 578 957 q 613 1008 596 996 q 656 1020 631 1020 q 700 1004 686 1020 q 715 961 715 989 q 691 897 715 921 q 640 873 668 873 z "},"Ĵ":{"ha":373,"x_min":-218,"x_max":537,"o":"m -113 -261 q -174 -256 -145 -261 q -218 -245 -203 -252 l -215 -146 q -168 -156 -193 -152 q -115 -159 -142 -159 q -36 -142 -71 -159 q 24 -87 -1 -124 q 61 9 49 -50 l 270 991 l 385 991 l 174 -3 q 115 -152 154 -95 q 18 -235 75 -209 q -113 -261 -39 -261 m 119 1090 l 119 1107 q 182 1166 144 1130 q 257 1242 220 1203 q 313 1312 294 1282 l 422 1312 q 456 1240 435 1277 q 498 1169 476 1203 q 537 1107 520 1135 l 537 1090 l 467 1090 q 431 1128 450 1107 q 394 1173 413 1149 q 358 1222 376 1197 q 274 1151 317 1185 q 194 1090 231 1116 l 119 1090 z "},"ĵ":{"ha":351,"x_min":-178,"x_max":473,"o":"m -92 -334 q -140 -330 -117 -334 q -178 -319 -162 -326 l -178 -224 q -140 -235 -161 -231 q -97 -239 -119 -239 q -45 -224 -68 -239 q -7 -178 -23 -209 q 19 -102 9 -148 l 197 743 l 309 743 l 127 -113 q 87 -231 113 -181 q 18 -307 61 -280 q -92 -334 -26 -334 m 55 842 l 56 859 q 118 918 80 881 q 193 994 156 954 q 250 1063 230 1033 l 358 1063 q 392 991 372 1028 q 434 920 412 954 q 473 859 456 886 l 473 842 l 403 842 q 368 879 386 858 q 331 924 349 900 q 294 973 312 948 q 210 902 253 936 q 130 842 168 867 l 55 842 z "},"Ķ":{"ha":778,"x_min":58,"x_max":901,"o":"m 58 0 l 268 991 l 382 991 l 278 503 l 363 593 l 762 991 l 901 991 l 465 557 l 704 0 l 578 0 l 378 488 l 256 397 l 172 0 l 58 0 m 195 -307 l 195 -290 q 230 -230 210 -266 q 268 -154 250 -193 q 296 -85 286 -115 l 403 -85 l 403 -98 q 371 -160 394 -122 q 317 -237 347 -197 q 257 -307 288 -277 l 195 -307 z "},"ķ":{"ha":679,"x_min":38,"x_max":722,"o":"m 38 0 l 262 1055 l 376 1055 l 283 625 q 256 504 269 554 q 233 422 243 454 q 219 374 224 391 l 222 374 l 588 743 l 722 743 l 400 424 l 600 0 l 475 0 l 315 353 l 207 266 l 153 0 l 38 0 m 155 -307 l 155 -290 q 190 -230 170 -266 q 228 -154 210 -193 q 256 -85 245 -115 l 363 -85 l 363 -98 q 331 -160 354 -122 q 277 -237 307 -197 q 217 -307 248 -277 l 155 -307 z "},"ĸ":{"ha":679,"x_min":38,"x_max":722,"o":"m 38 0 l 195 743 l 309 743 l 268 554 q 243 452 257 500 q 219 372 229 404 l 222 372 l 588 743 l 722 743 l 400 424 l 600 0 l 475 0 l 315 353 l 207 266 l 153 0 l 38 0 z "},"Ĺ":{"ha":666,"x_min":58,"x_max":584,"o":"m 58 0 l 268 991 l 382 991 l 193 103 l 582 103 l 560 0 l 58 0 m 296 1090 l 296 1107 q 351 1171 321 1135 q 408 1244 380 1206 q 456 1313 436 1282 l 584 1313 l 584 1299 q 544 1253 569 1280 q 487 1195 518 1225 q 425 1138 456 1165 q 367 1090 394 1110 l 296 1090 z "},"ĺ":{"ha":351,"x_min":38,"x_max":557,"o":"m 38 0 l 263 1055 l 376 1055 l 151 0 l 38 0 m 270 1154 l 270 1171 q 324 1234 295 1198 q 381 1308 353 1270 q 429 1377 410 1345 l 557 1377 l 557 1363 q 517 1317 543 1344 q 461 1259 492 1289 q 399 1201 430 1229 q 340 1154 368 1174 l 270 1154 z "},"Ļ":{"ha":666,"x_min":58,"x_max":582,"o":"m 58 0 l 268 991 l 382 991 l 193 103 l 582 103 l 560 0 l 58 0 m 162 -307 l 162 -290 q 197 -230 177 -266 q 234 -154 216 -193 q 263 -85 252 -115 l 370 -85 l 370 -98 q 337 -160 361 -122 q 284 -237 314 -197 q 224 -307 254 -277 l 162 -307 z "},"ļ":{"ha":351,"x_min":-51,"x_max":376,"o":"m 38 0 l 263 1055 l 376 1055 l 151 0 l 38 0 m -51 -307 l -51 -290 q -16 -230 -36 -266 q 21 -154 3 -193 q 50 -85 39 -115 l 157 -85 l 157 -98 q 124 -160 148 -122 q 71 -237 101 -197 q 11 -307 41 -277 l -51 -307 z "},"Ľ":{"ha":666,"x_min":58,"x_max":713,"o":"m 58 0 l 268 991 l 382 991 l 193 103 l 582 103 l 560 0 l 58 0 m 504 766 l 504 783 q 539 843 519 806 q 577 919 559 880 q 606 988 595 958 l 713 988 l 713 975 q 680 914 704 951 q 626 836 656 876 q 566 766 596 796 l 504 766 z "},"ľ":{"ha":388,"x_min":38,"x_max":595,"o":"m 38 0 l 263 1055 l 376 1055 l 151 0 l 38 0 m 386 833 l 386 849 q 421 909 401 872 q 459 985 441 946 q 488 1055 477 1025 l 595 1055 l 595 1042 q 562 980 586 1018 q 508 903 538 943 q 448 833 478 863 l 386 833 z "},"Ŀ":{"ha":666,"x_min":58,"x_max":605,"o":"m 58 0 l 268 991 l 382 991 l 193 103 l 582 103 l 560 0 l 58 0 m 530 422 q 485 438 503 422 q 467 484 467 454 q 487 543 467 517 q 545 569 508 569 q 578 562 565 569 q 598 542 591 555 q 605 510 605 528 q 582 446 605 470 q 530 422 558 422 z "},"ŀ":{"ha":399,"x_min":38,"x_max":473,"o":"m 38 0 l 263 1055 l 376 1055 l 151 0 l 38 0 m 398 435 q 353 451 372 435 q 335 496 335 467 q 356 555 335 530 q 413 581 376 581 q 447 574 433 581 q 467 554 460 567 q 473 522 473 541 q 450 458 473 482 q 398 435 427 435 z "},"Ł":{"ha":666,"x_min":14,"x_max":583,"o":"m 57 0 l 132 348 l 54 302 l 14 378 l 154 458 l 267 991 l 382 991 l 283 532 l 450 626 l 489 553 l 261 422 l 194 103 l 583 103 l 562 0 l 57 0 z "},"ł":{"ha":351,"x_min":7,"x_max":398,"o":"m 38 0 l 124 404 l 45 356 l 7 427 l 146 512 l 263 1055 l 376 1055 l 277 588 l 362 637 l 398 567 l 254 481 l 151 0 l 38 0 z "},"Ń":{"ha":977,"x_min":57,"x_max":982,"o":"m 57 0 l 267 991 l 387 991 l 701 161 l 705 161 q 717 240 709 195 q 734 335 724 286 q 753 429 743 384 l 873 991 l 982 991 l 772 0 l 652 0 l 336 832 l 332 832 q 324 777 329 809 q 312 708 319 745 q 298 632 306 671 q 283 556 291 593 l 165 0 l 57 0 m 578 1090 l 578 1107 q 633 1171 604 1135 q 690 1244 662 1206 q 738 1313 718 1282 l 866 1313 l 866 1299 q 826 1253 851 1280 q 769 1195 800 1225 q 707 1138 739 1165 q 649 1090 676 1110 l 578 1090 z "},"ń":{"ha":800,"x_min":35,"x_max":726,"o":"m 35 0 l 194 747 l 294 747 l 276 604 l 277 604 q 339 675 303 639 q 424 736 376 711 q 534 761 473 761 q 637 739 594 761 q 703 675 680 717 q 726 574 726 633 q 721 511 726 543 q 711 454 716 479 l 612 0 l 492 0 l 592 469 q 602 522 598 500 q 606 562 606 543 q 580 634 606 610 q 504 659 554 659 q 399 625 454 659 q 298 518 345 591 q 225 328 251 445 l 155 0 l 35 0 m 431 842 l 431 859 q 486 922 456 886 q 543 995 515 958 q 591 1064 571 1033 l 719 1064 l 719 1050 q 679 1004 704 1031 q 622 946 653 977 q 560 889 591 916 q 502 842 529 861 l 431 842 z "},"Ņ":{"ha":977,"x_min":57,"x_max":982,"o":"m 57 0 l 267 991 l 387 991 l 701 161 l 705 161 q 717 240 709 195 q 734 335 724 286 q 753 429 743 384 l 873 991 l 982 991 l 772 0 l 652 0 l 336 832 l 332 832 q 324 777 329 809 q 312 708 319 745 q 298 632 306 671 q 283 556 291 593 l 165 0 l 57 0 m 261 -307 l 261 -290 q 296 -230 276 -266 q 333 -154 315 -193 q 362 -85 351 -115 l 469 -85 l 469 -98 q 436 -160 460 -122 q 383 -237 413 -197 q 323 -307 353 -277 l 261 -307 z "},"ņ":{"ha":800,"x_min":35,"x_max":726,"o":"m 35 0 l 194 747 l 294 747 l 276 604 l 277 604 q 339 675 303 639 q 424 736 376 711 q 534 761 473 761 q 637 739 594 761 q 703 675 680 717 q 726 574 726 633 q 721 511 726 543 q 711 454 716 479 l 612 0 l 492 0 l 592 469 q 602 522 598 500 q 606 562 606 543 q 580 634 606 610 q 504 659 554 659 q 399 625 454 659 q 298 518 345 591 q 225 328 251 445 l 155 0 l 35 0 m 176 -307 l 176 -290 q 211 -230 191 -266 q 249 -154 231 -193 q 277 -85 267 -115 l 384 -85 l 384 -98 q 352 -160 375 -122 q 298 -237 328 -197 q 238 -307 269 -277 l 176 -307 z "},"Ň":{"ha":977,"x_min":57,"x_max":982,"o":"m 57 0 l 267 991 l 387 991 l 701 161 l 705 161 q 717 240 709 195 q 734 335 724 286 q 753 429 743 384 l 873 991 l 982 991 l 772 0 l 652 0 l 336 832 l 332 832 q 324 777 329 809 q 312 708 319 745 q 298 632 306 671 q 283 556 291 593 l 165 0 l 57 0 m 587 1090 q 555 1162 575 1126 q 513 1234 535 1199 q 474 1295 492 1268 l 474 1312 l 543 1312 q 579 1276 561 1297 q 616 1230 597 1255 q 651 1181 634 1206 q 737 1253 693 1219 q 819 1312 781 1287 l 893 1312 l 892 1295 q 830 1237 868 1274 q 754 1161 791 1200 q 696 1090 717 1122 l 587 1090 z "},"ň":{"ha":800,"x_min":35,"x_max":749,"o":"m 35 0 l 194 747 l 294 747 l 276 604 l 277 604 q 339 675 303 639 q 424 736 376 711 q 534 761 473 761 q 637 739 594 761 q 703 675 680 717 q 726 574 726 633 q 721 511 726 543 q 711 454 716 479 l 612 0 l 492 0 l 592 469 q 602 522 598 500 q 606 562 606 543 q 580 634 606 610 q 504 659 554 659 q 399 625 454 659 q 298 518 345 591 q 225 328 251 445 l 155 0 l 35 0 m 444 842 q 411 913 431 877 q 370 985 391 950 q 330 1046 348 1019 l 330 1063 l 399 1063 q 435 1027 417 1048 q 472 981 454 1006 q 507 932 490 957 q 593 1004 549 970 q 675 1063 637 1038 l 749 1063 l 749 1046 q 686 988 724 1025 q 610 912 648 951 q 553 842 573 873 l 444 842 z "},"ŉ":{"ha":905,"x_min":62,"x_max":831,"o":"m 140 0 l 299 747 l 399 747 l 381 604 l 382 604 q 445 675 408 639 q 529 736 481 711 q 640 761 578 761 q 742 739 699 761 q 808 675 785 717 q 831 574 831 633 q 826 511 831 543 q 816 454 821 479 l 717 0 l 597 0 l 697 469 q 707 522 703 500 q 711 562 711 543 q 685 634 711 610 q 609 659 659 659 q 505 625 559 659 q 403 518 450 591 q 330 328 356 445 l 260 0 l 140 0 m 62 652 q 113 766 87 706 q 162 885 139 827 q 201 991 186 943 l 323 991 l 328 977 q 277 870 307 926 q 214 758 248 814 q 148 652 181 702 l 62 652 z "},"Ŋ":{"ha":977,"x_min":57,"x_max":982,"o":"m 485 -260 q 425 -256 453 -260 q 380 -243 396 -251 l 385 -145 q 430 -155 406 -151 q 484 -159 455 -159 q 562 -142 527 -159 q 623 -90 597 -125 q 660 2 648 -54 l 336 832 l 331 832 q 322 773 327 806 q 311 705 317 741 q 298 631 305 669 q 283 556 291 593 l 165 0 l 57 0 l 267 991 l 387 991 l 701 170 l 705 170 q 720 256 711 209 q 737 354 728 304 q 757 451 747 404 l 872 991 l 982 991 l 773 1 q 714 -149 754 -91 q 616 -233 674 -206 q 485 -260 558 -260 z "},"ŋ":{"ha":800,"x_min":39,"x_max":722,"o":"m 365 -334 q 318 -330 340 -334 q 279 -319 297 -326 l 279 -224 q 317 -235 298 -231 q 359 -239 337 -239 q 410 -224 388 -239 q 449 -178 433 -208 q 474 -102 465 -147 l 595 468 q 606 521 602 498 q 609 562 609 543 q 584 635 609 608 q 504 662 558 662 q 398 628 454 662 q 294 520 342 593 q 222 328 247 446 l 153 0 l 39 0 l 197 743 l 290 743 l 272 600 l 279 600 q 341 671 305 635 q 425 732 377 707 q 534 757 473 757 q 634 736 592 757 q 699 674 675 715 q 722 574 722 634 q 718 514 722 543 q 707 456 713 486 l 585 -115 q 545 -231 571 -182 q 475 -307 518 -280 q 365 -334 431 -334 z "},"Ō":{"ha":1001,"x_min":102,"x_max":956,"o":"m 467 -14 q 266 34 348 -14 q 143 168 184 81 q 102 372 102 255 q 117 536 102 457 q 161 687 132 616 q 234 816 191 758 q 332 918 277 875 q 455 984 388 960 q 602 1007 523 1007 q 862 904 768 1007 q 956 616 956 800 q 943 456 956 534 q 902 307 929 378 q 834 178 875 237 q 739 77 793 119 q 617 10 685 34 q 467 -14 549 -14 m 471 87 q 579 108 530 87 q 669 165 629 128 q 740 251 709 201 q 792 360 771 300 q 824 485 813 419 q 835 619 835 551 q 771 830 835 755 q 593 905 707 905 q 485 886 535 905 q 393 831 435 867 q 320 747 352 795 q 267 638 289 698 q 234 513 245 579 q 223 375 223 446 q 252 221 223 286 q 337 122 281 157 q 471 87 393 87 m 460 1092 l 479 1183 l 849 1183 l 830 1092 l 460 1092 z "},"ō":{"ha":782,"x_min":68,"x_max":716,"o":"m 342 -11 q 195 24 257 -11 q 101 123 134 59 q 68 275 68 187 q 83 414 68 345 q 130 544 99 483 q 205 653 160 606 q 309 727 250 700 q 441 753 368 753 q 589 719 528 753 q 683 619 650 684 q 716 467 716 555 q 701 329 716 397 q 655 199 686 260 q 580 91 625 138 q 476 16 535 43 q 342 -11 416 -11 m 349 83 q 429 100 391 83 q 498 152 467 118 q 552 234 530 185 q 588 344 575 282 q 600 479 600 406 q 585 565 600 524 q 534 633 569 606 q 442 660 500 660 q 354 640 395 660 q 282 585 314 621 q 228 500 250 549 q 194 393 206 451 q 182 270 182 334 q 226 132 182 181 q 349 83 269 83 m 279 843 l 298 935 l 667 935 l 648 843 l 279 843 z "},"Ŏ":{"ha":1001,"x_min":102,"x_max":956,"o":"m 467 -14 q 266 34 348 -14 q 143 168 184 81 q 102 372 102 255 q 117 536 102 457 q 161 687 132 616 q 234 816 191 758 q 332 918 277 875 q 455 984 388 960 q 602 1007 523 1007 q 862 904 768 1007 q 956 616 956 800 q 943 456 956 534 q 902 307 929 378 q 834 178 875 237 q 739 77 793 119 q 617 10 685 34 q 467 -14 549 -14 m 471 87 q 579 108 530 87 q 669 165 629 128 q 740 251 709 201 q 792 360 771 300 q 824 485 813 419 q 835 619 835 551 q 771 830 835 755 q 593 905 707 905 q 485 886 535 905 q 393 831 435 867 q 320 747 352 795 q 267 638 289 698 q 234 513 245 579 q 223 375 223 446 q 252 221 223 286 q 337 122 281 157 q 471 87 393 87 m 646 1090 q 559 1108 597 1090 q 499 1160 521 1126 q 477 1243 477 1194 q 478 1258 477 1251 q 479 1274 478 1265 l 547 1274 q 557 1226 547 1246 q 591 1196 567 1206 q 657 1185 616 1185 q 753 1209 721 1185 q 796 1274 785 1233 l 868 1274 q 789 1133 845 1176 q 646 1090 732 1090 z "},"ŏ":{"ha":782,"x_min":68,"x_max":716,"o":"m 342 -11 q 195 24 257 -11 q 101 123 134 59 q 68 275 68 187 q 83 414 68 345 q 130 544 99 483 q 205 653 160 606 q 309 727 250 700 q 441 753 368 753 q 589 719 528 753 q 683 619 650 684 q 716 467 716 555 q 701 329 716 397 q 655 199 686 260 q 580 91 625 138 q 476 16 535 43 q 342 -11 416 -11 m 349 83 q 429 100 391 83 q 498 152 467 118 q 552 234 530 185 q 588 344 575 282 q 600 479 600 406 q 585 565 600 524 q 534 633 569 606 q 442 660 500 660 q 354 640 395 660 q 282 585 314 621 q 228 500 250 549 q 194 393 206 451 q 182 270 182 334 q 226 132 182 181 q 349 83 269 83 m 466 842 q 379 859 417 842 q 319 911 340 877 q 297 994 297 945 q 297 1009 297 1002 q 298 1025 298 1017 l 367 1025 q 376 978 366 998 q 411 947 387 958 q 477 936 435 936 q 573 960 541 936 q 616 1025 605 984 l 688 1025 q 608 884 665 927 q 466 842 552 842 z "},"Ő":{"ha":1001,"x_min":102,"x_max":994,"o":"m 467 -14 q 266 34 348 -14 q 143 168 184 81 q 102 372 102 255 q 117 536 102 457 q 161 687 132 616 q 234 816 191 758 q 332 918 277 875 q 455 984 388 960 q 602 1007 523 1007 q 862 904 768 1007 q 956 616 956 800 q 943 456 956 534 q 902 307 929 378 q 834 178 875 237 q 739 77 793 119 q 617 10 685 34 q 467 -14 549 -14 m 471 87 q 579 108 530 87 q 669 165 629 128 q 740 251 709 201 q 792 360 771 300 q 824 485 813 419 q 835 619 835 551 q 771 830 835 755 q 593 905 707 905 q 485 886 535 905 q 393 831 435 867 q 320 747 352 795 q 267 638 289 698 q 234 513 245 579 q 223 375 223 446 q 252 221 223 286 q 337 122 281 157 q 471 87 393 87 m 719 1090 l 719 1107 q 773 1171 744 1135 q 831 1244 803 1206 q 878 1313 859 1282 l 994 1313 l 994 1299 q 955 1253 980 1280 q 899 1195 929 1225 q 837 1138 868 1165 q 779 1090 805 1110 l 719 1090 m 486 1090 l 486 1107 q 540 1171 511 1135 q 598 1244 570 1206 q 645 1313 626 1282 l 761 1313 l 761 1299 q 721 1253 747 1280 q 665 1195 696 1225 q 603 1138 635 1165 q 545 1090 572 1110 l 486 1090 z "},"ő":{"ha":782,"x_min":68,"x_max":812,"o":"m 342 -11 q 195 24 257 -11 q 101 123 134 59 q 68 275 68 187 q 83 414 68 345 q 130 544 99 483 q 205 653 160 606 q 309 727 250 700 q 441 753 368 753 q 589 719 528 753 q 683 619 650 684 q 716 467 716 555 q 701 329 716 397 q 655 199 686 260 q 580 91 625 138 q 476 16 535 43 q 342 -11 416 -11 m 349 83 q 429 100 391 83 q 498 152 467 118 q 552 234 530 185 q 588 344 575 282 q 600 479 600 406 q 585 565 600 524 q 534 633 569 606 q 442 660 500 660 q 354 640 395 660 q 282 585 314 621 q 228 500 250 549 q 194 393 206 451 q 182 270 182 334 q 226 132 182 181 q 349 83 269 83 m 536 842 l 536 859 q 591 922 562 886 q 649 995 621 958 q 696 1064 677 1033 l 812 1064 l 812 1050 q 772 1004 798 1031 q 716 946 747 977 q 654 889 686 916 q 596 842 623 861 l 536 842 m 303 842 l 303 859 q 358 922 328 886 q 415 995 387 958 q 463 1064 444 1033 l 578 1064 l 578 1050 q 539 1004 564 1031 q 483 946 513 977 q 421 889 452 916 q 363 842 389 861 l 303 842 z "},"Œ":{"ha":1196,"x_min":102,"x_max":1251,"o":"m 467 -12 q 266 35 348 -12 q 143 169 184 82 q 102 372 102 255 q 123 568 102 473 q 187 742 145 662 q 290 881 229 821 q 429 974 351 941 q 602 1007 507 1007 q 691 1004 653 1007 q 761 991 728 1000 l 1251 991 l 1230 890 l 840 890 l 770 569 l 1136 569 l 1115 469 l 750 469 l 673 102 l 1063 102 l 1041 0 l 574 0 q 523 -9 549 -5 q 467 -12 496 -12 m 471 89 q 516 92 495 89 q 557 100 538 94 l 724 890 q 665 901 698 897 q 593 905 631 905 q 465 878 524 905 q 362 801 407 850 q 286 684 317 751 q 239 538 255 617 q 223 375 223 460 q 252 221 223 286 q 337 123 281 157 q 471 89 393 89 z "},"œ":{"ha":1206,"x_min":68,"x_max":1163,"o":"m 336 -11 q 140 66 212 -11 q 68 275 68 143 q 83 414 68 345 q 130 544 99 483 q 205 653 160 606 q 311 727 251 700 q 446 753 371 753 q 604 708 548 753 q 685 594 660 663 q 806 713 735 670 q 963 757 878 757 q 1107 714 1050 757 q 1163 586 1163 672 q 1138 482 1163 530 q 1059 399 1112 434 q 925 345 1006 364 q 730 326 843 326 l 699 326 q 697 298 699 313 q 696 271 696 283 q 740 131 696 182 q 872 80 784 80 q 971 96 924 80 q 1070 136 1017 113 l 1071 37 q 965 -1 1018 12 q 851 -14 912 -14 q 744 4 793 -14 q 661 56 696 21 q 608 143 627 91 q 496 31 564 73 q 336 -11 428 -11 m 342 83 q 433 102 392 83 q 504 158 473 122 q 556 243 535 194 q 588 352 577 292 q 598 479 598 412 q 559 610 598 560 q 440 660 521 660 q 353 640 393 660 q 281 585 313 621 q 228 502 250 549 q 194 396 205 454 q 182 277 182 339 q 224 133 182 182 q 342 83 267 83 m 712 418 l 732 418 q 892 433 819 418 q 1009 485 965 449 q 1053 581 1053 521 q 1029 639 1053 615 q 961 663 1006 663 q 858 635 907 663 q 771 553 809 608 q 712 418 733 498 z "},"Ŕ":{"ha":794,"x_min":58,"x_max":789,"o":"m 58 0 l 268 991 l 485 991 q 713 929 637 991 q 789 743 789 866 q 764 610 789 670 q 683 507 739 550 q 538 439 628 463 l 701 0 l 576 0 l 433 414 l 260 414 l 172 0 l 58 0 m 280 511 l 400 511 q 519 527 469 511 q 604 572 570 543 q 654 643 637 602 q 671 735 671 684 q 622 857 671 821 q 473 892 572 892 l 362 892 l 280 511 m 480 1090 l 480 1107 q 534 1171 505 1135 q 592 1244 564 1206 q 640 1313 620 1282 l 768 1313 l 768 1299 q 727 1253 753 1280 q 671 1195 702 1225 q 609 1138 640 1165 q 551 1090 578 1110 l 480 1090 z "},"ŕ":{"ha":549,"x_min":39,"x_max":631,"o":"m 39 0 l 197 743 l 290 743 l 272 600 l 279 600 q 340 674 307 638 q 414 734 372 711 q 510 757 456 757 q 551 754 530 757 q 591 747 572 752 l 566 646 q 531 652 548 650 q 495 654 513 654 q 399 627 444 654 q 320 555 355 600 q 261 456 286 511 q 225 344 237 401 l 153 0 l 39 0 m 344 842 l 344 859 q 398 922 369 886 q 455 995 427 958 q 503 1064 484 1033 l 631 1064 l 631 1050 q 591 1004 616 1031 q 535 946 566 977 q 473 889 504 916 q 414 842 441 861 l 344 842 z "},"Ŗ":{"ha":794,"x_min":58,"x_max":789,"o":"m 58 0 l 268 991 l 485 991 q 713 929 637 991 q 789 743 789 866 q 764 610 789 670 q 683 507 739 550 q 538 439 628 463 l 701 0 l 576 0 l 433 414 l 260 414 l 172 0 l 58 0 m 280 511 l 400 511 q 519 527 469 511 q 604 572 570 543 q 654 643 637 602 q 671 735 671 684 q 622 857 671 821 q 473 892 572 892 l 362 892 l 280 511 m 197 -307 l 197 -290 q 232 -230 212 -266 q 270 -154 252 -193 q 298 -85 288 -115 l 405 -85 l 405 -98 q 373 -160 396 -122 q 319 -237 349 -197 q 259 -307 290 -277 l 197 -307 z "},"ŗ":{"ha":549,"x_min":-47,"x_max":591,"o":"m 39 0 l 197 743 l 290 743 l 272 600 l 279 600 q 340 674 307 638 q 414 734 372 711 q 510 757 456 757 q 551 754 530 757 q 591 747 572 752 l 566 646 q 531 652 548 650 q 495 654 513 654 q 399 627 444 654 q 320 555 355 600 q 261 456 286 511 q 225 344 237 401 l 153 0 l 39 0 m -47 -307 l -47 -290 q -12 -230 -32 -266 q 25 -154 7 -193 q 54 -85 43 -115 l 161 -85 l 161 -98 q 129 -160 152 -122 q 75 -237 105 -197 q 15 -307 45 -277 l -47 -307 z "},"Ř":{"ha":794,"x_min":58,"x_max":795,"o":"m 58 0 l 268 991 l 485 991 q 713 929 637 991 q 789 743 789 866 q 764 610 789 670 q 683 507 739 550 q 538 439 628 463 l 701 0 l 576 0 l 433 414 l 260 414 l 172 0 l 58 0 m 280 511 l 400 511 q 519 527 469 511 q 604 572 570 543 q 654 643 637 602 q 671 735 671 684 q 622 857 671 821 q 473 892 572 892 l 362 892 l 280 511 m 490 1090 q 457 1162 477 1126 q 416 1234 437 1199 q 376 1295 394 1268 l 376 1312 l 445 1312 q 481 1276 463 1297 q 518 1230 500 1255 q 553 1181 536 1206 q 639 1253 595 1219 q 721 1312 683 1287 l 795 1312 l 795 1295 q 732 1237 770 1274 q 656 1161 694 1200 q 599 1090 619 1122 l 490 1090 z "},"ř":{"ha":549,"x_min":39,"x_max":661,"o":"m 39 0 l 197 743 l 290 743 l 272 600 l 279 600 q 340 674 307 638 q 414 734 372 711 q 510 757 456 757 q 551 754 530 757 q 591 747 572 752 l 566 646 q 531 652 548 650 q 495 654 513 654 q 399 627 444 654 q 320 555 355 600 q 261 456 286 511 q 225 344 237 401 l 153 0 l 39 0 m 355 842 q 323 913 343 877 q 281 985 303 950 q 242 1046 260 1019 l 242 1063 l 311 1063 q 347 1027 329 1048 q 384 981 366 1006 q 419 932 402 957 q 505 1004 461 970 q 587 1063 549 1038 l 661 1063 l 661 1046 q 598 988 636 1025 q 522 912 559 951 q 465 842 485 873 l 355 842 z "},"Ś":{"ha":700,"x_min":26,"x_max":720,"o":"m 259 -14 q 130 -3 185 -14 q 26 31 74 8 l 26 144 q 127 104 69 122 q 260 86 184 86 q 350 97 307 86 q 426 131 393 108 q 479 190 460 154 q 498 275 498 226 q 481 346 498 315 q 427 406 464 377 q 329 468 389 435 q 236 532 277 498 q 172 611 195 566 q 148 720 148 656 q 174 843 148 789 q 244 932 199 896 q 348 987 290 968 q 473 1006 407 1006 q 608 990 551 1006 q 720 948 666 975 l 675 850 q 584 887 637 871 q 473 904 531 904 q 393 893 430 904 q 328 859 356 882 q 285 804 300 837 q 269 728 269 771 q 286 654 269 684 q 335 602 302 625 q 414 550 367 578 q 521 480 475 515 q 593 399 567 445 q 618 284 618 353 q 592 154 618 210 q 518 61 566 98 q 404 5 470 24 q 259 -14 338 -14 m 418 1090 l 418 1107 q 472 1171 443 1135 q 529 1244 501 1206 q 577 1313 557 1282 l 705 1313 l 705 1299 q 665 1253 690 1280 q 609 1195 640 1225 q 547 1138 578 1165 q 488 1090 515 1110 l 418 1090 z "},"ś":{"ha":599,"x_min":8,"x_max":599,"o":"m 216 -14 q 97 0 149 -14 q 8 34 46 14 l 8 138 q 99 98 44 117 q 213 79 155 79 q 309 94 271 79 q 367 137 347 110 q 386 201 386 165 q 373 252 386 231 q 333 294 361 273 q 258 340 304 314 q 170 399 205 370 q 115 465 134 429 q 96 548 96 500 q 127 659 96 612 q 215 731 159 705 q 348 757 272 757 q 472 742 415 757 q 570 707 529 726 l 534 616 q 453 648 498 633 q 348 662 408 662 q 247 633 284 662 q 209 554 209 604 q 220 508 209 528 q 259 468 231 488 q 335 421 287 448 q 419 366 382 394 q 479 301 457 338 q 501 212 501 265 q 467 89 501 140 q 368 13 432 39 q 216 -14 304 -14 m 311 842 l 311 859 q 366 922 336 886 q 423 995 395 958 q 471 1064 451 1033 l 599 1064 l 599 1050 q 558 1004 584 1031 q 502 946 533 977 q 440 889 471 916 q 382 842 409 861 l 311 842 z "},"Ŝ":{"ha":700,"x_min":26,"x_max":720,"o":"m 259 -14 q 130 -3 185 -14 q 26 31 74 8 l 26 144 q 127 104 69 122 q 260 86 184 86 q 350 97 307 86 q 426 131 393 108 q 479 190 460 154 q 498 275 498 226 q 481 346 498 315 q 427 406 464 377 q 329 468 389 435 q 236 532 277 498 q 172 611 195 566 q 148 720 148 656 q 174 843 148 789 q 244 932 199 896 q 348 987 290 968 q 473 1006 407 1006 q 608 990 551 1006 q 720 948 666 975 l 675 850 q 584 887 637 871 q 473 904 531 904 q 393 893 430 904 q 328 859 356 882 q 285 804 300 837 q 269 728 269 771 q 286 654 269 684 q 335 602 302 625 q 414 550 367 578 q 521 480 475 515 q 593 399 567 445 q 618 284 618 353 q 592 154 618 210 q 518 61 566 98 q 404 5 470 24 q 259 -14 338 -14 m 269 1090 l 270 1107 q 332 1166 294 1130 q 407 1242 370 1203 q 464 1312 444 1282 l 572 1312 q 606 1240 586 1277 q 649 1169 627 1203 q 688 1107 671 1135 l 688 1090 l 617 1090 q 582 1128 600 1107 q 545 1173 564 1149 q 509 1222 526 1197 q 425 1151 467 1185 q 345 1090 382 1116 l 269 1090 z "},"ŝ":{"ha":599,"x_min":8,"x_max":581,"o":"m 216 -14 q 97 0 149 -14 q 8 34 46 14 l 8 138 q 99 98 44 117 q 213 79 155 79 q 309 94 271 79 q 367 137 347 110 q 386 201 386 165 q 373 252 386 231 q 333 294 361 273 q 258 340 304 314 q 170 399 205 370 q 115 465 134 429 q 96 548 96 500 q 127 659 96 612 q 215 731 159 705 q 348 757 272 757 q 472 742 415 757 q 570 707 529 726 l 534 616 q 453 648 498 633 q 348 662 408 662 q 247 633 284 662 q 209 554 209 604 q 220 508 209 528 q 259 468 231 488 q 335 421 287 448 q 419 366 382 394 q 479 301 457 338 q 501 212 501 265 q 467 89 501 140 q 368 13 432 39 q 216 -14 304 -14 m 163 842 l 163 859 q 226 918 188 881 q 301 994 264 954 q 357 1063 338 1033 l 466 1063 q 500 991 479 1028 q 542 920 520 954 q 581 859 564 886 l 581 842 l 511 842 q 475 879 494 858 q 438 924 457 900 q 402 973 420 948 q 318 902 361 936 q 238 842 275 867 l 163 842 z "},"Ş":{"ha":700,"x_min":26,"x_max":720,"o":"m 259 -14 q 130 -3 185 -14 q 26 31 74 8 l 26 144 q 127 104 69 122 q 260 86 184 86 q 350 97 307 86 q 426 131 393 108 q 479 190 460 154 q 498 275 498 226 q 481 346 498 315 q 427 406 464 377 q 329 468 389 435 q 236 532 277 498 q 172 611 195 566 q 148 720 148 656 q 174 843 148 789 q 244 932 199 896 q 348 987 290 968 q 473 1006 407 1006 q 608 990 551 1006 q 720 948 666 975 l 675 850 q 584 887 637 871 q 473 904 531 904 q 393 893 430 904 q 328 859 356 882 q 285 804 300 837 q 269 728 269 771 q 286 654 269 684 q 335 602 302 625 q 414 550 367 578 q 521 480 475 515 q 593 399 567 445 q 618 284 618 353 q 592 154 618 210 q 518 61 566 98 q 404 5 470 24 q 259 -14 338 -14 m 172 -334 q 137 -331 154 -334 q 109 -326 120 -329 l 109 -258 q 136 -262 122 -261 q 161 -264 151 -264 q 224 -255 199 -264 q 264 -230 250 -247 q 277 -186 277 -212 q 251 -141 277 -156 q 181 -121 225 -126 l 248 0 l 321 0 l 280 -81 q 342 -113 314 -90 q 370 -186 370 -136 q 347 -262 370 -229 q 280 -314 324 -295 q 172 -334 235 -334 z "},"ş":{"ha":599,"x_min":8,"x_max":570,"o":"m 216 -14 q 97 0 149 -14 q 8 34 46 14 l 8 138 q 99 98 44 117 q 213 79 155 79 q 309 94 271 79 q 367 137 347 110 q 386 201 386 165 q 373 252 386 231 q 333 294 361 273 q 258 340 304 314 q 170 399 205 370 q 115 465 134 429 q 96 548 96 500 q 127 659 96 612 q 215 731 159 705 q 348 757 272 757 q 472 742 415 757 q 570 707 529 726 l 534 616 q 453 648 498 633 q 348 662 408 662 q 247 633 284 662 q 209 554 209 604 q 220 508 209 528 q 259 468 231 488 q 335 421 287 448 q 419 366 382 394 q 479 301 457 338 q 501 212 501 265 q 467 89 501 140 q 368 13 432 39 q 216 -14 304 -14 m 121 -334 q 85 -331 102 -334 q 57 -326 68 -329 l 57 -258 q 85 -262 71 -261 q 110 -264 99 -264 q 173 -255 147 -264 q 212 -230 199 -247 q 226 -186 226 -212 q 200 -141 226 -156 q 130 -121 174 -126 l 197 0 l 269 0 l 229 -81 q 291 -113 262 -90 q 319 -186 319 -136 q 296 -262 319 -229 q 228 -314 273 -295 q 121 -334 184 -334 z "},"Š":{"ha":700,"x_min":26,"x_max":736,"o":"m 259 -14 q 130 -3 185 -14 q 26 31 74 8 l 26 144 q 127 104 69 122 q 260 86 184 86 q 350 97 307 86 q 426 131 393 108 q 479 190 460 154 q 498 275 498 226 q 481 346 498 315 q 427 406 464 377 q 329 468 389 435 q 236 532 277 498 q 172 611 195 566 q 148 720 148 656 q 174 843 148 789 q 244 932 199 896 q 348 987 290 968 q 473 1006 407 1006 q 608 990 551 1006 q 720 948 666 975 l 675 850 q 584 887 637 871 q 473 904 531 904 q 393 893 430 904 q 328 859 356 882 q 285 804 300 837 q 269 728 269 771 q 286 654 269 684 q 335 602 302 625 q 414 550 367 578 q 521 480 475 515 q 593 399 567 445 q 618 284 618 353 q 592 154 618 210 q 518 61 566 98 q 404 5 470 24 q 259 -14 338 -14 m 430 1090 q 398 1162 418 1126 q 356 1234 378 1199 q 317 1295 334 1268 l 317 1312 l 385 1312 q 422 1276 404 1297 q 458 1230 440 1255 q 494 1181 477 1206 q 579 1253 536 1219 q 661 1312 623 1287 l 736 1312 l 735 1295 q 672 1237 711 1274 q 597 1161 634 1200 q 539 1090 559 1122 l 430 1090 z "},"š":{"ha":599,"x_min":8,"x_max":629,"o":"m 216 -14 q 97 0 149 -14 q 8 34 46 14 l 8 138 q 99 98 44 117 q 213 79 155 79 q 309 94 271 79 q 367 137 347 110 q 386 201 386 165 q 373 252 386 231 q 333 294 361 273 q 258 340 304 314 q 170 399 205 370 q 115 465 134 429 q 96 548 96 500 q 127 659 96 612 q 215 731 159 705 q 348 757 272 757 q 472 742 415 757 q 570 707 529 726 l 534 616 q 453 648 498 633 q 348 662 408 662 q 247 633 284 662 q 209 554 209 604 q 220 508 209 528 q 259 468 231 488 q 335 421 287 448 q 419 366 382 394 q 479 301 457 338 q 501 212 501 265 q 467 89 501 140 q 368 13 432 39 q 216 -14 304 -14 m 323 842 q 291 913 311 877 q 250 985 271 950 q 210 1046 228 1019 l 210 1063 l 279 1063 q 315 1027 297 1048 q 352 981 334 1006 q 387 932 370 957 q 473 1004 429 970 q 555 1063 517 1038 l 629 1063 l 629 1046 q 566 988 604 1025 q 490 912 528 951 q 433 842 453 873 l 323 842 z "},"Ț":{"ha":693,"x_min":121,"x_max":816,"o":"m 214 0 l 402 890 l 125 890 l 147 991 l 816 991 l 795 890 l 519 890 l 330 0 l 214 0 m 121 -307 l 121 -290 q 155 -230 136 -266 q 193 -154 175 -193 q 222 -85 211 -115 l 328 -85 l 328 -98 q 296 -160 319 -122 q 243 -237 273 -197 q 182 -307 213 -277 l 121 -307 z "},"ț":{"ha":458,"x_min":50,"x_max":500,"o":"m 251 -14 q 128 22 177 -14 q 79 144 79 58 q 81 190 79 165 q 90 241 84 215 l 178 657 l 63 657 l 74 709 l 197 757 l 279 914 l 346 914 l 309 743 l 500 743 l 482 657 l 292 657 l 203 240 q 195 199 199 221 q 191 158 191 178 q 209 101 191 124 q 268 79 227 79 q 317 83 294 79 q 367 97 340 88 l 367 10 q 316 -6 350 2 q 251 -14 281 -14 m 50 -307 l 50 -290 q 84 -230 64 -266 q 122 -154 104 -193 q 151 -85 140 -115 l 257 -85 l 257 -98 q 225 -160 248 -122 q 172 -237 201 -197 q 111 -307 142 -277 l 50 -307 z "},"Ť":{"ha":693,"x_min":125,"x_max":816,"o":"m 214 0 l 402 890 l 125 890 l 147 991 l 816 991 l 795 890 l 519 890 l 330 0 l 214 0 m 441 1090 q 409 1162 429 1126 q 367 1234 389 1199 q 328 1295 345 1268 l 328 1312 l 396 1312 q 433 1276 414 1297 q 469 1230 451 1255 q 505 1181 488 1206 q 590 1253 547 1219 q 672 1312 634 1287 l 747 1312 l 746 1295 q 683 1237 722 1274 q 608 1161 645 1200 q 550 1090 570 1122 l 441 1090 z "},"ť":{"ha":458,"x_min":63,"x_max":605,"o":"m 251 -14 q 128 22 177 -14 q 79 144 79 58 q 81 190 79 165 q 90 241 84 215 l 178 657 l 63 657 l 74 709 l 197 757 l 279 914 l 346 914 l 309 743 l 500 743 l 482 657 l 292 657 l 203 240 q 195 199 199 221 q 191 158 191 178 q 209 101 191 124 q 268 79 227 79 q 317 83 294 79 q 367 97 340 88 l 367 10 q 316 -6 350 2 q 251 -14 281 -14 m 395 833 l 395 849 q 431 909 411 872 q 469 985 450 946 q 498 1055 487 1025 l 605 1055 l 605 1042 q 572 980 595 1018 q 518 903 548 943 q 458 833 488 863 l 395 833 z "},"Ŧ":{"ha":693,"x_min":115,"x_max":816,"o":"m 214 0 l 311 458 l 115 458 l 136 553 l 329 553 l 402 890 l 125 890 l 147 991 l 816 991 l 795 890 l 519 890 l 446 553 l 646 553 l 627 458 l 427 458 l 330 0 l 214 0 z "},"ŧ":{"ha":458,"x_min":27,"x_max":500,"o":"m 251 -14 q 127 22 176 -14 q 79 144 79 58 q 82 190 79 165 q 90 241 85 215 l 121 393 l 27 393 l 45 477 l 139 477 l 178 657 l 63 657 l 74 709 l 197 757 l 279 914 l 346 914 l 309 743 l 500 743 l 482 657 l 292 657 l 253 477 l 419 477 l 401 393 l 235 393 l 203 240 q 195 199 199 221 q 191 158 191 178 q 209 101 191 124 q 268 79 227 79 q 317 83 294 79 q 367 97 340 88 l 367 10 q 316 -6 350 2 q 251 -14 281 -14 z "},"Ũ":{"ha":942,"x_min":111,"x_max":956,"o":"m 416 -14 q 247 18 315 -14 q 145 111 179 50 q 111 260 111 172 q 115 317 111 284 q 127 389 119 351 l 256 991 l 370 991 l 241 382 q 229 317 233 351 q 225 262 225 283 q 275 134 225 180 q 423 87 326 87 q 562 117 507 87 q 652 204 618 146 q 705 349 686 262 l 842 991 l 956 991 l 818 339 q 746 150 795 229 q 616 28 697 71 q 416 -14 536 -14 m 391 1093 q 425 1187 403 1149 q 477 1246 446 1226 q 548 1265 508 1265 q 605 1254 578 1265 q 656 1226 632 1242 q 700 1199 680 1211 q 740 1187 721 1187 q 787 1205 770 1187 q 822 1267 805 1223 l 892 1267 q 854 1172 877 1211 q 802 1113 832 1133 q 732 1093 771 1093 q 679 1105 704 1093 q 630 1133 654 1117 q 585 1161 607 1149 q 539 1173 562 1173 q 492 1153 510 1173 q 459 1093 475 1134 l 391 1093 z "},"ũ":{"ha":800,"x_min":77,"x_max":766,"o":"m 262 -14 q 164 7 206 -14 q 99 70 122 28 q 77 170 77 111 q 81 228 77 200 q 91 287 85 256 l 189 743 l 303 743 l 202 274 q 194 222 197 245 q 191 182 191 199 q 215 107 191 134 q 294 80 240 80 q 401 115 345 80 q 505 223 457 149 q 578 416 553 298 l 647 743 l 758 743 l 601 0 l 508 0 l 526 144 l 520 144 q 458 72 494 109 q 373 11 421 36 q 262 -14 325 -14 m 264 844 q 298 939 277 900 q 351 997 320 977 q 422 1017 382 1017 q 479 1005 452 1017 q 530 977 506 993 q 574 950 553 962 q 614 938 595 938 q 661 956 644 938 q 696 1018 679 974 l 766 1018 q 728 923 751 962 q 675 864 706 884 q 606 844 645 844 q 553 856 578 844 q 504 884 528 868 q 458 912 481 900 q 413 924 436 924 q 366 904 384 924 q 333 844 349 885 l 264 844 z "},"Ū":{"ha":942,"x_min":111,"x_max":956,"o":"m 416 -14 q 247 18 315 -14 q 145 111 179 50 q 111 260 111 172 q 115 317 111 284 q 127 389 119 351 l 256 991 l 370 991 l 241 382 q 229 317 233 351 q 225 262 225 283 q 275 134 225 180 q 423 87 326 87 q 562 117 507 87 q 652 204 618 146 q 705 349 686 262 l 842 991 l 956 991 l 818 339 q 746 150 795 229 q 616 28 697 71 q 416 -14 536 -14 m 435 1092 l 454 1183 l 824 1183 l 805 1092 l 435 1092 z "},"ū":{"ha":800,"x_min":77,"x_max":758,"o":"m 262 -14 q 164 7 206 -14 q 99 70 122 28 q 77 170 77 111 q 81 228 77 200 q 91 287 85 256 l 189 743 l 303 743 l 202 274 q 194 222 197 245 q 191 182 191 199 q 215 107 191 134 q 294 80 240 80 q 401 115 345 80 q 505 223 457 149 q 578 416 553 298 l 647 743 l 758 743 l 601 0 l 508 0 l 526 144 l 520 144 q 458 72 494 109 q 373 11 421 36 q 262 -14 325 -14 m 309 843 l 328 935 l 698 935 l 679 843 l 309 843 z "},"Ŭ":{"ha":942,"x_min":111,"x_max":956,"o":"m 416 -14 q 247 18 315 -14 q 145 111 179 50 q 111 260 111 172 q 115 317 111 284 q 127 389 119 351 l 256 991 l 370 991 l 241 382 q 229 317 233 351 q 225 262 225 283 q 275 134 225 180 q 423 87 326 87 q 562 117 507 87 q 652 204 618 146 q 705 349 686 262 l 842 991 l 956 991 l 818 339 q 746 150 795 229 q 616 28 697 71 q 416 -14 536 -14 m 621 1090 q 534 1108 572 1090 q 474 1160 496 1126 q 452 1243 452 1194 q 453 1258 452 1251 q 454 1274 453 1265 l 522 1274 q 532 1226 522 1246 q 566 1196 542 1206 q 632 1185 591 1185 q 728 1209 696 1185 q 771 1274 760 1233 l 843 1274 q 764 1133 820 1176 q 621 1090 707 1090 z "},"ŭ":{"ha":800,"x_min":77,"x_max":758,"o":"m 262 -14 q 164 7 206 -14 q 99 70 122 28 q 77 170 77 111 q 81 228 77 200 q 91 287 85 256 l 189 743 l 303 743 l 202 274 q 194 222 197 245 q 191 182 191 199 q 215 107 191 134 q 294 80 240 80 q 401 115 345 80 q 505 223 457 149 q 578 416 553 298 l 647 743 l 758 743 l 601 0 l 508 0 l 526 144 l 520 144 q 458 72 494 109 q 373 11 421 36 q 262 -14 325 -14 m 496 842 q 409 859 448 842 q 349 911 371 877 q 328 994 328 945 q 328 1009 328 1002 q 329 1025 328 1017 l 397 1025 q 407 978 397 998 q 441 947 417 958 q 507 936 466 936 q 603 960 571 936 q 646 1025 635 984 l 718 1025 q 639 884 695 927 q 496 842 583 842 z "},"Ů":{"ha":942,"x_min":111,"x_max":956,"o":"m 416 -14 q 247 18 315 -14 q 145 111 179 50 q 111 260 111 172 q 115 317 111 284 q 127 389 119 351 l 256 991 l 370 991 l 241 382 q 229 317 233 351 q 225 262 225 283 q 275 134 225 180 q 423 87 326 87 q 562 117 507 87 q 652 204 618 146 q 705 349 686 262 l 842 991 l 956 991 l 818 339 q 746 150 795 229 q 616 28 697 71 q 416 -14 536 -14 m 631 1091 q 524 1129 566 1091 q 482 1236 482 1168 q 526 1342 482 1304 q 631 1380 570 1380 q 739 1342 696 1380 q 781 1238 781 1304 q 738 1129 781 1168 q 631 1091 695 1091 m 631 1156 q 689 1178 667 1156 q 711 1236 711 1200 q 689 1295 711 1273 q 631 1316 666 1316 q 574 1295 597 1316 q 551 1236 551 1273 q 572 1178 551 1200 q 631 1156 593 1156 z "},"ů":{"ha":800,"x_min":77,"x_max":758,"o":"m 262 -14 q 164 7 206 -14 q 99 70 122 28 q 77 170 77 111 q 81 228 77 200 q 91 287 85 256 l 189 743 l 303 743 l 202 274 q 194 222 197 245 q 191 182 191 199 q 215 107 191 134 q 294 80 240 80 q 401 115 345 80 q 505 223 457 149 q 578 416 553 298 l 647 743 l 758 743 l 601 0 l 508 0 l 526 144 l 520 144 q 458 72 494 109 q 373 11 421 36 q 262 -14 325 -14 m 507 842 q 400 881 442 842 q 359 987 359 919 q 402 1093 359 1055 q 507 1131 446 1131 q 615 1093 573 1131 q 657 989 657 1055 q 614 881 657 919 q 507 842 572 842 m 507 907 q 566 929 543 907 q 588 987 588 951 q 565 1046 588 1024 q 507 1067 543 1067 q 451 1046 474 1067 q 428 987 428 1024 q 449 929 428 951 q 507 907 470 907 z "},"Ű":{"ha":942,"x_min":111,"x_max":968,"o":"m 416 -14 q 247 18 315 -14 q 145 111 179 50 q 111 260 111 172 q 115 317 111 284 q 127 389 119 351 l 256 991 l 370 991 l 241 382 q 229 317 233 351 q 225 262 225 283 q 275 134 225 180 q 423 87 326 87 q 562 117 507 87 q 652 204 618 146 q 705 349 686 262 l 842 991 l 956 991 l 818 339 q 746 150 795 229 q 616 28 697 71 q 416 -14 536 -14 m 693 1090 l 693 1107 q 748 1171 718 1135 q 805 1244 777 1206 q 852 1313 833 1282 l 968 1313 l 968 1299 q 929 1253 954 1280 q 873 1195 903 1225 q 811 1138 842 1165 q 753 1090 779 1110 l 693 1090 m 460 1090 l 460 1107 q 514 1171 485 1135 q 572 1244 544 1206 q 619 1313 600 1282 l 735 1313 l 735 1299 q 695 1253 721 1280 q 640 1195 670 1225 q 577 1138 609 1165 q 519 1090 546 1110 l 460 1090 z "},"ű":{"ha":800,"x_min":77,"x_max":844,"o":"m 262 -14 q 164 7 206 -14 q 99 70 122 28 q 77 170 77 111 q 81 228 77 200 q 91 287 85 256 l 189 743 l 303 743 l 202 274 q 194 222 197 245 q 191 182 191 199 q 215 107 191 134 q 294 80 240 80 q 401 115 345 80 q 505 223 457 149 q 578 416 553 298 l 647 743 l 758 743 l 601 0 l 508 0 l 526 144 l 520 144 q 458 72 494 109 q 373 11 421 36 q 262 -14 325 -14 m 568 842 l 568 859 q 623 922 593 886 q 681 995 652 958 q 728 1064 709 1033 l 844 1064 l 844 1050 q 804 1004 829 1031 q 748 946 779 977 q 686 889 718 916 q 628 842 654 861 l 568 842 m 335 842 l 335 859 q 390 922 360 886 q 447 995 419 958 q 494 1064 475 1033 l 610 1064 l 610 1050 q 571 1004 596 1031 q 515 946 545 977 q 453 889 484 916 q 395 842 421 861 l 335 842 z "},"Ų":{"ha":942,"x_min":111,"x_max":956,"o":"m 416 -14 q 247 18 315 -14 q 145 111 179 50 q 111 260 111 172 q 115 317 111 284 q 127 389 119 351 l 256 991 l 370 991 l 241 382 q 229 317 233 351 q 225 262 225 283 q 275 134 225 180 q 423 87 326 87 q 562 117 507 87 q 652 204 618 146 q 705 349 686 262 l 842 991 l 956 991 l 818 339 q 746 150 795 229 q 616 28 697 71 q 416 -14 536 -14 m 404 -301 q 318 -275 353 -301 q 284 -193 284 -248 q 304 -115 284 -149 q 357 -52 323 -81 q 432 2 391 -24 l 510 0 q 451 -49 482 -22 q 398 -108 420 -76 q 376 -178 376 -140 q 390 -214 376 -203 q 425 -226 403 -226 q 454 -224 440 -226 q 481 -220 468 -222 l 481 -292 q 444 -299 464 -296 q 404 -301 424 -301 z "},"ų":{"ha":800,"x_min":77,"x_max":758,"o":"m 262 -14 q 164 7 206 -14 q 99 70 122 28 q 77 170 77 111 q 81 228 77 200 q 91 287 85 256 l 189 743 l 303 743 l 202 274 q 194 222 197 245 q 191 182 191 199 q 215 107 191 134 q 294 80 240 80 q 401 115 345 80 q 505 223 457 149 q 578 416 553 298 l 647 743 l 758 743 l 601 0 l 508 0 l 526 144 l 520 144 q 458 72 494 109 q 373 11 421 36 q 262 -14 325 -14 m 484 -301 q 398 -275 433 -301 q 364 -193 364 -248 q 384 -115 364 -149 q 437 -52 404 -81 q 512 2 471 -24 l 590 0 q 531 -49 562 -22 q 478 -108 500 -76 q 456 -178 456 -140 q 470 -214 456 -203 q 505 -226 483 -226 q 534 -224 520 -226 q 561 -220 548 -222 l 561 -292 q 524 -299 544 -296 q 484 -301 504 -301 z "},"Ŵ":{"ha":1184,"x_min":151,"x_max":1301,"o":"m 194 0 l 151 991 l 264 991 l 286 371 q 286 257 288 315 q 281 144 284 198 l 285 144 q 331 263 304 197 q 386 389 357 329 l 668 991 l 784 991 l 814 391 q 820 261 819 329 q 821 143 821 193 l 825 143 q 850 216 837 178 q 879 294 864 254 q 911 374 894 334 l 1180 991 l 1301 991 l 852 0 l 735 0 l 703 657 q 699 720 701 687 q 697 784 698 752 q 697 844 697 816 l 693 844 q 663 762 680 803 q 616 656 645 720 l 311 0 l 194 0 m 524 1090 l 524 1107 q 587 1166 549 1130 q 662 1242 625 1203 q 718 1312 699 1282 l 827 1312 q 861 1240 840 1277 q 903 1169 881 1203 q 942 1107 925 1135 l 942 1090 l 871 1090 q 836 1128 854 1107 q 799 1173 818 1149 q 763 1222 781 1197 q 679 1151 722 1185 q 599 1090 636 1116 l 524 1090 z "},"ŵ":{"ha":994,"x_min":79,"x_max":1045,"o":"m 111 0 l 79 743 l 189 743 l 202 333 q 202 200 204 259 q 198 102 201 141 l 203 102 q 229 168 214 130 q 261 243 244 205 q 292 312 277 281 l 496 743 l 616 743 l 644 332 q 646 217 645 281 q 646 102 648 153 l 651 102 q 678 177 663 136 q 713 266 694 219 q 753 361 732 313 l 926 743 l 1045 743 l 700 0 l 566 0 l 541 418 q 538 486 538 453 q 538 555 538 519 q 538 631 538 590 l 533 631 q 509 569 521 598 q 483 507 497 540 q 447 430 468 475 l 243 0 l 111 0 m 360 842 l 361 859 q 423 918 385 881 q 498 994 461 954 q 555 1063 535 1033 l 663 1063 q 697 991 677 1028 q 740 920 718 954 q 779 859 762 886 l 779 842 l 708 842 q 673 879 691 858 q 636 924 654 900 q 600 973 617 948 q 515 902 558 936 q 435 842 473 867 l 360 842 z "},"Ŷ":{"ha":703,"x_min":128,"x_max":831,"o":"m 212 0 l 292 373 l 128 991 l 243 991 l 367 486 l 702 991 l 831 991 l 404 370 l 328 0 l 212 0 m 282 1090 l 283 1107 q 345 1166 307 1130 q 420 1242 383 1203 q 477 1312 457 1282 l 585 1312 q 619 1240 599 1277 q 662 1169 640 1203 q 701 1107 684 1135 l 701 1090 l 630 1090 q 595 1128 613 1107 q 558 1173 576 1149 q 522 1222 539 1197 q 437 1151 480 1185 q 357 1090 395 1116 l 282 1090 z "},"ŷ":{"ha":640,"x_min":-134,"x_max":707,"o":"m -39 -334 q -93 -330 -73 -334 q -134 -320 -114 -326 l -134 -229 q -93 -237 -115 -233 q -45 -241 -71 -241 q 50 -205 10 -241 q 128 -102 90 -170 l 180 -9 l 66 743 l 180 743 l 232 361 q 243 266 239 317 q 249 169 247 214 q 251 94 251 123 l 255 94 q 283 159 264 117 q 324 248 302 201 q 363 325 346 294 l 586 743 l 707 743 l 231 -129 q 156 -242 194 -197 q 71 -311 117 -288 q -39 -334 24 -334 m 174 842 l 174 859 q 237 918 199 881 q 312 994 275 954 q 368 1063 349 1033 l 477 1063 q 511 991 490 1028 q 553 920 531 954 q 592 859 575 886 l 592 842 l 522 842 q 486 879 505 858 q 449 924 468 900 q 413 973 431 948 q 329 902 372 936 q 249 842 286 867 l 174 842 z "},"Ÿ":{"ha":703,"x_min":128,"x_max":831,"o":"m 212 0 l 292 373 l 128 991 l 243 991 l 367 486 l 702 991 l 831 991 l 404 370 l 328 0 l 212 0 m 635 1128 q 596 1142 612 1128 q 581 1183 581 1156 q 598 1236 581 1213 q 651 1259 616 1259 q 690 1245 677 1259 q 703 1207 703 1231 q 682 1149 703 1171 q 635 1128 661 1128 m 387 1128 q 347 1142 362 1128 q 332 1183 332 1156 q 349 1236 332 1213 q 401 1259 367 1259 q 431 1253 419 1259 q 448 1235 442 1246 q 454 1207 454 1223 q 433 1149 454 1171 q 387 1128 413 1128 z "},"Ź":{"ha":739,"x_min":-14,"x_max":795,"o":"m -14 0 l 4 89 l 636 888 l 189 888 l 211 991 l 795 991 l 779 901 l 148 103 l 623 103 l 602 0 l -14 0 m 450 1090 l 450 1107 q 505 1171 475 1135 q 562 1244 534 1206 q 610 1313 590 1282 l 738 1313 l 738 1299 q 697 1253 723 1280 q 641 1195 672 1225 q 579 1138 610 1165 q 521 1090 548 1110 l 450 1090 z "},"ź":{"ha":616,"x_min":-21,"x_max":624,"o":"m -21 0 l -5 77 l 468 658 l 140 658 l 158 743 l 609 743 l 591 653 l 125 85 l 488 85 l 471 0 l -21 0 m 336 842 l 336 859 q 391 922 361 886 q 448 995 420 958 q 496 1064 476 1033 l 624 1064 l 624 1050 q 584 1004 609 1031 q 527 946 558 977 q 465 889 496 916 q 407 842 434 861 l 336 842 z "},"Ż":{"ha":739,"x_min":-14,"x_max":795,"o":"m -14 0 l 4 89 l 636 888 l 189 888 l 211 991 l 795 991 l 779 901 l 148 103 l 623 103 l 602 0 l -14 0 m 532 1122 q 488 1138 506 1122 q 469 1183 469 1154 q 490 1243 469 1217 q 547 1269 511 1269 q 581 1262 568 1269 q 601 1241 594 1255 q 608 1210 608 1228 q 584 1146 608 1170 q 532 1122 561 1122 z "},"ż":{"ha":616,"x_min":-21,"x_max":609,"o":"m -21 0 l -5 77 l 468 658 l 140 658 l 158 743 l 609 743 l 591 653 l 125 85 l 488 85 l 471 0 l -21 0 m 419 873 q 374 889 393 873 q 356 935 356 905 q 377 994 356 968 q 434 1020 397 1020 q 468 1013 454 1020 q 488 992 481 1006 q 494 961 494 979 q 471 897 494 921 q 419 873 448 873 z "},"Ž":{"ha":739,"x_min":-14,"x_max":795,"o":"m -14 0 l 4 89 l 636 888 l 189 888 l 211 991 l 795 991 l 779 901 l 148 103 l 623 103 l 602 0 l -14 0 m 463 1090 q 430 1162 450 1126 q 389 1234 410 1199 q 349 1295 367 1268 l 349 1312 l 418 1312 q 454 1276 436 1297 q 491 1230 473 1255 q 526 1181 509 1206 q 612 1253 568 1219 q 694 1312 656 1287 l 768 1312 l 768 1295 q 705 1237 743 1274 q 629 1161 667 1200 q 572 1090 592 1122 l 463 1090 z "},"ž":{"ha":616,"x_min":-21,"x_max":654,"o":"m -21 0 l -5 77 l 468 658 l 140 658 l 158 743 l 609 743 l 591 653 l 125 85 l 488 85 l 471 0 l -21 0 m 348 842 q 316 913 336 877 q 274 985 296 950 q 235 1046 252 1019 l 235 1063 l 303 1063 q 340 1027 321 1048 q 376 981 358 1006 q 412 932 395 957 q 497 1004 454 970 q 579 1063 541 1038 l 654 1063 l 653 1046 q 590 988 629 1025 q 515 912 552 951 q 457 842 477 873 l 348 842 z "},"ſ":{"ha":391,"x_min":-177,"x_max":592,"o":"m -92 -334 q -139 -330 -117 -334 q -177 -319 -161 -326 l -177 -224 q -141 -235 -159 -231 q -101 -239 -122 -239 q -25 -200 -57 -239 q 22 -81 6 -161 l 212 821 q 264 965 232 913 q 346 1040 297 1018 q 462 1063 395 1063 q 534 1055 498 1063 q 592 1037 570 1046 l 562 951 q 518 964 543 958 q 469 970 494 970 q 402 956 430 970 q 356 909 374 942 q 327 820 338 876 l 134 -94 q 90 -223 117 -170 q 18 -305 62 -277 q -92 -334 -26 -334 z "},"ƒ":{"ha":765,"x_min":1,"x_max":757,"o":"m 87 -334 q 40 -330 62 -334 q 1 -319 18 -326 l 1 -224 q 37 -235 18 -231 q 79 -239 56 -239 q 154 -201 122 -239 q 201 -84 186 -162 l 340 570 l 210 570 l 218 616 l 357 659 l 377 759 q 428 906 395 852 q 511 983 461 960 q 629 1006 561 1006 q 700 998 664 1006 q 757 980 735 990 l 727 894 q 684 907 707 901 q 635 913 661 913 q 543 880 576 913 q 491 758 509 847 l 469 654 l 630 654 l 612 570 l 451 570 l 311 -96 q 267 -224 295 -171 q 196 -306 239 -277 q 87 -334 152 -334 z "},"Ǻ":{"ha":779,"x_min":-78,"x_max":772,"o":"m -78 0 l 401 876 q 376 919 385 894 q 367 975 367 943 q 411 1081 367 1042 q 516 1120 455 1120 q 625 1081 582 1120 q 667 975 667 1042 q 649 902 667 933 q 600 851 630 870 l 711 0 l 599 0 l 559 316 l 217 316 l 47 0 l -78 0 m 273 418 l 547 418 l 520 633 q 511 731 515 683 q 503 820 506 779 l 484 821 q 440 732 463 779 q 389 633 416 684 l 273 418 m 516 895 q 574 916 552 895 q 596 975 596 938 q 574 1033 596 1011 q 516 1055 551 1055 q 459 1033 482 1055 q 436 975 436 1011 q 457 916 436 938 q 516 895 479 895 m 474 1154 l 474 1167 q 528 1220 499 1190 q 584 1281 556 1250 q 631 1338 611 1312 l 772 1338 l 772 1326 q 715 1274 753 1305 q 634 1210 677 1242 q 554 1154 591 1177 l 474 1154 z "},"ǻ":{"ha":785,"x_min":67,"x_max":758,"o":"m 269 -14 q 163 16 208 -14 q 92 102 117 45 q 67 241 67 159 q 84 399 67 323 q 134 540 102 475 q 211 654 165 605 q 312 730 256 703 q 433 757 368 757 q 520 738 484 757 q 582 688 557 719 q 621 623 607 657 l 628 623 l 671 743 l 758 743 l 600 0 l 510 0 l 530 144 l 525 144 q 455 67 494 103 q 369 9 416 31 q 269 -14 322 -14 m 305 80 q 409 118 357 80 q 501 222 460 157 q 564 370 542 288 q 578 443 574 410 q 582 506 582 477 q 545 619 582 576 q 444 662 508 662 q 359 639 399 662 q 287 576 319 616 q 231 483 254 536 q 196 367 208 429 q 183 239 183 304 q 215 120 183 161 q 305 80 247 80 m 492 812 q 384 850 426 812 q 342 956 342 888 q 387 1062 342 1024 q 492 1101 431 1101 q 598 1062 556 1101 q 641 957 641 1024 q 598 850 641 888 q 492 812 556 812 m 492 876 q 549 898 526 876 q 572 956 572 920 q 549 1015 572 994 q 492 1036 526 1036 q 434 1015 456 1036 q 412 956 412 994 q 433 898 412 920 q 492 876 453 876 m 452 1151 l 452 1163 q 506 1216 477 1186 q 562 1277 534 1246 q 609 1333 589 1308 l 750 1333 l 750 1322 q 693 1270 731 1301 q 611 1206 655 1238 q 530 1151 568 1173 l 452 1151 z "},"Ǽ":{"ha":1139,"x_min":-79,"x_max":1193,"o":"m -79 0 l 553 991 l 1193 991 l 1173 890 l 782 890 l 712 569 l 1078 569 l 1059 469 l 694 469 l 616 102 l 1005 102 l 983 0 l 478 0 l 545 316 l 249 316 l 52 0 l -79 0 m 314 418 l 566 418 l 666 890 l 609 890 l 314 418 m 655 1090 l 655 1107 q 709 1171 680 1135 q 767 1244 739 1206 q 814 1313 795 1282 l 943 1313 l 943 1299 q 902 1253 928 1280 q 846 1195 877 1225 q 784 1138 815 1165 q 726 1090 753 1110 l 655 1090 z "},"ǽ":{"ha":1142,"x_min":67,"x_max":1108,"o":"m 248 -14 q 153 16 194 -14 q 90 101 113 45 q 67 239 67 158 q 84 399 67 322 q 133 541 101 475 q 209 654 165 606 q 307 730 253 703 q 422 757 361 757 q 502 738 469 757 q 557 688 535 719 q 592 623 579 657 l 599 623 l 644 743 l 717 743 l 695 639 q 790 724 732 691 q 926 757 848 757 q 1054 714 1000 757 q 1108 585 1108 672 q 1082 481 1108 529 q 1002 399 1056 434 q 867 345 949 364 q 672 326 785 326 l 642 326 q 641 298 642 313 q 640 271 640 283 q 683 131 640 182 q 817 80 726 80 q 917 96 869 80 q 1016 136 964 113 l 1016 37 q 910 -1 964 12 q 796 -14 856 -14 q 664 15 721 -14 q 581 104 608 44 l 558 0 l 483 0 l 501 143 l 496 143 q 423 62 460 97 q 343 6 386 26 q 248 -14 301 -14 m 285 80 q 361 102 323 80 q 433 163 399 124 q 493 256 467 203 q 536 370 519 309 q 550 444 547 410 q 554 506 554 477 q 524 619 554 576 q 437 662 493 662 q 355 639 394 662 q 285 576 317 616 q 231 483 254 536 q 195 367 208 429 q 183 239 183 305 q 210 120 183 161 q 285 80 237 80 m 659 418 l 677 418 q 837 433 764 418 q 953 483 909 448 q 997 574 997 517 q 970 642 997 620 q 904 663 943 663 q 803 634 851 663 q 718 551 755 606 q 659 418 681 496 m 601 842 l 601 859 q 655 922 626 886 q 712 995 684 958 q 760 1064 741 1033 l 888 1064 l 888 1050 q 848 1004 873 1031 q 792 946 823 977 q 730 889 761 916 q 671 842 699 861 l 601 842 z "},"Ǿ":{"ha":1001,"x_min":75,"x_max":994,"o":"m 147 -55 l 75 5 l 171 123 q 119 235 136 172 q 102 372 102 298 q 117 536 102 457 q 161 687 132 616 q 234 816 191 758 q 332 918 277 875 q 455 984 388 960 q 602 1007 523 1007 q 726 988 670 1007 q 827 930 781 969 l 919 1042 l 994 983 l 890 859 q 939 752 922 816 q 956 616 956 689 q 943 456 956 534 q 902 307 929 378 q 834 178 875 237 q 739 77 793 119 q 617 10 685 34 q 467 -14 549 -14 q 340 4 397 -14 q 239 56 284 21 l 147 -55 m 471 87 q 579 108 530 87 q 670 165 629 128 q 742 251 711 201 q 793 360 772 300 q 825 485 814 419 q 836 619 836 551 q 830 696 836 660 q 812 759 823 732 l 307 142 q 378 102 336 117 q 471 87 419 87 m 251 221 l 757 844 q 686 890 727 874 q 593 907 646 907 q 485 887 535 907 q 393 832 435 867 q 320 747 352 796 q 267 638 288 698 q 234 513 245 579 q 222 375 222 446 q 230 291 222 331 q 251 221 237 252 m 592 1075 l 592 1092 q 646 1155 617 1119 q 704 1229 675 1191 q 751 1297 732 1266 l 880 1297 l 880 1284 q 839 1237 865 1265 q 783 1180 814 1210 q 721 1122 752 1149 q 663 1075 690 1095 l 592 1075 z "},"ǿ":{"ha":782,"x_min":35,"x_max":754,"o":"m 104 -52 l 35 2 l 115 98 q 80 177 92 134 q 68 275 68 221 q 84 414 68 345 q 130 544 100 483 q 205 653 160 606 q 309 727 250 700 q 441 753 368 753 q 537 741 495 753 q 613 705 580 728 l 686 791 l 754 740 l 672 650 q 704 570 694 617 q 713 477 713 524 q 699 338 713 408 q 654 205 684 268 q 579 94 624 143 q 476 17 535 45 q 344 -11 417 -11 q 251 1 294 -11 q 175 37 208 14 l 104 -52 m 349 80 q 430 98 391 80 q 500 149 468 115 q 555 229 532 182 q 591 336 578 276 q 604 466 604 396 q 602 512 604 490 q 593 546 599 533 l 239 115 q 287 89 258 98 q 349 80 316 80 m 191 191 l 549 625 q 506 650 532 640 q 442 661 481 661 q 354 641 395 661 q 281 586 313 621 q 225 503 248 551 q 190 399 202 456 q 178 281 178 343 q 181 229 178 252 q 191 191 185 205 m 443 842 l 443 859 q 497 922 468 886 q 554 995 526 958 q 602 1064 583 1033 l 730 1064 l 730 1050 q 690 1004 715 1031 q 634 946 665 977 q 572 889 603 916 q 513 842 541 861 l 443 842 z "},"Ș":{"ha":700,"x_min":26,"x_max":720,"o":"m 259 -14 q 130 -3 185 -14 q 26 31 74 8 l 26 144 q 127 104 69 122 q 260 86 184 86 q 350 97 307 86 q 426 131 393 108 q 479 190 460 154 q 498 275 498 226 q 481 346 498 315 q 427 406 464 377 q 329 468 389 435 q 236 532 277 498 q 172 611 195 566 q 148 720 148 656 q 174 843 148 789 q 244 932 199 896 q 348 987 290 968 q 473 1006 407 1006 q 608 990 551 1006 q 720 948 666 975 l 675 850 q 584 887 637 871 q 473 904 531 904 q 393 893 430 904 q 328 859 356 882 q 285 804 300 837 q 269 728 269 771 q 286 654 269 684 q 335 602 302 625 q 414 550 367 578 q 521 480 475 515 q 593 399 567 445 q 618 284 618 353 q 592 154 618 210 q 518 61 566 98 q 404 5 470 24 q 259 -14 338 -14 m 125 -307 l 125 -290 q 159 -230 140 -266 q 197 -154 179 -193 q 226 -85 215 -115 l 332 -85 l 332 -98 q 300 -160 323 -122 q 247 -237 277 -197 q 186 -307 217 -277 l 125 -307 z "},"ș":{"ha":599,"x_min":8,"x_max":570,"o":"m 216 -14 q 97 0 149 -14 q 8 34 46 14 l 8 138 q 99 98 44 117 q 213 79 155 79 q 309 94 271 79 q 367 137 347 110 q 386 201 386 165 q 373 252 386 231 q 333 294 361 273 q 258 340 304 314 q 170 399 205 370 q 115 465 134 429 q 96 548 96 500 q 127 659 96 612 q 215 731 159 705 q 348 757 272 757 q 472 742 415 757 q 570 707 529 726 l 534 616 q 453 648 498 633 q 348 662 408 662 q 247 633 284 662 q 209 554 209 604 q 220 508 209 528 q 259 468 231 488 q 335 421 287 448 q 419 366 382 394 q 479 301 457 338 q 501 212 501 265 q 467 89 501 140 q 368 13 432 39 q 216 -14 304 -14 m 73 -307 l 73 -290 q 108 -230 88 -266 q 145 -154 127 -193 q 174 -85 163 -115 l 281 -85 l 281 -98 q 249 -160 272 -122 q 195 -237 225 -197 q 135 -307 165 -277 l 73 -307 z "},"ˆ":{"ha":534,"x_min":159,"x_max":578,"o":"m 159 842 l 160 859 q 222 918 184 881 q 297 994 260 954 q 354 1063 334 1033 l 463 1063 q 496 991 476 1028 q 539 920 517 954 q 578 859 561 886 l 578 842 l 507 842 q 472 879 490 858 q 435 924 454 900 q 399 973 416 948 q 315 902 357 936 q 235 842 272 867 l 159 842 z "},"ˇ":{"ha":534,"x_min":203,"x_max":622,"o":"m 316 842 q 284 913 304 877 q 242 985 264 950 q 203 1046 220 1019 l 203 1063 l 271 1063 q 308 1027 290 1048 q 345 981 326 1006 q 380 932 363 957 q 466 1004 422 970 q 547 1063 509 1038 l 622 1063 l 621 1046 q 558 988 597 1025 q 483 912 520 951 q 425 842 446 873 l 316 842 z "},"ˉ":{"ha":481,"x_min":156,"x_max":545,"o":"m 156 843 l 175 935 l 545 935 l 526 843 l 156 843 z "},"˘":{"ha":500,"x_min":193,"x_max":583,"o":"m 361 842 q 274 859 313 842 q 214 911 236 877 q 193 994 193 945 q 193 1009 193 1002 q 194 1025 193 1017 l 262 1025 q 272 978 262 998 q 307 947 282 958 q 372 936 331 936 q 468 960 436 936 q 511 1025 500 984 l 583 1025 q 504 884 560 927 q 361 842 448 842 z "},"˙":{"ha":249,"x_min":178,"x_max":316,"o":"m 241 873 q 196 889 214 873 q 178 935 178 905 q 198 994 178 968 q 256 1020 219 1020 q 289 1013 276 1020 q 309 992 302 1006 q 316 961 316 979 q 293 897 316 921 q 241 873 269 873 z "},"˚":{"ha":418,"x_min":191,"x_max":489,"o":"m 339 842 q 232 881 274 842 q 191 987 191 919 q 234 1093 191 1055 q 339 1131 278 1131 q 447 1093 405 1131 q 489 989 489 1055 q 446 881 489 919 q 339 842 404 842 m 339 907 q 397 929 375 907 q 420 987 420 951 q 397 1046 420 1024 q 339 1067 374 1067 q 283 1046 306 1067 q 260 987 260 1024 q 281 929 260 951 q 339 907 302 907 z "},"˛":{"ha":334,"x_min":-60,"x_max":166,"o":"m 60 -301 q -25 -275 9 -301 q -60 -193 -60 -248 q -40 -115 -60 -149 q 13 -52 -20 -81 q 88 2 47 -24 l 166 0 q 107 -49 138 -22 q 54 -108 76 -76 q 33 -178 33 -140 q 46 -214 33 -203 q 81 -226 59 -226 q 110 -224 96 -226 q 137 -220 124 -222 l 137 -292 q 100 -299 120 -296 q 60 -301 80 -301 z "},"˜":{"ha":576,"x_min":156,"x_max":657,"o":"m 156 844 q 190 939 168 900 q 242 997 212 977 q 313 1017 273 1017 q 371 1005 344 1017 q 421 977 397 993 q 466 950 445 962 q 505 938 486 938 q 553 956 535 938 q 587 1018 570 974 l 657 1018 q 620 923 642 962 q 567 864 597 884 q 497 844 536 844 q 444 856 469 844 q 396 884 419 868 q 350 912 372 900 q 304 924 328 924 q 258 904 275 924 q 224 844 240 885 l 156 844 z "},"˝":{"ha":579,"x_min":160,"x_max":669,"o":"m 393 842 l 393 859 q 448 922 418 886 q 506 995 477 958 q 553 1064 534 1033 l 669 1064 l 669 1050 q 629 1004 654 1031 q 573 946 604 977 q 511 889 543 916 q 453 842 479 861 l 393 842 m 160 842 l 160 859 q 215 922 185 886 q 272 995 244 958 q 319 1064 300 1033 l 435 1064 l 435 1050 q 396 1004 421 1031 q 340 946 370 977 q 278 889 309 916 q 220 842 246 861 l 160 842 z "},"΄":{"ha":778,"x_min":421,"x_max":663,"o":"m 421 842 l 421 860 q 452 919 435 886 q 485 987 469 951 q 517 1057 502 1022 q 543 1120 532 1091 l 663 1120 l 663 1101 q 634 1046 653 1079 q 591 977 615 1014 q 541 905 566 941 q 492 842 515 869 l 421 842 z "},"΅":{"ha":616,"x_min":208,"x_max":649,"o":"m 378 941 l 378 955 q 412 1019 393 983 q 449 1093 431 1055 q 481 1164 467 1131 l 606 1164 l 606 1150 q 558 1084 586 1120 q 497 1010 530 1048 q 430 941 464 973 l 378 941 m 263 879 q 224 893 239 879 q 208 934 208 908 q 226 987 208 964 q 277 1011 244 1011 q 317 997 305 1011 q 330 958 330 982 q 309 900 330 922 q 263 879 288 879 m 582 879 q 543 893 559 879 q 528 934 528 908 q 545 987 528 964 q 596 1011 563 1011 q 636 997 623 1011 q 649 958 649 982 q 628 900 649 922 q 582 879 608 879 z "},"Ά":{"ha":779,"x_min":-78,"x_max":711,"o":"m -78 0 l 465 991 l 585 991 l 711 0 l 597 0 l 558 316 l 216 316 l 47 0 l -78 0 m 271 418 l 547 418 l 520 650 q 510 760 515 700 q 503 867 505 820 l 499 867 q 450 759 477 816 q 392 645 422 703 l 271 418 m 68 714 l 68 732 q 99 791 83 758 q 133 859 116 824 q 164 929 149 895 q 190 992 179 964 l 310 992 l 310 973 q 281 919 300 951 q 238 850 262 886 q 188 778 214 813 q 140 714 162 742 l 68 714 z "},"·":{"ha":351,"x_min":144,"x_max":308,"o":"m 212 585 q 162 603 180 585 q 144 653 144 621 q 169 729 144 696 q 244 762 193 762 q 290 744 273 762 q 308 692 308 726 q 284 618 308 652 q 212 585 260 585 z "},"Έ":{"ha":842,"x_min":66,"x_max":895,"o":"m 183 0 l 393 991 l 895 991 l 873 890 l 486 890 l 417 569 l 781 569 l 761 469 l 397 469 l 318 102 l 707 102 l 685 0 l 183 0 m 66 714 l 66 732 q 97 791 81 758 q 131 859 114 824 q 162 929 147 895 q 188 992 177 964 l 308 992 l 308 973 q 279 919 298 951 q 236 850 260 886 q 186 778 212 813 q 138 714 160 742 l 66 714 z "},"Ή":{"ha":1047,"x_min":54,"x_max":1051,"o":"m 162 0 l 372 991 l 486 991 l 396 569 l 849 569 l 939 991 l 1051 991 l 842 0 l 728 0 l 827 467 l 374 467 l 276 0 l 162 0 m 54 714 l 54 732 q 84 791 68 758 q 118 859 101 824 q 149 929 134 895 q 175 992 164 964 l 295 992 l 295 973 q 267 919 286 951 q 223 850 248 886 q 173 778 199 813 q 125 714 147 742 l 54 714 z "},"Ί":{"ha":488,"x_min":54,"x_max":494,"o":"m 170 0 l 381 991 l 494 991 l 283 0 l 170 0 m 54 714 l 54 732 q 84 791 68 758 q 118 859 101 824 q 149 929 134 895 q 175 992 164 964 l 295 992 l 295 973 q 267 919 286 951 q 223 850 248 886 q 173 778 199 813 q 125 714 147 742 l 54 714 z "},"Ό":{"ha":1072,"x_min":54,"x_max":1028,"o":"m 539 -14 q 338 34 420 -14 q 215 168 256 81 q 174 372 174 255 q 189 536 174 457 q 233 687 204 616 q 306 816 262 758 q 404 918 349 875 q 527 984 460 960 q 673 1007 595 1007 q 934 904 840 1007 q 1028 616 1028 800 q 1015 456 1028 534 q 974 307 1001 378 q 906 178 947 237 q 811 77 865 119 q 689 10 757 34 q 539 -14 621 -14 m 543 87 q 651 108 602 87 q 741 165 701 128 q 812 251 781 201 q 864 360 843 300 q 896 485 885 419 q 907 619 907 551 q 843 830 907 755 q 665 905 779 905 q 557 886 607 905 q 465 831 507 867 q 392 747 424 795 q 339 638 361 698 q 306 513 317 579 q 295 375 295 446 q 324 221 295 286 q 409 122 353 157 q 543 87 465 87 m 54 714 l 54 732 q 84 791 68 758 q 118 859 101 824 q 149 929 134 895 q 175 992 164 964 l 295 992 l 295 973 q 267 919 286 951 q 223 850 248 886 q 173 778 199 813 q 125 714 147 742 l 54 714 z "},"Ύ":{"ha":895,"x_min":33,"x_max":1023,"o":"m 404 0 l 484 373 l 320 991 l 435 991 l 559 486 l 894 991 l 1023 991 l 596 370 l 519 0 l 404 0 m 33 714 l 33 732 q 64 791 47 758 q 97 859 81 824 q 129 929 114 895 q 155 992 144 964 l 275 992 l 275 973 q 246 919 265 951 q 203 850 227 886 q 153 778 178 813 q 104 714 127 742 l 33 714 z "},"Ώ":{"ha":1109,"x_min":66,"x_max":1057,"o":"m 66 714 l 66 732 q 97 791 81 758 q 131 859 114 824 q 162 929 147 895 q 188 992 177 964 l 308 992 l 308 973 q 279 919 298 951 q 236 850 260 886 q 186 778 212 813 q 138 714 160 742 l 66 714 m 75 0 l 96 102 l 340 102 q 272 187 304 137 q 219 305 239 237 q 199 462 199 373 q 221 631 199 550 q 283 780 242 711 q 384 900 324 848 q 520 979 444 951 q 690 1007 597 1007 q 895 958 813 1007 q 1016 822 976 908 q 1057 627 1057 736 q 1034 461 1057 538 q 971 317 1012 383 q 874 196 930 250 q 754 102 819 142 l 1005 102 l 985 0 l 580 0 l 597 90 q 732 187 670 133 q 839 308 793 241 q 910 455 885 375 q 935 628 935 534 q 908 771 935 709 q 825 869 882 833 q 681 905 769 905 q 554 882 611 905 q 453 817 497 859 q 380 719 410 775 q 336 595 351 662 q 321 457 321 529 q 360 241 321 328 q 468 90 400 155 l 451 0 l 75 0 z "},"ΐ":{"ha":427,"x_min":70,"x_max":514,"o":"m 237 -14 q 117 22 165 -14 q 70 146 70 58 q 74 191 70 166 q 83 244 77 216 l 189 743 l 302 743 l 195 241 q 188 201 191 222 q 184 160 184 180 q 201 102 184 125 q 258 79 217 79 q 304 83 281 79 q 353 96 326 88 l 353 9 q 301 -6 336 2 q 237 -14 267 -14 m 243 941 l 243 955 q 277 1019 258 983 q 314 1093 296 1055 q 346 1164 332 1131 l 471 1164 l 471 1150 q 423 1084 451 1120 q 362 1010 395 1048 q 295 941 329 973 l 243 941 m 128 879 q 89 893 104 879 q 73 934 73 908 q 91 987 73 964 q 142 1011 109 1011 q 182 997 170 1011 q 195 958 195 982 q 174 900 195 922 q 128 879 153 879 m 447 879 q 408 893 424 879 q 393 934 393 908 q 410 987 393 964 q 461 1011 428 1011 q 501 997 488 1011 q 514 958 514 982 q 493 900 514 922 q 447 879 473 879 z "},"Α":{"ha":779,"x_min":-78,"x_max":711,"o":"m -78 0 l 465 991 l 585 991 l 711 0 l 597 0 l 558 316 l 216 316 l 47 0 l -78 0 m 271 418 l 547 418 l 520 650 q 510 760 515 700 q 503 867 505 820 l 499 867 q 450 759 477 816 q 392 645 422 703 l 271 418 z "},"Β":{"ha":833,"x_min":58,"x_max":817,"o":"m 58 0 l 268 991 l 524 991 q 682 967 616 991 q 782 894 747 943 q 817 767 817 844 q 789 648 817 699 q 710 563 761 596 q 592 517 660 530 l 592 511 q 707 442 661 492 q 752 309 752 391 q 703 138 752 207 q 567 35 653 69 q 370 0 481 0 l 58 0 m 193 98 l 375 98 q 512 122 455 98 q 601 193 570 146 q 632 309 632 240 q 586 425 632 380 q 435 471 540 471 l 272 471 l 193 98 m 292 566 l 462 566 q 581 586 528 566 q 666 648 634 606 q 698 753 698 690 q 654 857 698 821 q 510 893 610 893 l 362 893 l 292 566 z "},"Γ":{"ha":664,"x_min":58,"x_max":772,"o":"m 58 0 l 268 991 l 772 991 l 751 890 l 361 890 l 172 0 l 58 0 z "},"Ε":{"ha":718,"x_min":58,"x_max":770,"o":"m 58 0 l 268 991 l 770 991 l 749 890 l 361 890 l 292 569 l 656 569 l 636 469 l 272 469 l 193 102 l 582 102 l 560 0 l 58 0 z "},"Ζ":{"ha":739,"x_min":-14,"x_max":795,"o":"m -14 0 l 4 89 l 636 888 l 189 888 l 211 991 l 795 991 l 779 901 l 148 103 l 623 103 l 602 0 l -14 0 z "},"Η":{"ha":945,"x_min":60,"x_max":949,"o":"m 60 0 l 269 991 l 384 991 l 294 569 l 747 569 l 836 991 l 949 991 l 739 0 l 626 0 l 724 467 l 272 467 l 174 0 l 60 0 z "},"Θ":{"ha":1002,"x_min":102,"x_max":958,"o":"m 469 -14 q 267 34 349 -14 q 143 169 185 81 q 102 374 102 256 q 117 538 102 458 q 162 688 132 618 q 234 818 191 759 q 333 919 277 876 q 456 984 389 961 q 602 1007 524 1007 q 863 904 768 1007 q 958 616 958 800 q 944 454 958 533 q 903 306 930 376 q 835 177 876 235 q 740 76 794 119 q 618 10 686 33 q 469 -14 550 -14 m 471 87 q 581 108 531 87 q 671 165 631 128 q 743 252 712 202 q 794 361 774 302 q 826 486 815 420 q 836 618 836 551 q 772 829 836 753 q 593 905 709 905 q 484 886 534 905 q 393 830 434 866 q 320 746 351 795 q 267 637 288 696 q 234 512 245 578 q 223 376 223 446 q 252 222 223 287 q 337 122 281 157 q 471 87 393 87 m 334 455 l 354 554 l 718 554 l 698 455 l 334 455 z "},"Ι":{"ha":376,"x_min":58,"x_max":382,"o":"m 58 0 l 269 991 l 382 991 l 171 0 l 58 0 z "},"Κ":{"ha":778,"x_min":58,"x_max":901,"o":"m 58 0 l 268 991 l 382 991 l 278 503 l 363 593 l 762 991 l 901 991 l 465 557 l 704 0 l 578 0 l 378 488 l 256 397 l 172 0 l 58 0 z "},"Λ":{"ha":779,"x_min":-78,"x_max":713,"o":"m -78 0 l 465 991 l 586 991 l 713 0 l 600 0 l 522 646 q 511 760 515 701 q 504 869 507 819 q 454 761 482 819 q 392 640 427 704 l 47 0 l -78 0 z "},"Μ":{"ha":1162,"x_min":57,"x_max":1166,"o":"m 57 0 l 267 991 l 429 991 l 532 169 l 537 169 l 990 991 l 1166 991 l 960 0 l 844 0 l 975 616 q 998 720 987 671 q 1020 809 1010 769 q 1038 878 1029 850 l 1035 878 l 547 0 l 456 0 l 344 878 l 338 878 q 329 807 336 850 q 314 715 323 764 q 296 622 306 667 l 165 0 l 57 0 z "},"Ν":{"ha":977,"x_min":57,"x_max":982,"o":"m 57 0 l 267 991 l 387 991 l 701 161 l 705 161 q 717 240 709 195 q 734 335 724 286 q 753 429 743 384 l 873 991 l 982 991 l 772 0 l 652 0 l 336 832 l 332 832 q 324 777 329 809 q 312 708 319 745 q 298 632 306 671 q 283 556 291 593 l 165 0 l 57 0 z "},"Ξ":{"ha":718,"x_min":-18,"x_max":770,"o":"m -18 0 l 3 102 l 605 102 l 583 0 l -18 0 m 166 469 l 186 569 l 621 569 l 600 469 l 166 469 m 195 890 l 217 991 l 770 991 l 747 890 l 195 890 z "},"Ο":{"ha":1001,"x_min":102,"x_max":956,"o":"m 467 -14 q 266 34 348 -14 q 143 168 184 81 q 102 372 102 255 q 117 536 102 457 q 161 687 132 616 q 234 816 191 758 q 332 918 277 875 q 455 984 388 960 q 602 1007 523 1007 q 862 904 768 1007 q 956 616 956 800 q 943 456 956 534 q 902 307 929 378 q 834 178 875 237 q 739 77 793 119 q 617 10 685 34 q 467 -14 549 -14 m 471 87 q 579 108 530 87 q 669 165 629 128 q 740 251 709 201 q 792 360 771 300 q 824 485 813 419 q 835 619 835 551 q 771 830 835 755 q 593 905 707 905 q 485 886 535 905 q 393 831 435 867 q 320 747 352 795 q 267 638 289 698 q 234 513 245 579 q 223 375 223 446 q 252 221 223 286 q 337 122 281 157 q 471 87 393 87 z "},"Π":{"ha":942,"x_min":58,"x_max":947,"o":"m 58 0 l 268 991 l 947 991 l 737 0 l 622 0 l 810 890 l 361 890 l 172 0 l 58 0 z "},"Ρ":{"ha":786,"x_min":58,"x_max":786,"o":"m 58 0 l 268 991 l 491 991 q 661 960 596 991 q 756 870 726 928 q 786 734 786 812 q 759 589 786 652 q 677 481 731 525 q 542 414 623 437 q 356 391 462 391 l 255 391 l 172 0 l 58 0 m 276 488 l 374 488 q 532 515 466 488 q 634 595 598 541 q 669 731 669 649 q 621 855 669 817 q 475 893 573 893 l 362 893 l 276 488 z "},"Σ":{"ha":728,"x_min":-20,"x_max":781,"o":"m -20 0 l -2 94 l 371 511 l 178 901 l 197 991 l 781 991 l 759 890 l 302 890 l 492 502 l 134 102 l 631 102 l 610 0 l -20 0 z "},"Τ":{"ha":693,"x_min":125,"x_max":816,"o":"m 214 0 l 402 890 l 125 890 l 147 991 l 816 991 l 795 890 l 519 890 l 330 0 l 214 0 z "},"Υ":{"ha":703,"x_min":128,"x_max":831,"o":"m 212 0 l 292 373 l 128 991 l 243 991 l 367 486 l 702 991 l 831 991 l 404 370 l 328 0 l 212 0 z "},"Φ":{"ha":1039,"x_min":100,"x_max":996,"o":"m 378 -14 l 411 139 q 245 183 315 146 q 138 289 175 221 q 100 452 100 356 q 128 619 100 542 q 212 754 155 696 q 358 846 269 812 q 570 884 447 880 l 594 1006 l 711 1006 l 686 884 q 851 842 781 878 q 958 739 920 805 q 996 579 996 673 q 970 423 996 500 q 889 284 945 347 q 745 182 834 221 q 528 139 656 143 l 494 -14 l 378 -14 m 431 236 l 548 785 q 401 759 463 784 q 298 689 339 733 q 238 585 258 644 q 218 458 218 526 q 243 341 218 389 q 317 266 269 292 q 431 236 365 239 m 548 236 q 694 268 632 241 q 798 340 757 295 q 859 445 839 386 q 879 573 879 505 q 854 683 879 636 q 782 755 830 729 q 664 785 734 782 l 548 236 z "},"Χ":{"ha":726,"x_min":-73,"x_max":839,"o":"m -73 0 l 334 524 l 156 991 l 272 991 l 410 605 l 713 991 l 839 991 l 462 519 l 652 0 l 531 0 l 384 435 l 53 0 l -73 0 z "},"Ψ":{"ha":1029,"x_min":136,"x_max":1089,"o":"m 382 0 l 446 303 l 437 303 q 261 341 327 303 q 166 441 195 379 q 136 574 136 503 q 140 638 136 603 q 152 711 144 673 l 210 991 l 330 991 l 268 697 q 256 629 259 658 q 252 579 252 601 q 275 479 252 519 q 342 420 297 439 q 455 401 387 401 l 465 401 l 591 991 l 707 991 l 582 401 l 591 401 q 750 434 688 402 q 848 526 812 467 q 901 665 884 585 l 969 991 l 1089 991 l 1018 654 q 970 511 1002 576 q 887 400 939 447 q 761 329 836 354 q 585 303 686 303 l 562 303 l 497 0 l 382 0 z "},"Ϊ":{"ha":376,"x_min":58,"x_max":555,"o":"m 58 0 l 269 991 l 382 991 l 171 0 l 58 0 m 488 1128 q 448 1142 464 1128 q 433 1183 433 1156 q 451 1236 433 1213 q 503 1259 469 1259 q 543 1245 530 1259 q 555 1207 555 1231 q 534 1149 555 1171 q 488 1128 513 1128 m 239 1128 q 199 1142 214 1128 q 184 1183 184 1156 q 201 1236 184 1213 q 253 1259 219 1259 q 283 1253 271 1259 q 300 1235 294 1246 q 306 1207 306 1223 q 286 1149 306 1171 q 239 1128 265 1128 z "},"Ϋ":{"ha":703,"x_min":128,"x_max":831,"o":"m 212 0 l 292 373 l 128 991 l 243 991 l 367 486 l 702 991 l 831 991 l 404 370 l 328 0 l 212 0 m 635 1128 q 596 1142 612 1128 q 581 1183 581 1156 q 598 1236 581 1213 q 651 1259 616 1259 q 690 1245 677 1259 q 703 1207 703 1231 q 682 1149 703 1171 q 635 1128 661 1128 m 387 1128 q 347 1142 362 1128 q 332 1183 332 1156 q 349 1236 332 1213 q 401 1259 367 1259 q 431 1253 419 1259 q 448 1235 442 1246 q 454 1207 454 1223 q 433 1149 454 1171 q 387 1128 413 1128 z "},"ά":{"ha":789,"x_min":67,"x_max":787,"o":"m 268 -14 q 123 51 179 -14 q 67 241 67 115 q 84 400 67 323 q 132 541 100 476 q 207 654 163 606 q 307 730 252 703 q 428 757 363 757 q 554 718 509 757 q 620 624 599 678 l 627 624 q 645 663 635 641 q 669 707 656 685 q 695 743 682 728 l 787 743 q 753 663 772 713 q 718 553 735 613 q 686 431 700 492 l 635 202 q 628 162 630 181 q 625 130 625 142 q 637 91 625 104 q 669 78 649 78 q 691 80 679 78 q 714 86 703 82 l 714 3 q 680 -8 703 -3 q 633 -14 656 -14 q 566 2 593 -14 q 526 50 538 18 q 515 131 513 82 l 510 131 q 444 60 480 93 q 365 7 408 27 q 268 -14 321 -14 m 307 80 q 408 117 358 80 q 497 218 457 154 q 558 364 536 283 q 573 441 569 404 q 577 507 577 477 q 540 620 577 577 q 440 662 503 662 q 354 639 394 662 q 283 576 315 616 q 229 482 252 535 q 195 367 207 429 q 183 240 183 305 q 215 120 183 161 q 307 80 247 80 m 440 842 l 440 860 q 471 919 454 886 q 504 987 488 951 q 536 1057 521 1022 q 562 1120 551 1091 l 682 1120 l 682 1101 q 653 1046 672 1079 q 610 977 634 1014 q 559 905 585 941 q 511 842 534 869 l 440 842 z "},"έ":{"ha":623,"x_min":41,"x_max":633,"o":"m 286 -14 q 149 11 203 -14 q 68 79 95 36 q 41 177 41 122 q 68 287 41 243 q 141 356 95 331 q 245 391 188 381 l 245 395 q 171 449 201 412 q 141 543 141 486 q 181 666 141 619 q 285 734 222 713 q 415 755 348 755 q 537 743 486 755 q 633 707 588 730 l 591 619 q 517 649 562 636 q 420 662 472 662 q 297 632 347 662 q 247 534 247 603 q 280 463 247 492 q 385 434 313 434 l 469 434 l 450 339 l 370 339 q 261 325 310 339 q 183 280 212 311 q 154 195 154 248 q 189 112 154 145 q 303 78 223 78 q 424 96 368 78 q 528 137 480 114 l 528 41 q 428 4 491 22 q 286 -14 366 -14 m 376 842 l 376 860 q 407 919 391 886 q 440 987 424 951 q 472 1057 457 1022 q 498 1120 487 1091 l 618 1120 l 618 1101 q 589 1046 608 1079 q 546 977 570 1014 q 496 905 522 941 q 448 842 470 869 l 376 842 z "},"ή":{"ha":800,"x_min":39,"x_max":722,"o":"m 425 -334 l 595 468 q 606 521 602 498 q 609 562 609 543 q 584 635 609 608 q 504 662 558 662 q 398 628 454 662 q 294 520 342 593 q 222 328 247 446 l 153 0 l 39 0 l 197 743 l 290 743 l 272 600 l 279 600 q 341 671 305 635 q 425 732 377 707 q 534 757 473 757 q 634 736 592 757 q 699 674 675 715 q 722 574 722 634 q 717 512 722 543 q 707 456 713 480 l 538 -334 l 425 -334 m 445 842 l 445 860 q 476 919 459 886 q 509 987 492 951 q 541 1057 526 1022 q 566 1120 555 1091 l 686 1120 l 686 1101 q 658 1046 677 1079 q 614 977 639 1014 q 564 905 590 941 q 516 842 538 869 l 445 842 z "},"ί":{"ha":427,"x_min":70,"x_max":455,"o":"m 237 -14 q 117 22 165 -14 q 70 146 70 58 q 74 191 70 166 q 83 244 77 216 l 189 743 l 302 743 l 195 241 q 188 201 191 222 q 184 160 184 180 q 201 102 184 125 q 258 79 217 79 q 304 83 281 79 q 353 96 326 88 l 353 9 q 301 -6 336 2 q 237 -14 267 -14 m 214 842 l 214 860 q 244 919 228 886 q 278 987 261 951 q 309 1057 294 1022 q 335 1120 324 1091 l 455 1120 l 455 1101 q 427 1046 446 1079 q 383 977 408 1014 q 333 905 359 941 q 285 842 307 869 l 214 842 z "},"ΰ":{"ha":802,"x_min":89,"x_max":743,"o":"m 342 -14 q 155 50 220 -14 q 89 228 89 113 q 93 287 89 256 q 109 373 97 317 l 186 743 l 299 743 l 222 377 q 205 291 210 322 q 201 234 201 260 q 242 116 201 153 q 350 79 282 79 q 461 113 415 79 q 538 204 507 146 q 588 332 569 261 q 615 477 606 402 q 628 621 625 552 q 631 743 631 690 l 743 743 q 734 539 743 644 q 702 335 726 433 q 634 157 679 236 q 518 33 589 79 q 342 -14 447 -14 m 457 941 l 457 955 q 491 1019 473 983 q 528 1093 510 1055 q 560 1164 547 1131 l 685 1164 l 685 1150 q 637 1084 665 1120 q 576 1010 609 1048 q 509 941 543 973 l 457 941 m 342 879 q 303 893 319 879 q 288 934 288 908 q 306 987 288 964 q 357 1011 323 1011 q 397 997 385 1011 q 409 958 409 982 q 388 900 409 922 q 342 879 367 879 m 661 879 q 623 893 638 879 q 607 934 607 908 q 625 987 607 964 q 675 1011 642 1011 q 715 997 702 1011 q 728 958 728 982 q 708 900 728 922 q 661 879 687 879 z "},"α":{"ha":789,"x_min":67,"x_max":787,"o":"m 268 -14 q 123 51 179 -14 q 67 241 67 115 q 84 400 67 323 q 132 541 100 476 q 207 654 163 606 q 307 730 252 703 q 428 757 363 757 q 554 718 509 757 q 620 624 599 678 l 627 624 q 645 663 635 641 q 669 707 656 685 q 695 743 682 728 l 787 743 q 753 663 772 713 q 718 553 735 613 q 686 431 700 492 l 635 202 q 628 162 630 181 q 625 130 625 142 q 637 91 625 104 q 669 78 649 78 q 691 80 679 78 q 714 86 703 82 l 714 3 q 680 -8 703 -3 q 633 -14 656 -14 q 566 2 593 -14 q 526 50 538 18 q 515 131 513 82 l 510 131 q 444 60 480 93 q 365 7 408 27 q 268 -14 321 -14 m 307 80 q 408 117 358 80 q 497 218 457 154 q 558 364 536 283 q 573 441 569 404 q 577 507 577 477 q 540 620 577 577 q 440 662 503 662 q 354 639 394 662 q 283 576 315 616 q 229 482 252 535 q 195 367 207 429 q 183 240 183 305 q 215 120 183 161 q 307 80 247 80 z "},"β":{"ha":807,"x_min":-31,"x_max":785,"o":"m -31 -332 l 198 744 q 254 905 217 833 q 359 1020 292 977 q 535 1063 426 1063 q 669 1034 613 1063 q 755 953 725 1006 q 785 828 785 901 q 758 698 785 754 q 677 605 730 642 q 547 551 625 568 q 669 480 619 534 q 720 321 720 425 q 697 188 720 249 q 632 82 675 127 q 526 12 589 37 q 384 -14 464 -14 q 254 11 305 -14 q 166 63 203 35 l 81 -332 l -31 -332 m 376 79 q 477 98 433 79 q 550 151 520 117 q 594 227 579 184 q 609 316 609 269 q 563 453 609 401 q 409 505 517 505 l 361 505 l 382 601 l 433 601 q 539 617 494 601 q 613 662 584 633 q 656 731 642 691 q 670 820 670 772 q 634 926 670 883 q 524 970 597 970 q 414 938 456 970 q 348 854 372 907 q 311 740 324 802 l 184 141 q 270 96 218 113 q 376 79 321 79 z "},"γ":{"ha":639,"x_min":55,"x_max":703,"o":"m 55 -334 q 84 -218 66 -276 q 127 -103 103 -161 q 180 9 152 -46 l 66 743 l 181 743 l 235 332 q 242 278 239 307 q 248 219 245 250 q 251 160 250 189 q 252 104 252 130 l 255 104 q 309 225 279 162 q 361 330 339 289 l 583 743 l 703 743 l 309 24 q 252 -92 277 -33 q 206 -211 226 -151 q 172 -334 186 -271 l 55 -334 z "}}}
